<svg id="Layer_2" data-name="Layer 2" xmlns="http://www.w3.org/2000/svg" viewBox="0 0 1000 1000"><defs><style>.cls-1,.cls-8{fill:#ef3f3f;}.cls-1,.cls-10,.cls-11,.cls-12,.cls-2,.cls-3,.cls-4,.cls-5,.cls-6,.cls-7,.cls-8{stroke:#000;stroke-linecap:round;}.cls-1,.cls-10,.cls-11,.cls-12,.cls-13,.cls-2,.cls-3,.cls-4,.cls-5,.cls-6,.cls-7,.cls-8{stroke-miterlimit:10;}.cls-1,.cls-10,.cls-11,.cls-12,.cls-13,.cls-2,.cls-3,.cls-4,.cls-5,.cls-6,.cls-7{stroke-width:3px;}.cls-2{fill:#14af6c;}.cls-4{fill:#104fc1;}.cls-5{fill:#fff8f8;}.cls-6{fill:#ffc0c0;}.cls-7{fill:none;}.cls-8{stroke-width:2px;}.cls-9{fill:#231f20;}.cls-10{fill:#f9851c;}.cls-11{fill:#f7ce21;}.cls-12{fill:#d1b7e5;}.cls-13{fill:#fff;stroke:#020202;}</style></defs><path class="cls-1" d="M635.63,927.06h0L483.41,945.17,331.2,963.28h0a36.6,36.6,0,0,0,37.73,21.5l56.73-6.7,56.72-6.7A49.85,49.85,0,0,0,492.65,969a49.33,49.33,0,0,0,9.53-4.49l2.72-1.66,2.73-1.66a2.57,2.57,0,0,1,3.85,1.63h0a5.63,5.63,0,0,0,6.17,4.36l26.19-3.09L570,961a6.05,6.05,0,0,0,5.14-4.56l.27-1.15.28-1.14a1.51,1.51,0,0,1,1.14-1.12,1.48,1.48,0,0,1,1.5.55l1.18,2,1.18,2a3.49,3.49,0,0,0,3.42,1.7l5.41-.64,5.4-.64a3.42,3.42,0,0,0,1.9-.85,3.49,3.49,0,0,0,1.08-1.78l.51-2.14.52-2.14a1.51,1.51,0,0,1,1.14-1.12,1.48,1.48,0,0,1,1.5.55l.75,1.28.75,1.28a6.53,6.53,0,0,0,6.42,3.2l3.77-.44,3.77-.45a22.12,22.12,0,0,0,18.57-28.41Z"/><path class="cls-2" d="M351.88,432.63a264.44,264.44,0,0,0-21.26,24.7,244.46,244.46,0,0,0-13.81,20.26,157.71,157.71,0,0,0-8.06,14.69,78.05,78.05,0,0,0-3.35,8.22,95.91,95.91,0,0,0-4.82,23.71,98.27,98.27,0,0,0,11.58,54.29l67.94,126,67.95,126,66.63-21.65,66.64-21.65-51.43-115-51.44-115L496.15,541l17.69-16.34,81.61,145.7q40.81,72.84,81.62,145.7l69.78-16.24,69.79-16.24L721.88,548.7,627.13,313.81q-31,9.46-61.92,18.88t-62,18.76q-29.89,9-59.8,18t-59.84,17.89c-5.49,7.51-10.68,15.08-15.87,22.65S357.37,425.11,351.88,432.63Z"/><polygon class="cls-3" points="689.25 347.41 701.21 370.82 713.17 394.22 680.41 414.83 647.66 435.44 668.46 391.42 689.25 347.41"/><path class="cls-4" d="M382,124.48A102.24,102.24,0,0,0,341,143.85C320.83,159.6,301.54,187.49,304.8,236L306,260.4l1.15,24.37-21.3-20.34-21.29-20.34L231.7,280.93l-32.81,36.84,45.58,46.53L290,410.84c.77.83,1.72,1.84,2.85,3s2.43,2.38,3.89,3.7a119.84,119.84,0,0,0,10.05,8.34,52.92,52.92,0,0,0,13.5,7.3,44.32,44.32,0,0,0,17.9,2.23,57.13,57.13,0,0,0,13.65-2.75l72.79,17,72.78,17q-5.56-26.75-11.14-53.49t-11.14-53.49q14.25-3.81,28.85-8.17t29.5-9.32l6.85-2.31,6.78-2.34q4.22,9.58,8.41,19.16T564,375.82a151.52,151.52,0,0,1,35,2.32c20,3.55,45.18,11.85,65.55,30.9l25-62.3,25-62.29s3.3-7.36,2.18-19.45-6.67-28.92-24.37-47.86q-4.46-4.75-8.78-9.6t-8.49-9.87l-25.72-31.13-25.73-31.13s-.5-.65-1.47-1.8-2.41-2.79-4.31-4.79a125.93,125.93,0,0,0-129.1-33.09q-12.87,4-26.26,8t-27.31,7.67q-13.67,3.68-27,6.94T382,124.48Z"/><path class="cls-1" d="M197.2,114.13a51,51,0,0,1,16.56-16.75,32.72,32.72,0,0,1,20.09-5,28.27,28.27,0,0,1,5.29,1.06,33.93,33.93,0,0,1,9.44,4.49c10.94,7.46,15.58,19.2,17,31.91s-.39,26.38-2.37,37.68c-.59,3.4-1.33,6.79-2.22,10.13a100.37,100.37,0,0,1-3.18,9.87,82.18,82.18,0,0,1-6.4,13.89c-2.7,4.36-6.15,8.12-10.89,10.27a22.32,22.32,0,0,1-12.65,2.1,14.92,14.92,0,0,1-10.41-7c.76,1.18-.42,3.67-2,6a35.5,35.5,0,0,1-4.13,5.21c-4.23,3.91-10.2,5.28-16.16,4.82a29.52,29.52,0,0,1-16.07-6.22,40.69,40.69,0,0,1-6.09-6.35,65.75,65.75,0,0,1-4.9-7.32,107.25,107.25,0,0,1-9.94-23.62,194.18,194.18,0,0,1-5.42-25.12c-1.12-7.14-1.93-14.88-.81-22s4.18-13.71,10.81-18.51A27.13,27.13,0,0,1,180,108.69,35.55,35.55,0,0,1,197.2,114.13Z"/><path class="cls-5" d="M475.17,359.63l36-11.07,36-11.07q-29.16-47.61-58.33-95.2l-58.33-95.21q11.17,53.14,22.34,106.27T475.17,359.63Z"/><path class="cls-5" d="M408,126.81q6,6.09,12,12.16l11.94,12.16q1.93-8.1,3.88-16.19t3.88-16.19l-15.83,4Z"/><path d="M645.83,469l-20.92,8.17L604,485.35a24.7,24.7,0,0,0-13.17,11.79,20.06,20.06,0,0,0-1,16.4l17,43.48,17,43.48a1.4,1.4,0,0,0,.56.7,1.46,1.46,0,0,0,.84.26,1.24,1.24,0,0,0,.27,0,1.34,1.34,0,0,0,.27-.07,1.5,1.5,0,0,0,.85-2l-17-43.48-17-43.48a17.09,17.09,0,0,1,.92-14.1,21.81,21.81,0,0,1,11.52-10.2l21.24-8.3,21.23-8.29-.86-1.27-.86-1.28Z"/><path class="cls-4" d="M382,124.48,386.77,161l4.77,36.51,20.15-23.19,20.16-23.19-12.57-12.7q-6.28-6.36-12.58-12.7c-1.24-.14-2.58-.33-4-.6s-2.93-.62-4.5-1.07c-1.14-.33-2.21-.68-3.22-1s-2-.75-2.84-1.13l-5.07,1.3Z"/><path class="cls-4" d="M431.85,151.13l32.8,8.76,32.8,8.77-16.19-32.85L465.07,103l-6,1.75-6,1.75q-1.11,1.35-2.43,2.79c-.87,1-1.82,1.92-2.84,2.9-1.43,1.37-2.84,2.59-4.2,3.69s-2.69,2.06-3.94,2.92q-2,8.09-3.88,16.19T431.85,151.13Z"/><path class="cls-3" d="M307.2,284.87l12.9,12.51L333,309.9a.34.34,0,0,0,.45,0,.36.36,0,0,0,.14-.44l-14-35.7-14-35.7a.37.37,0,0,0-.71.15l1.1,23.18,1.09,23.19a.5.5,0,0,0,0,.13A.5.5,0,0,0,307.2,284.87Z"/><path class="cls-6" d="M564,375.82A477.38,477.38,0,0,0,547.82,425c-6.93,26.17-11.57,55.52-2.41,68.22A180.85,180.85,0,0,0,556,508.62a178.43,178.43,0,0,0,42.64,40,183.6,183.6,0,0,0,25,14,21.35,21.35,0,0,0,6.51,1.85,19.31,19.31,0,0,0,6.73-.39c.48-.12,1-.26,1.47-.42s1-.34,1.51-.55a20.57,20.57,0,0,0,5-2.95,20.79,20.79,0,0,0,2.87-2.83,18.36,18.36,0,0,0,7.22-2.55c3.28-2.14,5.88-6,3.18-12.91a11.33,11.33,0,0,0,3-.93,9.13,9.13,0,0,0,4.15-3.66,9.42,9.42,0,0,0,1-6.45,11.76,11.76,0,0,0-3.47-6.3,11,11,0,0,0,4.77-5.83c1.09-3.78-.44-9.28-10.86-16.19a166.55,166.55,0,0,1-17-12.6c-8.69-7.37-17.75-16.9-19.22-25.5a7.49,7.49,0,0,1,2.38-6.88,7.4,7.4,0,0,1,7.06-1.65,23.51,23.51,0,0,1,8.92,5.15,53.8,53.8,0,0,1,10.65,13.55c.46.78.89,1.57,1.31,2.37s.81,1.62,1.2,2.43c1.21,2.57,3.55,7.34,6.38,12.23s6.13,9.93,9.28,13a9.55,9.55,0,0,0,4.77,2.56,8.26,8.26,0,0,0,5.3-.64,7.92,7.92,0,0,0,4-4.67c.87-2.47,1.06-6,0-11a37,37,0,0,0-1-3.75c-.4-1.23-.86-2.44-1.36-3.63L673,468.44l-6.34-15.09A64.72,64.72,0,0,1,664.5,409h0c-.28-.22-3.19-2.76-7.63-6.13a140,140,0,0,0-16.78-11.06,94,94,0,0,0-8.52-4.14c-2.57-1.09-4.91-2-7.1-2.77-1.69-.63-5.56-2-11.11-3.55a162.93,162.93,0,0,0-21.19-4.3c-3.73-.5-8-.93-12.71-1.19S569.55,375.58,564,375.82Z"/><path class="cls-3" d="M432.32,235.88a3.86,3.86,0,0,1-3.86,3.86,3.86,3.86,0,0,1-2.73-6.59,3.86,3.86,0,0,1,6.59,2.73Z"/><path class="cls-3" d="M444.85,309.3a3.86,3.86,0,1,1-1.13-2.72A3.84,3.84,0,0,1,444.85,309.3Z"/><path class="cls-3" d="M454.48,378.19a3.86,3.86,0,1,1-6.58-2.73,3.86,3.86,0,0,1,6.58,2.73Z"/><path class="cls-6" d="M264.51,244.09l.83-28.79.83-28.8q.09-3.12.26-6.25t.36-6.25a20.57,20.57,0,0,0-.9-8c-1-2.58-2.84-4.58-6.33-4.58,0,0-1.88,0-4.17,2.59s-5,7.59-6.67,17.58c-.51,3.11-1.15,6.2-1.93,9.24a88.57,88.57,0,0,1-2.8,9,77.63,77.63,0,0,1-3.75,8.52,43.33,43.33,0,0,1-5,7.74,16,16,0,0,1-9.28,5.47,15.4,15.4,0,0,1-10.57-1.72l0,0-.05,0c-3.81-2.19-6.71-5.13-9.84-10.51s-6.47-13.22-11.17-25.2c-3.08-7.87-5.32-13.88-7.6-18.09s-4.63-6.61-7.91-7.28a9.39,9.39,0,0,0-3.24-.09,11.56,11.56,0,0,0-2.51.64A75.67,75.67,0,0,0,169.54,146c-1.31-3.5-2.74-6-4.13-7.15a8.05,8.05,0,0,0-2.77-1.53,5.15,5.15,0,0,0-1.23-.23,5.34,5.34,0,0,0-2.21.44,6.74,6.74,0,0,0-1.41.82,10.05,10.05,0,0,0-1.73-4.73,7.1,7.1,0,0,0-3.57-2.71,7.65,7.65,0,0,0-2-.35,6.6,6.6,0,0,0-3.47.73,4.68,4.68,0,0,0-.48.29,7.33,7.33,0,0,0-1,.79c-1.5,1.48-2,4.54-2.07,7.28a37.83,37.83,0,0,0,.23,5.4,9.46,9.46,0,0,0-3.92-.23,6.07,6.07,0,0,0-2,.7,7.31,7.31,0,0,0-3,3.7,20.35,20.35,0,0,0-1.19,8.21l.06,2.68c0,.9,0,1.79,0,2.68-.11,10.55.07,20.26.41,29s.85,16.62,1.39,23.43a162.62,162.62,0,0,0,2.21,18.11,71.78,71.78,0,0,0,5.11,16.12A80.47,80.47,0,0,0,150,262.22a83.75,83.75,0,0,0,7,8.78q10.47,11.7,21,23.38l21,23.39,32.81-36.84Z"/><polyline class="cls-7" points="143.74 145.09 146.31 182.22 148.88 219.35"/><polyline class="cls-7" points="157.79 138.39 162.13 177.24 166.46 216.09"/><polyline class="cls-7" points="172.98 159.26 177.21 186.48 181.44 213.71"/><polyline class="cls-7" points="563.97 375.82 583.29 324.59 602.61 273.36 571.81 240.42 541.01 207.47"/><path class="cls-7" d="M197.2,114.13a44.34,44.34,0,0,1-2-11.7c-.26-6.64,1-14.89,7-21.27"/><path class="cls-5" d="M226.67,131.37c.45.57.9,1.12,1.33,1.64l1.24,1.45a47.26,47.26,0,0,1,7.19,10.8,41,41,0,0,1,3.62,12.49.55.55,0,0,0,1,.19A41.56,41.56,0,0,0,246,144.06a35.47,35.47,0,0,0-.63-14.72,28.4,28.4,0,0,0-4.74-9.59c-2.28-3-5.18-5.38-8.49-6.16a8.24,8.24,0,0,0-5.35.62,8.61,8.61,0,0,0-4,3.68,8.22,8.22,0,0,0,0,7.13A27.32,27.32,0,0,0,226.67,131.37Z"/><path class="cls-3" d="M464.58,53.61,445,56.2,425.4,58.79a60.25,60.25,0,0,0,5.06,15.08,52.93,52.93,0,0,0,23.5,24,56,56,0,0,0,9,3.65,64.72,64.72,0,0,0,4-12.49,66.9,66.9,0,0,0,.43-24.86A64.56,64.56,0,0,0,464.58,53.61Z"/><path class="cls-6" d="M447.34,93.87c-1.18-.85-2.09-1.58-2.8-2.2s-1.2-1.1-1.55-1.45l-.68-.72-.52-.58.51.09.6.09s.21,0,.53.05.73.06,1.15.06a14.36,14.36,0,0,0,0-28.71,14.12,14.12,0,0,0-9.13,3.42,15,15,0,0,0-5,8.68c-.55-.94-1.13-2-1.69-3.2a37.83,37.83,0,0,1-1.62-3.94q-.64-1.86-1.05-3.54c-.28-1.11-.49-2.16-.65-3.13L392,63.22l-33.43,4.43c-.15,1.28-.27,2.58-.35,3.89s-.12,2.63-.12,4a63.48,63.48,0,0,0,16.14,42.8c10,11,23.76,17.73,39,17.73a51.37,51.37,0,0,0,29.79-9.6,59.44,59.44,0,0,0,20-24.88,58.17,58.17,0,0,1-5.73-2.12c-1.67-.72-3.1-1.43-4.29-2.07-.66-.35-1.49-.82-2.44-1.4S448.48,94.69,447.34,93.87Z"/><path class="cls-8" d="M430,93.67a7.68,7.68,0,1,1-2.25-5.44A7.66,7.66,0,0,1,430,93.67Z"/><path class="cls-8" d="M393.45,113.47A7.68,7.68,0,1,1,391.2,108,7.66,7.66,0,0,1,393.45,113.47Z"/><path class="cls-7" d="M397.34,115.05a12.7,12.7,0,0,0,6.3.08c3.37-.85,7.16-3.49,8.86-10.66"/><path class="cls-9" d="M381.77,97.4a3.1,3.1,0,0,1-6.2,0,3.12,3.12,0,0,1,.91-2.2,3.1,3.1,0,0,1,5.29,2.2Z"/><path class="cls-9" d="M411.59,84.62a3.09,3.09,0,1,1-.91-2.2A3.1,3.1,0,0,1,411.59,84.62Z"/><polyline class="cls-7" points="376.07 80.27 392.28 73.61 408.49 66.96"/><polyline class="cls-7" points="384.35 76.87 389.39 90.67 394.43 104.47 396.32 103.61 398.2 102.74"/><path class="cls-10" d="M413.19,15a52.19,52.19,0,0,0-36.51,15.19,62.44,62.44,0,0,0-18.14,37.49l53-7,53-7a60.13,60.13,0,0,0-19.91-27.8A51.54,51.54,0,0,0,413.19,15Z"/><polyline class="cls-7" points="440.09 79.62 444.58 75.88 449.08 72.14"/><path class="cls-3" d="M378.67,65a28.4,28.4,0,0,1-1.93,16.62,24.87,24.87,0,0,1-10.63,11.76,23.22,23.22,0,0,1-5.65,2.2,25.28,25.28,0,0,1-5.39.69A24.72,24.72,0,0,1,342,92.8,22.28,22.28,0,0,1,331.26,77a21.58,21.58,0,0,1,0-6.06A24,24,0,0,1,336.64,59,16.9,16.9,0,0,1,348,52.78a16.33,16.33,0,0,1,8,1.46,21.11,21.11,0,0,1,4.61,2.84c-.3,1-.59,2.08-.86,3.2s-.52,2.3-.73,3.53c-.12.67-.22,1.32-.32,2s-.17,1.27-.23,1.88l10.07-1.34Z"/><polyline class="cls-7" points="363.63 48.97 410.29 43.84 456.96 38.7"/><polyline class="cls-7" points="377.75 47.42 377.75 56.26 377.75 65.1"/><polyline class="cls-7" points="396.18 45.52 396.18 53.87 396.18 62.23"/><polyline class="cls-7" points="418.7 43.26 418.7 51.47 418.7 59.68"/><polyline class="cls-7" points="441.64 40.71 441.64 48.48 441.64 56.24"/><path class="cls-7" d="M377,268.28l13.95,44.34L404.89,357q-13.26,18.92-26.5,37.84l-26.51,37.83"/><polyline class="cls-7" points="516.49 529.28 502.4 503.84 488.31 478.4"/><path class="cls-10" d="M610.41,849.22c-3.28-6.91-7.22-15.37-11.64-25.25s-9.34-21.16-14.54-33.7a20,20,0,0,0-1.83-3.79,19.32,19.32,0,0,0-4.17-4.77,15.48,15.48,0,0,0-4.88-2.66,15,15,0,0,0-5.5-.72,99.24,99.24,0,0,0-14.26,1.87,113.7,113.7,0,0,0-21.86,7.14A53.54,53.54,0,0,0,519.79,795a56.22,56.22,0,0,0-7,7.11,59.67,59.67,0,0,0-4.46,6.19s-.88-9.07-5.36-16.29-12.59-12.58-27-5.17L460.73,795l-15.2,8.18a10.76,10.76,0,0,0-4.37,14.59l6.41,11.85L454,841.46a19.87,19.87,0,0,1,2.41,11c-.48,6.4-4.3,14.58-17.72,21.69L413.5,886l-25.18,11.82q-6.18,2.91-12.43,5.71t-12.5,5.53c-7.31,3.21-19.37,9.44-27.58,18.58s-12.58,21.18-4.52,36l152-18.48,152-18.49c-3.59-20-9.82-39.4-15.15-53.75S610.41,849.22,610.41,849.22Z"/><path class="cls-7" d="M508.31,808.28a110.23,110.23,0,0,1-3,20c-2.66,10.87-7.66,23.44-17,30.27"/><path class="cls-7" d="M450.92,864.92l11.69,4.82,11.69,4.82"/><path class="cls-7" d="M423,881.74l10.69,6.08,10.69,6.08"/><path class="cls-7" d="M397.06,894.67l11.23,7.23,11.23,7.24"/><path class="cls-2" d="M545.3,818.59a10.31,10.31,0,1,1-3-7.29A10.24,10.24,0,0,1,545.3,818.59Z"/><path class="cls-10" d="M840.1,836c-3.27-6.91-7.22-15.38-11.64-25.25s-9.33-21.16-14.54-33.71a20.28,20.28,0,0,0-1.83-3.78,19.14,19.14,0,0,0-4.17-4.77,15.48,15.48,0,0,0-4.88-2.66,14.76,14.76,0,0,0-5.5-.72A97.85,97.85,0,0,0,783.28,767a93.76,93.76,0,0,0-10.63,2.85,98.86,98.86,0,0,0-11.23,4.29,53.49,53.49,0,0,0-11.93,7.64,55.67,55.67,0,0,0-7,7.11A58.62,58.62,0,0,0,738,795.1s-.87-9.07-5.36-16.29-12.58-12.58-27-5.17l-15.2,8.18L675.22,790a10.77,10.77,0,0,0-4.37,14.6l6.41,11.84,6.41,11.85a19.83,19.83,0,0,1,2.41,11c-.47,6.4-4.3,14.58-17.72,21.68l-25.17,11.82L618,884.63q-6.18,2.91-12.42,5.7t-12.5,5.54c-7.32,3.2-19.38,9.43-27.59,18.57s-12.58,21.18-4.51,36L713,932l152-18.48c-3.59-20-9.81-39.4-15.14-53.75S840.1,836,840.1,836Z"/><path class="cls-7" d="M738,795.1a109.63,109.63,0,0,1-3,20c-2.66,10.87-7.66,23.44-17,30.27"/><path class="cls-7" d="M680.61,851.73l11.69,4.83L704,861.38"/><path class="cls-7" d="M653.09,868.56l10.69,6.08,10.68,6.07"/><path class="cls-7" d="M627.54,880.71,638.77,888,650,895.18"/><path class="cls-2" d="M779.55,805.4a10.31,10.31,0,1,1-3-7.28A10.26,10.26,0,0,1,779.55,805.4Z"/><path class="cls-7" d="M592.34,523.84s9.52,8.08,21.2,16.31,25.51,16.6,34.12,17.21"/><path class="cls-7" d="M602.48,509.74s11.76,7.83,24.59,15.76,26.72,16,31,16.4"/><path class="cls-7" d="M611.36,494.64s9.61,7.92,20.83,15.62,24.08,15.18,30.56,14.3"/><path class="cls-10" d="M723.36,712.36l-.36,0-.37,0c-10-1.15-17.56-7.76-22.42-16.32a51.26,51.26,0,0,1-6.38-28v-.07q3.84-51.68,9-103.24t11.73-103a50.42,50.42,0,0,1,11.53-25.86c6.3-7.28,14.83-12.2,24.84-11.69,11.11.57,18.88,6.89,23.87,15.42s7.21,19.28,7.21,28.68v.25q-3.63,51.75-9.21,103.33t-13.1,102.9a54.45,54.45,0,0,1-11.51,26.17C742,708.28,733.56,713.26,723.36,712.36Z"/><path class="cls-11" d="M780.38,492A83.08,83.08,0,0,0,764,498.08a78.61,78.61,0,0,0-10.81,6.55,54.84,54.84,0,0,0-10.95,10.11,32.32,32.32,0,0,0-5.34,9.41,17.07,17.07,0,0,0-1.13,5.67,8.29,8.29,0,0,0,.8,3.68,9.08,9.08,0,0,0,3.21,3.58,18,18,0,0,0,3.41,1.71,18.39,18.39,0,0,0,8.72,1.21,23.84,23.84,0,0,0,5.73-1.3c-1.64,1.65-8,8.07-14.32,15.41s-12.77,15.62-14.58,21a15.89,15.89,0,0,0-.85,3.48,6.4,6.4,0,0,0,.84,4.26,5.82,5.82,0,0,0,2.87,2.16,17.31,17.31,0,0,0,3.39.81c2.27.36,5,.77,8.21,1.16s6.84.76,10.92,1.07c-3,5-5.78,9.45-8.25,13.29s-4.64,7.07-6.39,9.63c0,0-3,4.33-6.61,10.7a134.8,134.8,0,0,0-10.71,22.91,17.14,17.14,0,0,0-.89,3.82,8.54,8.54,0,0,0,3.92,8.39,12.36,12.36,0,0,0,2.54,1.31,10.39,10.39,0,0,0,5.25.46c2.89-.34,7.07-1.55,13-4.67a78.5,78.5,0,0,0,8.43-5.11,83.6,83.6,0,0,0,10.21-8.38"/><polygon class="cls-12" points="785.99 684.68 733.16 708.95 680.33 733.22 668.66 676.91 656.99 620.61 687.79 606.46 718.6 592.31 752.29 638.5 785.99 684.68"/><polygon class="cls-12" points="656.99 620.61 654.12 614.37 651.25 608.13 681.86 594.07 712.46 580.01 715.53 586.16 718.6 592.31 687.79 606.46 656.99 620.61"/><polyline class="cls-12" points="656.99 620.61 691.03 666.64 725.08 712.66"/><polygon class="cls-7" points="550.71 637.44 672.15 576.81 793.59 516.18 795.54 597.62 797.5 679.06 735.8 707.77 674.1 736.48 612.4 686.96 550.71 637.44"/><path class="cls-10" d="M757.58,677.74l-12.74,6.19-12.74,6.2a7.83,7.83,0,0,1-6,1.29,8.25,8.25,0,0,1-5.25-3.38l-15.75-22.2-15.75-22.19a8.35,8.35,0,0,1-1.46-6.08,7.81,7.81,0,0,1,3.21-5.22l12.74-6.19,12.74-6.2a7.85,7.85,0,0,1,6-1.3,8.36,8.36,0,0,1,5.26,3.38l15.75,22.2,15.74,22.2a8.3,8.3,0,0,1,1.46,6.08A7.83,7.83,0,0,1,757.58,677.74Z"/><polyline class="cls-7" points="613.31 606.18 660.74 663.4 708.16 720.63"/><polyline class="cls-7" points="718.62 553.61 734.69 627.21 750.76 700.8"/><polyline class="cls-7" points="592.34 670.85 693.59 619.55 794.84 568.24"/><polyline class="cls-7" points="631.96 702.66 713.98 659.78 796 616.9"/><path d="M720,553.07,704.88,513.8l-15.14-39.28a20,20,0,0,0-11.83-11.39,24.7,24.7,0,0,0-17.68.26L653,466.2l-7.2,2.81h0l.86,1.28.86,1.27,6.89-2.69,6.88-2.69a21.76,21.76,0,0,1,15.39-.31,17.06,17.06,0,0,1,10.23,9.74l15.14,39.27,15.14,39.27a1.53,1.53,0,0,0,.79.83,1.5,1.5,0,0,0,2-1.91Z"/><path class="cls-13" d="M401.11,345.71l-1.29,10.17L398.53,366l3.18-4.54,3.18-4.54L403,351.34Z"/><polyline class="cls-7" points="683.7 361.23 680.2 369.93 676.71 378.63"/><path class="cls-1" d="M865.42,913.65h0L713.21,931.76,561,949.87h0a36.56,36.56,0,0,0,37.73,21.5l56.73-6.7,56.72-6.7a48.59,48.59,0,0,0,10.27-2.35,49.33,49.33,0,0,0,9.53-4.49l2.72-1.66,2.73-1.66a2.58,2.58,0,0,1,3.85,1.63h0a5.63,5.63,0,0,0,6.17,4.36l26.19-3.09,26.19-3.09a6.05,6.05,0,0,0,5.14-4.56l.27-1.15.28-1.14a1.5,1.5,0,0,1,2.64-.57l1.18,2,1.19,2a3.4,3.4,0,0,0,1.45,1.36,3.44,3.44,0,0,0,2,.34l5.41-.64,5.41-.64a3.39,3.39,0,0,0,1.89-.85,3.49,3.49,0,0,0,1.08-1.78l.52-2.14.51-2.14a1.51,1.51,0,0,1,1.14-1.12,1.48,1.48,0,0,1,1.5.55l.75,1.28.75,1.28a6.53,6.53,0,0,0,6.42,3.2l3.77-.44,3.77-.45a22.12,22.12,0,0,0,18.57-28.41Z"/></svg>