<svg id="Layer_2" data-name="Layer 2" xmlns="http://www.w3.org/2000/svg" viewBox="0 0 1000 1000"><defs><style>.cls-1{fill:#14af6c;}.cls-1,.cls-10,.cls-2,.cls-3,.cls-4,.cls-5,.cls-6,.cls-7,.cls-8,.cls-9{stroke:#000;stroke-linecap:round;stroke-miterlimit:10;stroke-width:3px;}.cls-2{fill:none;}.cls-3{fill:#d1b7e5;}.cls-4{fill:#104fc1;}.cls-5{fill:#fff8f8;}.cls-6{fill:#ffc0c0;}.cls-7{fill:#f9851c;}.cls-8{fill:#ef3f3f;}.cls-9{fill:#f7ce21;}.cls-11{fill:#231f20;}</style></defs><path class="cls-1" d="M295.81,742.3,361.65,771l65.83,28.66L465,693.05l37.48-106.58H618.71l-.11-53.41-.1-53.42-95.75.11-95.76.1a59.56,59.56,0,0,0-56.37,40.53q-18.71,55.47-37.4,111Z"/><polyline class="cls-2" points="326.67 498.76 275.19 706.44 223.72 914.12"/><path class="cls-1" d="M468,749.86l-13.53-92.92Q447.73,610.49,441,564c-2.87-19.59-1-37.64,4.34-52S459.63,487,471,482.11a37.66,37.66,0,0,1,9.67-2.64,47.88,47.88,0,0,1,14.88.42H758.67c.39,3.05.83,6.91,1.19,11.44s.63,9.73.7,15.46c.17,15.15.37,31.48-2.24,46.69s-8,29.31-19,40a56.21,56.21,0,0,1-9.52,7.4,68.3,68.3,0,0,1-17.11,7.47,72.82,72.82,0,0,1-9.46,2.06,84.18,84.18,0,0,1-9.65.88l-46.78,1.59L600,614.47l5.58,63.37,5.58,63.36-71.57,4.33Z"/><path class="cls-3" d="M777,498.76H244.5A3.45,3.45,0,0,1,241,495.3V483.36a3.47,3.47,0,0,1,3.46-3.47H777a3.47,3.47,0,0,1,3.46,3.47V495.3a3.45,3.45,0,0,1-3.46,3.46Z"/><path class="cls-4" d="M643.51,164.26c20.62-1.54,41.94-1.61,62.69,1.36s40.9,9,59.17,19.54c16.88,9.78,30.21,23.35,41.21,38.82s19.67,32.82,27.2,50.18c9.73,22.38,23.2,47.91,32.5,74.18s14.41,53.29,7.42,78.64c-5.86,21.24-20.33,34.47-38.19,42.39S796.39,479.89,777,479.89H384.27a130.69,130.69,0,0,0-9.89-37.28c-8.48-19.58-24-41-52.28-48.55l18.08-6L380,375l43.39-14.33,14.46-4.78h0s1-9.61,2.54-22.07,3.74-27.77,6.17-39.15a223,223,0,0,1,12.81-41.47c6.74-15.71,16.45-32.3,30.69-46.75,11.68-11.85,26.41-18.76,42.11-23.43s32.36-7.11,47.92-10c10.09-1.87,20.53-3.65,31.15-5.16S632.64,165.07,643.51,164.26Z"/><path class="cls-5" d="M581.76,235.68,555.68,357.77,529.61,479.86l44.44-.11,44.45-.11-17.94-122-17.95-122a.41.41,0,0,0-.41-.37A.42.42,0,0,0,581.76,235.68Z"/><path class="cls-6" d="M322.1,394.06c-21.4,3.33-40.44,10.09-55.73,19s-26.79,20-33.12,32a94.25,94.25,0,0,0-7.35,20.33c-1.56,6.2-2.28,10.93-2.37,11.59A114.35,114.35,0,0,0,222,494.89c.1,6.65,1.37,12.8,5.41,14.86a7,7,0,0,0,2.73.72,10.3,10.3,0,0,0,2.43-.17,11.12,11.12,0,0,0,3,7.3,9.89,9.89,0,0,0,6.65,3.19,9.66,9.66,0,0,0,5.79-1.61,11,11,0,0,0,4.07-4.84h0a11.6,11.6,0,0,0,3.12,4.51,8.62,8.62,0,0,0,4.58,2.13,9.22,9.22,0,0,0,6.8-2.15,11.93,11.93,0,0,0,4.13-7.07.12.12,0,0,1,.12-.1.11.11,0,0,1,.12.1,13.24,13.24,0,0,0,3.1,6.28,8,8,0,0,0,5,2.75c2.43.23,5.15-1.06,7.2-3.41a13.28,13.28,0,0,0,3.08-9.83l.6-11.12.6-11.13a5.73,5.73,0,0,1,5.72-5.41h88a135.57,135.57,0,0,0-10.15-37.77C365.56,422.38,350,400.92,322.1,394.06Z"/><path class="cls-7" d="M631.16,479.89h-87a48.26,48.26,0,0,1,48.26-48.25h38.74a24.12,24.12,0,0,1,24.13,24.12h0a24.12,24.12,0,0,1-24.13,24.13Z"/><path class="cls-2" d="M589,431.64a45.72,45.72,0,0,1,10,12.9c4.41,8.32,7.67,20.39,3.1,35.35"/><path class="cls-2" d="M346.81,444.05,321,454.33l-25.8,10.28a10.93,10.93,0,0,0-5.28,5.45,7.23,7.23,0,0,0-.05,6.07,6.7,6.7,0,0,0,3.64,3.06,10.5,10.5,0,0,0,2.74.7"/><path class="cls-7" d="M413.88,845.2c1.7-7.45,4.53-16.62,7.86-27.19s7.14-22.54,10.82-35.61a21.39,21.39,0,0,0,.91-4.11,19.47,19.47,0,0,0-.33-6.33,15.34,15.34,0,0,0-2.19-5.1,14.62,14.62,0,0,0-3.87-4,70.26,70.26,0,0,0-13.74-7.21c-4.5-1.83-8.63-3.16-11.49-4.19a97.14,97.14,0,0,0-11.48-3.59,53.88,53.88,0,0,0-14.1-1.38,56,56,0,0,0-9.92,1.24,57.34,57.34,0,0,0-7.33,2.1s4.92-7.67,5.87-16.11-2.1-17.68-18-20.79l-17-3-17-3a10.76,10.76,0,0,0-12.46,8.77L298.1,729l-2.29,13.27a19.79,19.79,0,0,1-4.94,10.15c-4.33,4.74-12.4,8.79-27.33,6.07l-27.09-6.3-27.09-6.29c-4.44-1-8.87-2.11-13.29-3.21s-8.84-2.24-13.25-3.39c-7.73-2-21.06-4.58-33.16-2.48s-23,8.85-25.83,25.48l130.85,79.56,130.84,79.56c9.58-18,16.67-37,21.37-51.6S413.88,845.2,413.88,845.2Z"/><path class="cls-2" d="M359,749.86a109.94,109.94,0,0,1-14.74,13.89c-8.81,6.89-20.52,13.67-32.1,13.24"/><path class="cls-2" d="M278.89,758.83l6.19,11,6.2,11"/><path class="cls-2" d="M246.85,755l4.64,11.39q2.31,5.7,4.63,11.39"/><path class="cls-2" d="M219.26,748.75l4.35,12.63L228,774"/><path class="cls-1" d="M385.27,783.67a10.31,10.31,0,1,1,2.14-7.59A10.28,10.28,0,0,1,385.27,783.67Z"/><path class="cls-8" d="M385.74,921.84h0L255,841.86l-130.77-80h0a36.58,36.58,0,0,0,16.33,40.23L189.23,832l48.7,29.85a49.93,49.93,0,0,0,9.52,4.51,49.31,49.31,0,0,0,10.26,2.37l3.17.38,3.17.38a2.57,2.57,0,0,1,1.95,1.32,2.54,2.54,0,0,1,.07,2.34h0a5.65,5.65,0,0,0,2.14,7.25l22.49,13.78,22.48,13.78a6,6,0,0,0,6.86-.4l.93-.73.93-.73a1.49,1.49,0,0,1,2.42,1.19l-.32,2.32-.33,2.32a3.48,3.48,0,0,0,1.63,3.45l4.64,2.85,4.65,2.84a3.45,3.45,0,0,0,4-.23l1.73-1.36,1.73-1.36a1.48,1.48,0,0,1,1.59-.17,1.5,1.5,0,0,1,.84,1.36l-.21,1.47-.2,1.47a6.52,6.52,0,0,0,3.06,6.48l3.24,2,3.24,2a22.11,22.11,0,0,0,32.17-10.82Z"/><path class="cls-2" d="M277.16,456.53c-1,4.87-2,10-2.87,15.45s-1.58,11.13-2.14,17.09q-.56,6-.85,11.69t-.35,11"/><path class="cls-2" d="M252.08,514.34c.06-6.79.35-13.91.93-21.32s1.46-15.09,2.69-23c.38-2.43.79-4.82,1.21-7.18s.87-4.67,1.34-6.95"/><path class="cls-2" d="M240.53,455.38q-1,3.8-1.91,7.78t-1.72,8.18c-1.37,7.06-2.36,13.87-3.06,20.38s-1.1,12.72-1.28,18.58"/><path class="cls-6" d="M702.77,479.89l-42.13-.12-42.14-.13c-4.2,0-8.42.09-12.64.16s-8.44.13-12.64,0a17.1,17.1,0,0,1-8.43-2.31,8.83,8.83,0,0,1-4.39-7.26,8.93,8.93,0,0,1,1.17-4.82,11.69,11.69,0,0,1,3.32-3.74,15,15,0,0,1,7.3-2.41c2.64-.3,5.38-.32,7.84-.73q2.78-.46,5.52-1.09c1.83-.43,3.65-.91,5.44-1.47a56.64,56.64,0,0,0,12.1-5.18,30.54,30.54,0,0,0,9.71-8.73,22.87,22.87,0,0,0,2.23-4,22.08,22.08,0,0,0,1.38-4.38,13.71,13.71,0,0,0-.09-5.95,12,12,0,0,0-2.72-5.24l-.45-.47c-.16-.16-.31-.3-.46-.43-3.93-3.58-10.16-4.71-17.61-3.52s-16.13,4.7-25,10.39l-2,1.27q-1,.63-2,1.23l-14.77,8.67-14.78,8.67c-.41.24-.83.5-1.24.76s-.82.52-1.23.78a27.91,27.91,0,0,1-10.81,4.33c-3.22.44-5.92-.12-7.65-1.72a6.3,6.3,0,0,1-1.44-2,7.44,7.44,0,0,1-.48-1.42,10.21,10.21,0,0,1,.43-7c1.07-2.21,3.26-4.34,7.11-6.53C549.94,430,559.45,424,569,418.06s19-11.95,27.69-17.39l-3.12-1.09-3.12-1.08-.9,3.61-.9,3.6-24.92,15.66L538.76,437c.67-3.87,1.4-7.4,2.13-10.55s1.46-5.92,2.12-8.26c2.37-8.45,4.36-15.41,6.88-20.78s5.57-9.13,10.05-11.17a17.73,17.73,0,0,1,5.35-1.47,21.38,21.38,0,0,1,4.27-.06,28.24,28.24,0,0,1,2.71-3.77,25.81,25.81,0,0,1,4.44-4.1,26.74,26.74,0,0,1,11.93-4.7,45.73,45.73,0,0,1,10.57-.18c12.85,1,27,2.85,38.52,4.53s20.4,3.2,22.69,3.59a84.49,84.49,0,0,1,9.52,6.14,78.12,78.12,0,0,1,9.24,8.1c14.93,15.31,21.15,34.27,23.48,50.61A131.32,131.32,0,0,1,702.77,479.89Z"/><polyline class="cls-2" points="724.21 297.95 735.62 326.91 747.03 355.87 703.72 367.99 660.42 380.1"/><path class="cls-9" d="M426.13,186.23c-3.08,3.08-8.17,3.57-13.9,1.87s-12.11-5.58-17.78-11.25-9.56-12-11.26-17.78-1.21-10.82,1.87-13.9,8.16-3.57,13.9-1.87,12.11,5.58,17.78,11.25,9.56,12.06,11.25,17.79S429.2,183.16,426.13,186.23Z"/><path class="cls-7" d="M421.77,190.06a18,18,0,0,1-9.26,5A17.66,17.66,0,0,1,402.07,194a46.93,46.93,0,0,1-7.88-4.29,45.41,45.41,0,0,1-8-6.86,46.51,46.51,0,0,1-6.14-8.46,52.53,52.53,0,0,1-3.76-8.19,15,15,0,0,1-.48-8.49,15.47,15.47,0,0,1,4.15-7.45l2.43-2.44,2.44-2.43a11.54,11.54,0,0,0-.85,1.25,12.84,12.84,0,0,0-.88,1.78c-2.31,5.85.29,12.51,3.62,17.86a57.45,57.45,0,0,0,8,10,55.42,55.42,0,0,0,14.78,10.27c5.45,2.48,10.88,3.44,14.74,1.13a10.69,10.69,0,0,0,1-.73c.35-.27.67-.54.82-.67L424,188.15Z"/><polyline class="cls-2" points="380.41 174.9 384.21 171.51 388.01 168.13"/><polyline class="cls-2" points="387.1 182.74 390.37 179.82 393.64 176.91"/><polyline class="cls-2" points="408.91 186.19 405.36 189.48 401.81 192.77"/><path class="cls-9" d="M819.7,334.19c3.07,3.07,3.56,8.16,1.86,13.89S816,360.2,810.31,365.87s-12,9.55-17.78,11.25-10.82,1.21-13.9-1.87-3.57-8.16-1.87-13.9,5.59-12.11,11.26-17.78,12.05-9.55,17.78-11.25S816.62,331.11,819.7,334.19Z"/><path class="cls-7" d="M823.52,338.54a18.06,18.06,0,0,1,5,9.27,17.63,17.63,0,0,1-1.07,10.43,46.93,46.93,0,0,1-4.29,7.88,45.41,45.41,0,0,1-6.86,8,46,46,0,0,1-8.46,6.14,52.53,52.53,0,0,1-8.19,3.76,14.94,14.94,0,0,1-8.49.48,15.54,15.54,0,0,1-7.45-4.14l-2.44-2.44-2.43-2.44a14,14,0,0,0,1.25.85,12.84,12.84,0,0,0,1.78.88c5.85,2.31,12.51-.28,17.86-3.62a58.14,58.14,0,0,0,10-8A55.46,55.46,0,0,0,820,350.74c2.48-5.44,3.44-10.88,1.13-14.74a12.19,12.19,0,0,0-.73-1c-.27-.35-.54-.67-.66-.81l1.91,2.17Z"/><polyline class="cls-2" points="808.36 379.9 804.98 376.1 801.59 372.31"/><polyline class="cls-2" points="816.2 373.21 813.29 369.94 810.37 366.67"/><polyline class="cls-2" points="819.65 351.4 822.94 354.95 826.23 358.5"/><polyline class="cls-2" points="600 614.47 598.97 600.47 597.94 586.47"/><polyline class="cls-2" points="651.4 649.17 651.4 726.65 651.4 804.13"/><path class="cls-2" d="M729.43,840.34V817a12.85,12.85,0,0,0-12.86-12.85H586.23A12.84,12.84,0,0,0,573.38,817v23.36"/><path class="cls-10" d="M751.92,862.83a22.5,22.5,0,1,1-6.59-15.9A22.42,22.42,0,0,1,751.92,862.83Z"/><path class="cls-10" d="M595.87,862.83a22.5,22.5,0,1,1-6.59-15.9A22.42,22.42,0,0,1,595.87,862.83Z"/><polygon class="cls-5" points="570.72 201.53 576.49 217.43 582.26 233.33 591.32 217.21 600.38 201.09 585.55 201.31 570.72 201.53"/><path class="cls-4" d="M654.26,273.54l-36-20.1-36-20.11,23.12-41.51,23.11-41.52q6.45,30.81,12.89,61.62T654.26,273.54Z"/><polygon class="cls-4" points="582.26 233.33 566.37 187.96 550.48 142.58 534.45 205.45 518.43 268.32 550.35 250.82 582.26 233.33"/><path class="cls-10" d="M519.15,437.49a5.84,5.84,0,1,1-1.71-4.14A5.84,5.84,0,0,1,519.15,437.49Z"/><polyline class="cls-10" points="478.53 401.37 472.16 440.5 465.78 479.64"/><path class="cls-2" d="M569.56,384.73c-.34.73-.75,1.65-1.21,2.73s-.94,2.32-1.43,3.7c-.84,2.37-1.46,4.48-1.93,6.33s-.81,3.44-1.08,4.76q-1,4.78-2.08,10.21T559.57,424"/><polygon class="cls-9" points="555.92 414.17 421.33 414.17 286.74 414.17 286.74 318.38 286.74 222.58 421.33 222.58 555.92 222.58 555.92 318.38 555.92 414.17"/><polygon class="cls-9" points="429.02 464.61 435.12 439.39 441.23 414.17 417.12 414.17 393.02 414.17 386.91 439.39 380.81 464.61 380.8 464.61 380.8 464.61 378.95 472.25 377.11 479.89 401.21 479.89 425.32 479.89 461.59 479.89 497.86 479.89 497.86 472.25 497.86 464.61 463.44 464.61 429.02 464.61"/><path class="cls-2" d="M417.41,300.6a24.67,24.67,0,0,1-.22-6.55c.37-3.66,1.68-8.07,5.45-11.1"/><path class="cls-8" d="M417.55,299.6s.85-1,2-2.2a41.9,41.9,0,0,1,3.75-3.61,17.28,17.28,0,0,1,7.47-3.34,19.66,19.66,0,0,1,4.46-.39,18.67,18.67,0,0,1,11,4.38,24.36,24.36,0,0,1,4.54,4.79c3.26,4.68,4.28,10.1,4,15.68a60.33,60.33,0,0,1-3.58,16.54c-.89,2.59-1.9,5.15-3,7.68s-2.23,5-3.39,7.51a36.76,36.76,0,0,1-2.82,5.19,12.49,12.49,0,0,1-4.22,4,13.55,13.55,0,0,1-6.08,1.6,13.14,13.14,0,0,1-3.17-.28,12.64,12.64,0,0,1-5.36-2.78,13.15,13.15,0,0,1-2.28-2.55,15.17,15.17,0,0,1-2.5,2.56,12.68,12.68,0,0,1-4.55,2.36,13.14,13.14,0,0,1-8.57-.69,21,21,0,0,1-4.83-2.85,12.62,12.62,0,0,1-3.34-4,78,78,0,0,1-5.49-12.54,123.81,123.81,0,0,1-4.76-14.88,25.29,25.29,0,0,1-.17-11.27,27.72,27.72,0,0,1,1.57-5.08,20.67,20.67,0,0,1,4.39-6.52,24.39,24.39,0,0,1,3.21-2.78,12.77,12.77,0,0,1,5-2.13c3.93-.67,8.09.72,11.27,2.29A34,34,0,0,1,417.55,299.6Z"/><path class="cls-5" d="M431.55,313.2c.25.43.5.85.75,1.24s.48.76.7,1.1a32.55,32.55,0,0,1,3.85,8,28,28,0,0,1,1.27,8.82.37.37,0,0,0,.26.36.37.37,0,0,0,.42-.13,28.79,28.79,0,0,0,4.64-9,24.45,24.45,0,0,0,1-10,19.48,19.48,0,0,0-2.31-7,10.84,10.84,0,0,0-5.17-5,5.76,5.76,0,0,0-3.69-.09,5.9,5.9,0,0,0-3.05,2.13,5.61,5.61,0,0,0-.7,4.83A18.25,18.25,0,0,0,431.55,313.2Z"/><path class="cls-10" d="M651,123.23l-22.68-2.48-22.68-2.48a69.64,69.64,0,0,0,1.51,18.3A61.07,61.07,0,0,0,626.94,170a63.82,63.82,0,0,0,9.08,6.56,74,74,0,0,0,7.89-12.91,76.93,76.93,0,0,0,7.31-27.76A74,74,0,0,0,651,123.23Z"/><path class="cls-6" d="M620.62,163.65c-1.09-1.27-1.91-2.35-2.54-3.23s-1-1.57-1.33-2.06-.41-.7-.57-1-.31-.57-.42-.79l.54.24.65.27.58.2c.34.12.81.26,1.28.38a16.58,16.58,0,1,0-3.29-30.88,17.28,17.28,0,0,0-8,8.36c-.37-1.21-.72-2.57-1-4.06a45.64,45.64,0,0,1-.73-4.87c-.14-1.5-.2-2.92-.2-4.25s.05-2.56.14-3.69L567,114l-38.71-4.23c-.52,1.4-1,2.82-1.47,4.26s-.86,2.92-1.23,4.41a73.29,73.29,0,0,0,6.34,52.45c8.17,15,21.77,26.42,38.84,30.6a59.28,59.28,0,0,0,36-2.56A68.55,68.55,0,0,0,636,176.55a67.62,67.62,0,0,1-5.84-4c-1.67-1.26-3.08-2.46-4.24-3.5-.64-.57-1.44-1.33-2.35-2.24S621.67,164.88,620.62,163.65Z"/><path class="cls-8" d="M607.22,157.65a8.88,8.88,0,1,1-1-6.72A8.81,8.81,0,0,1,607.22,157.65Z"/><path class="cls-8" d="M552.79,173.8a8.87,8.87,0,1,1-1-6.71A8.9,8.9,0,0,1,552.79,173.8Z"/><path class="cls-11" d="M546.11,149.57a3.59,3.59,0,0,1-4.33,2.62,3.57,3.57,0,0,1-2.62-4.33,3.57,3.57,0,0,1,4.33-2.62,3.49,3.49,0,0,1,2.2,1.62A3.53,3.53,0,0,1,546.11,149.57Z"/><path class="cls-11" d="M583.06,143.43a3.59,3.59,0,0,1-4.33,2.63,3.57,3.57,0,0,1-2.62-4.33,3.59,3.59,0,0,1,4.33-2.63,3.57,3.57,0,0,1,2.62,4.33Z"/><path class="cls-2" d="M544.16,128.56a70.8,70.8,0,0,1,23-4.9,71.19,71.19,0,0,1,10.09.28,70.33,70.33,0,0,1,8.12,1.3"/><polyline class="cls-2" points="554.41 126.48 556.26 143.35 558.12 160.22 560.47 159.76 562.83 159.31"/><path class="cls-7" d="M604,65.76a60.23,60.23,0,0,0-45.13,7,72,72,0,0,0-30.65,37.06l61.4,6.71L651,123.23a69.57,69.57,0,0,0-14.68-36.65A59.52,59.52,0,0,0,604,65.76Z"/><polyline class="cls-2" points="616.41 145.66 622.48 142.71 628.55 139.75"/><path class="cls-10" d="M551.55,112.35a32.77,32.77,0,0,1-6.74,18.11,28.66,28.66,0,0,1-15.16,10.27,26.87,26.87,0,0,1-6.94.91,28.09,28.09,0,0,1-6.23-.71,28.49,28.49,0,0,1-13.77-7.48,25.62,25.62,0,0,1-7.63-20.68,24,24,0,0,1,1.63-6.8A27.82,27.82,0,0,1,506,94.12a19.57,19.57,0,0,1,14.51-3.88,18.68,18.68,0,0,1,8.59,3.85,24.34,24.34,0,0,1,4.39,4.45c-.62,1-1.24,2.17-1.85,3.36s-1.21,2.43-1.79,3.75c-.31.72-.61,1.42-.89,2.11s-.54,1.38-.78,2l11.67,1.28Z"/><polyline class="cls-2" points="539.08 90.26 592.83 97.34 646.58 104.41"/><polyline class="cls-2" points="555.34 92.4 552.91 102.32 550.48 112.24"/><polyline class="cls-2" points="576.54 95.34 574.25 104.72 571.95 114.09"/><polyline class="cls-2" points="602.42 99 600.16 108.21 597.9 117.42"/><polyline class="cls-2" points="628.85 102.45 626.71 111.17 624.57 119.88"/><path class="cls-8" d="M586.49,164.24a2.5,2.5,0,0,0-3.37-1.64l-5.37,2.24-5.38,2.24a25.82,25.82,0,0,0-3.85,8.6,33.29,33.29,0,0,0-1,7.21,15.56,15.56,0,0,0,6,1,13.42,13.42,0,0,0,5.81-1.52,14.46,14.46,0,0,0,6.55-7.52A16.68,16.68,0,0,0,586.49,164.24Z"/><path class="cls-10" d="M560.35,172.08a2.55,2.55,0,0,0-1.41,1.51,2.48,2.48,0,0,0,.17,2.07,16.33,16.33,0,0,0,8.42,7.23,33.29,33.29,0,0,1,1-7.21,25.82,25.82,0,0,1,3.85-8.6l-6,2.5Z"/><path class="cls-3" d="M854.35,95.34H759.61a11.1,11.1,0,0,0-11.1,11.1v92.79a11.1,11.1,0,0,0,11.1,11.1h15.11l-4.61,18.52-4.61,18.52,19.79-18.52,19.78-18.52h49.28a11.1,11.1,0,0,0,11.1-11.1V106.44a11.1,11.1,0,0,0-11.1-11.1Z"/><path class="cls-7" d="M843.29,153.4a36.29,36.29,0,1,1-10.63-25.68A36.18,36.18,0,0,1,843.29,153.4Z"/><path class="cls-9" d="M834.42,153.4a27.45,27.45,0,1,1-8-19.4A27.32,27.32,0,0,1,834.42,153.4Z"/><path class="cls-2" d="M810.8,153.21H797V140.79H810.8A6.21,6.21,0,0,1,817,147h0a6.21,6.21,0,0,1-6.21,6.21Z"/><path class="cls-2" d="M810.8,165.82H797V153.4H810.8a6.21,6.21,0,0,1,6.21,6.21h0a6.21,6.21,0,0,1-6.21,6.21Z"/><polyline class="cls-2" points="802.31 133.88 802.31 137.33 802.31 140.79"/><polyline class="cls-2" points="808.26 133.88 808.26 137.33 808.26 140.79"/><polyline class="cls-2" points="802.31 166.01 802.31 169.47 802.31 172.92"/><polyline class="cls-2" points="808.26 166.01 808.26 169.47 808.26 172.92"/><path class="cls-7" d="M631.09,793.21c-5.59-15.12-10.61-28.26-14.68-38.71s-7.2-18.22-9-22.62a30.43,30.43,0,0,0-2.7-5.28,19.83,19.83,0,0,0-5.73-5.82,17.38,17.38,0,0,0-3.43-1.74,27.57,27.57,0,0,0-6.42-1.5,29.43,29.43,0,0,0-7.54.33,103.82,103.82,0,0,0-17.35,4.39A98.14,98.14,0,0,0,553,726.55a53.49,53.49,0,0,0-11.93,7.64,55.67,55.67,0,0,0-7,7.11,58.62,58.62,0,0,0-4.46,6.19s-.87-9.07-5.36-16.29-12.59-12.58-27-5.17L482,734.21l-15.2,8.17a10.78,10.78,0,0,0-4.37,14.6l6.41,11.84,6.41,11.85a19.87,19.87,0,0,1,2.41,11c-.47,6.4-4.3,14.58-17.72,21.68L434.76,825.2,409.58,837q-6.18,2.91-12.42,5.7t-12.51,5.54c-7.31,3.21-19.37,9.44-27.58,18.57s-12.58,21.18-4.52,36l152-18.49,152-18.48-12.75-36.33Q637.46,811.38,631.09,793.21Z"/><path class="cls-2" d="M529.57,747.49a109.63,109.63,0,0,1-3,20c-2.66,10.87-7.67,23.44-17,30.27"/><path class="cls-2" d="M472.18,804.13,483.87,809l11.69,4.82"/><path class="cls-2" d="M444.65,821,455.34,827,466,833.11"/><path class="cls-2" d="M419.11,833.11l11.22,7.23,11.23,7.23"/><path class="cls-1" d="M571.12,757.8a10.31,10.31,0,1,1-3-7.29A10.28,10.28,0,0,1,571.12,757.8Z"/><path class="cls-8" d="M657,866h0L504.77,884.15,352.55,902.27h0a36.6,36.6,0,0,0,37.74,21.49l56.72-6.7,56.73-6.7A48.59,48.59,0,0,0,514,908a49.29,49.29,0,0,0,9.53-4.48l2.72-1.67L529,900.2a2.58,2.58,0,0,1,3.85,1.63h0A5.64,5.64,0,0,0,539,906.2l26.19-3.1L591.38,900a6,6,0,0,0,5.15-4.56l.27-1.14.28-1.15a1.5,1.5,0,0,1,2.64-.57l1.18,2,1.18,2a3.41,3.41,0,0,0,1.46,1.36,3.36,3.36,0,0,0,2,.34l5.4-.64,5.41-.63a3.52,3.52,0,0,0,3-2.64l.51-2.14.52-2.14a1.5,1.5,0,0,1,2.64-.57l.75,1.28.75,1.29a6.45,6.45,0,0,0,2.73,2.55,6.54,6.54,0,0,0,3.69.65l3.77-.45,3.77-.45A22.11,22.11,0,0,0,657,866Z"/><path class="cls-3" d="M746,649.55H603.35L600.64,618l-2.7-31.54,74,.2,74,.19a10.29,10.29,0,0,1,10.3,10.3v42.09a10.29,10.29,0,0,1-10.3,10.3Z"/><polyline class="cls-2" points="697.67 498.76 749.15 706.44 800.62 914.12"/><path class="cls-10" d="M598.57,586.75,670,617.62l71.4,30.86a10.91,10.91,0,0,0,15.24-10.12l-.21-21.23-.22-21.22a9.12,9.12,0,0,0-9.09-9l-74.23-.2-74.23-.2a.13.13,0,0,0-.14.11A.14.14,0,0,0,598.57,586.75Z"/><path class="cls-10" d="M724.44,298.53q5.63,14.28,11.24,28.54l11.25,28.54a.27.27,0,0,1,0,.2.26.26,0,0,1-.16.13L722,362.87l-24.78,6.94a.25.25,0,0,1-.24-.07.24.24,0,0,1-.05-.26L710.45,334,724,298.54a.24.24,0,0,1,.23-.16A.24.24,0,0,1,724.44,298.53Z"/></svg>