<svg id="Layer_2" data-name="Layer 2" xmlns="http://www.w3.org/2000/svg" viewBox="0 0 1000 1000"><defs><style>.cls-1{fill:#d1b7e5;}.cls-1,.cls-10,.cls-11,.cls-2,.cls-3,.cls-4,.cls-5,.cls-6,.cls-7,.cls-8,.cls-9{stroke:#000;stroke-linecap:round;stroke-miterlimit:10;}.cls-1,.cls-11,.cls-2,.cls-3,.cls-4,.cls-5,.cls-6,.cls-7,.cls-8,.cls-9{stroke-width:3px;}.cls-2{fill:#f9851c;}.cls-3{fill:#104fc1;}.cls-5{fill:#fff8f8;}.cls-10,.cls-6{fill:none;}.cls-7{fill:#f7ce21;}.cls-8{fill:#14af6c;}.cls-9{fill:#ffc0c0;}.cls-10{stroke-width:5px;}.cls-11{fill:#ef3f3f;}.cls-12{fill:#231f20;}</style></defs><polygon class="cls-1" points="277.97 233.15 299.32 242.26 320.67 251.37 328.28 232.48 335.88 213.59 312.43 209.52 288.99 205.45 283.48 219.3 277.97 233.15"/><polyline class="cls-1" points="287.07 213.55 307.91 219.79 328.74 226.04"/><polygon class="cls-2" points="186.9 186.97 195.23 190.94 203.56 194.9 203.56 186.97 203.56 179.03 195.23 183 186.9 186.97"/><path class="cls-3" d="M371.47,826.63l176.88,4,176.87,4s33.56,14.38,67.71,12.22,68.91-20.85,71.31-87c0,0,0-9.73-4.83-39.95S844.9,639,825.56,557a200.14,200.14,0,0,0-15.26-42.6,189.05,189.05,0,0,0-24.66-37.9q-1.59-1.89-3.25-3.78T779,469a198.19,198.19,0,0,0-74.48-49.79,218.44,218.44,0,0,0-53.08-13.06s-67.59-9.11-139.73-.36S362.82,441.14,344.61,512.56q-8.06,28-16.1,55.93t-16.1,55.92q-7.76-26.31-15.53-52.63l-15.54-52.62-60.67,17.09L160,553.34q6.84,29.05,13.69,58.11l13.68,58.12c7,32.41,11.48,51.57,14.16,62.64s3.57,14,3.57,14A121,121,0,0,0,216.69,779c8.28,15.92,22.14,34.21,45,47,26.42,14.72,52.88,15.39,73.22,12.13A126.87,126.87,0,0,0,371.47,826.63Z"/><path class="cls-4" d="M583.38,764.84l27.13,10.63,9.25,3.62h0l15,8.54c8,4.55,17,9.69,21.12,12,7.75,4.37,17.33,9.6,28.86,15.5s25,12.48,40.52,19.57l-38.62-1.05-38.62-1-32.3-33.88Z"/><polygon class="cls-3" points="469.63 413.09 453.22 463.76 436.81 514.43 475.39 489.79 513.98 465.15 491.8 439.12 469.63 413.09"/><path class="cls-4" d="M444.26,707.72a5.45,5.45,0,1,1-1.59-3.85A5.47,5.47,0,0,1,444.26,707.72Z"/><polygon class="cls-3" points="513.98 465.15 544.13 433.58 574.28 402 580.18 463.93 586.08 525.86 550.03 495.51 513.98 465.15"/><polygon class="cls-5" points="486.38 432.76 500.18 448.96 513.98 465.15 529.87 448.51 545.76 431.88 516.07 432.32 486.38 432.76"/><path class="cls-5" d="M513.76,466.37,483.43,647.19,453.11,828l56.25,1.4,56.26,1.39L539.91,648.59,514.2,466.37a.21.21,0,0,0-.22-.19A.22.22,0,0,0,513.76,466.37Z"/><path class="cls-6" d="M692.35,589.13q3.87,21.78,7.73,43.57t7.73,43.56"/><polygon class="cls-7" points="484.52 635.36 470.41 635.36 456.3 635.36 455.13 642.31 453.96 649.26 470.25 649.26 486.54 649.26 485.53 642.31 484.52 635.36"/><polygon class="cls-8" points="505.46 779.26 496 714.26 486.54 649.26 470.25 649.26 453.96 649.26 443.18 713.26 432.4 777.25 468.93 778.26 505.46 779.26"/><path class="cls-6" d="M437.42,747.45A84,84,0,0,1,459.08,741c12.53-2,28.46-1.45,42.06,8.58"/><polygon class="cls-7" points="561.49 635.36 547.38 635.36 533.27 635.36 532.1 642.31 530.93 649.26 547.22 649.26 563.51 649.26 562.5 642.31 561.49 635.36"/><polygon class="cls-8" points="582.42 779.26 572.97 714.26 563.51 649.26 547.22 649.26 530.93 649.26 520.14 713.26 509.36 777.25 545.89 778.26 582.42 779.26"/><path class="cls-4" d="M506.27,777.25c0,5.79-4.17,11-10.9,14.82s-16,6.14-26.3,6.14-19.57-2.35-26.3-6.14-10.89-9-10.89-14.82,4.16-11,10.89-14.81,16-6.14,26.3-6.14,19.57,2.35,26.3,6.14S506.27,771.47,506.27,777.25Z"/><path class="cls-4" d="M583.38,777.25c0,5.79-4.15,11-10.84,14.82s-15.95,6.14-26.17,6.14-19.47-2.35-26.17-6.14-10.84-9-10.84-14.82,4.14-11,10.84-14.81,15.95-6.14,26.17-6.14,19.47,2.35,26.17,6.14S583.38,771.47,583.38,777.25Z"/><path class="cls-6" d="M514.38,747.45A84.15,84.15,0,0,1,536.05,741c12.53-2,28.46-1.45,42.05,8.58"/><polyline class="cls-6" points="312.14 622.9 314.66 635.36 317.18 647.83"/><path class="cls-6" d="M387,610.63q-3.89,54-7.76,108t-7.75,108"/><polygon class="cls-4" points="522.86 697.13 508.21 697.36 493.57 697.59 491.88 685.96 490.19 674.34 508.45 674.34 526.72 674.34 524.79 685.73 522.86 697.13"/><path class="cls-9" d="M639.22,654.37a188.89,188.89,0,0,0-38.74-12c-21.53-4.13-47.39-4.48-64.7,10.61L506,676.62l-29.8,23.66A32.67,32.67,0,0,0,469,708c-2.8,4.42-4,10,2.55,14.6a30.26,30.26,0,0,0-3.6,8.37c-1,4.37-.44,9.12,5.87,10.62a22.48,22.48,0,0,0-2.56,8.18c-.28,4.15,1.42,8.44,9.37,9a16.26,16.26,0,0,0-2.29,6.09,6.87,6.87,0,0,0,.94,5c2.56,3.51,6.09,3.65,9.59,2.42s6.94-3.84,9.34-5.83c3.68-3.06,7.22-6.2,10.83-9.26a136.3,136.3,0,0,1,11.26-8.74,160.21,160.21,0,0,1,20.58-11.94,162.36,162.36,0,0,1,18.43-7.59,57.44,57.44,0,0,1,7.38-2,48.24,48.24,0,0,1,7.58-.89c4-.15,8.21.19,9.56,2s-.11,5.13-7.34,10.91q.93,6.18,1.84,12.34t1.84,12.33L600,771.33l19.81,7.76,9.73-62.36,9.73-62.36"/><polyline class="cls-6" points="471.52 722.57 501.66 699.64 531.8 676.7"/><polyline class="cls-6" points="473.79 741.56 503.5 719.58 533.22 697.59"/><polyline class="cls-6" points="480.6 758.69 506.91 739.13 533.22 719.58"/><path class="cls-6" d="M467.81,635.36a610.94,610.94,0,0,1-14.48-83.91c-4.67-46.5-4.22-102.07,16.29-138.36"/><path class="cls-6" d="M547.22,635.36a560.4,560.4,0,0,0,33-87c13.75-48.43,22-106.77.13-146.41"/><path class="cls-4" d="M457.62,613.71a5.45,5.45,0,1,1-1.59-3.85A5.42,5.42,0,0,1,457.62,613.71Z"/><path class="cls-4" d="M715,269.53c0,1.65-1,3.17-2.81,4.29a14.72,14.72,0,0,1-13.94.29c-1.81-1.05-2.94-2.52-3-4.17s1-3.17,2.8-4.29a14.74,14.74,0,0,1,13.95-.29C713.84,266.41,715,267.88,715,269.53Z"/><path class="cls-10" d="M714.35,269.76l6.47-27,6.46-27a.48.48,0,0,1,.46-.38.48.48,0,0,1,.48.35l6.91,11.93L742,239.52"/><path class="cls-6" d="M634.49,356.08a65.73,65.73,0,0,0,12.84-8.68,54.27,54.27,0,0,0,11.83-14.5,64.19,64.19,0,0,0,3.78-7.76,28.4,28.4,0,0,0,2-8.43,14.75,14.75,0,0,0-2.43-8.71c-1.75-2.56-4.4-4.25-7.84-3.47a5.71,5.71,0,0,0-4.23,3.86,10.55,10.55,0,0,0-.18,6c.73,2.92,3.54,7.27,7.58,10.94s9.29,6.68,14.92,6.93c6.41.27,13.22-3,18.79-9.05s9.88-14.76,11.33-25.37"/><path class="cls-9" d="M281.21,518.6c-9.55-33-18.44-64.2-27.32-95.38s-17.76-62.38-27.32-95.39a17.86,17.86,0,0,0-.93-2.53,14.17,14.17,0,0,0-1.35-2.32,14.8,14.8,0,0,0-8-5.63,11,11,0,0,0-8.35.78,10.51,10.51,0,0,0-4.43,5.39,15.26,15.26,0,0,0-.76,7.93l5.2,32.72,5.21,32.73a20.92,20.92,0,0,0-5.22-2.25,15.74,15.74,0,0,0-10,.3,16.31,16.31,0,0,0-8.62,8.27,21.09,21.09,0,0,0-1.54,13.37,18,18,0,0,0-8.06-5.68,15.23,15.23,0,0,0-9.27-.3,15.63,15.63,0,0,0-9.14,7.61,18.23,18.23,0,0,0-1.73,12.84,22.6,22.6,0,0,0-5.46-2.37,13.82,13.82,0,0,0-9.65.49,10.54,10.54,0,0,0-1.65,1,15.26,15.26,0,0,0-2.82,2.64c-3.21,3.87-4.19,8.78-4.3,13a37.61,37.61,0,0,0,1,9.2l11.56,48.87,11.56,48.87,60.67-17.09Z"/><path class="cls-6" d="M137.63,458.76c1.7,3.34,3.43,6.68,5.19,10s3.56,6.62,5.38,9.9c1.48,2.66,2.88,5.37,4.33,8.05s3,5.33,4.66,7.87a47.89,47.89,0,0,0,5.7,7.26,15.16,15.16,0,0,0,7.76,4.57,9.73,9.73,0,0,0,10.86-6.35,15.54,15.54,0,0,0,.25-7.46c-.42-2.61-1.18-5.21-1.73-7.41q-5.1-13.53-10.19-27.06l-10.19-27.06"/><path class="cls-6" d="M179.74,484.47a30.54,30.54,0,0,0,6.71,11.23c2.6,2.58,5.42,3.89,8.05,3.61a7.47,7.47,0,0,0,3.29-1.23,10.72,10.72,0,0,0,1.83-1.53c3-3,4-7.37,4.19-11.76a58,58,0,0,0-1.25-12.11c-2.05-11-4.78-22-7.47-31.83s-5.34-18.34-7.24-24.26"/><path class="cls-6" d="M204.22,480.53a27.5,27.5,0,0,0,3.39,6.17c2.12,2.88,5.24,5.76,9.4,6.18a9.73,9.73,0,0,0,1.73.05,7.54,7.54,0,0,0,2.48-.56c2.41-1,4.26-3.3,5.39-6.46a26.45,26.45,0,0,0,1.07-11.63q-3.63-19.33-7.25-38.69t-7.25-38.69"/><path class="cls-9" d="M256.43,432.12c-9.92-.59-19.81-1.41-29.69-2.33s-19.76-2-29.64-3c-4.38-.44-11.41-1.77-17.67-1.42s-11.74,2.38-13,8.64c-1.11,5.42,1.3,8.73,4.94,11s8.51,3.55,12.29,4.87c6.42,2.25,11.25,3.94,14.64,5.27s5.35,2.29,6,3.07c3,3.35,3.14,7.12,2.79,11.93s-1.27,10.67-.54,18.2a58.88,58.88,0,0,0,2.84,13.16,72.53,72.53,0,0,0,8.2,16.66"/><path class="cls-1" d="M302.37,152.86c-.66,0-1.32,0-2,.07s-1.31.11-2,.2a28.69,28.69,0,0,0-2.88.61,34.94,34.94,0,0,0-6.46,2.39A136.54,136.54,0,0,0,276,164.31c-6.24,4.22-14.12,9.84-23,16.58a27.21,27.21,0,0,0-8.15-15.82,24.49,24.49,0,0,0-17-7.23,25.46,25.46,0,0,0-18.13,8c-4.66,4.81-7.57,11.2-7.57,17.51a21.52,21.52,0,0,0,6.33,15.09A26.44,26.44,0,0,0,224.13,206,42.77,42.77,0,0,0,238,230.8c6.81,5.87,15.24,9,23.6,8.53,8.57-.52,15.28-4.81,19.95-9.15a43.54,43.54,0,0,0,7.73-9.46,24.19,24.19,0,0,0,24.31-10.33,24.56,24.56,0,0,0,2.82-5.55,26.43,26.43,0,0,0,6.56-.93,25.48,25.48,0,0,0,17.61-16.43,26.84,26.84,0,0,0,1.51-7.28,30.83,30.83,0,0,0,13.67-2.62c6.94-3.15,14.09-10,15-24.72H302.37Z"/><path d="M221.25,177.8a3,3,0,0,1-3,3,3,3,0,0,1-3-3,3,3,0,0,1,.89-2.14,3,3,0,0,1,2.14-.88,3,3,0,0,1,2.14.88A3.06,3.06,0,0,1,221.25,177.8Z"/><polyline class="cls-6" points="342.1 180.2 320.67 180.2 299.25 180.2"/><polyline class="cls-6" points="316.42 204.84 303.67 204.84 290.91 204.84"/><polyline class="cls-1" points="285.83 226.04 305.49 233.15 325.14 240.27"/><path class="cls-6" d="M725.22,834.7q-17.93-8.25-36.48-17.61t-37.62-19.93q-8.08-4.49-15.92-9t-15.44-9.07q4.86-31.19,9.73-62.36t9.73-62.36L694.86,673l55.64,18.64"/><path class="cls-4" d="M611.52,369.79,584.7,358.42l-26.82-11.37A89.67,89.67,0,0,0,553,370a78,78,0,0,0,11.86,48.11,81.32,81.32,0,0,0,8.7,11.37A95.29,95.29,0,0,0,588,416.57a98.54,98.54,0,0,0,19.15-31.25A94.72,94.72,0,0,0,611.52,369.79Z"/><path class="cls-9" d="M559.48,408c-.86-2-1.47-3.58-1.91-4.89s-.7-2.3-.88-3c-.13-.52-.24-1-.33-1.44s-.16-.8-.22-1.12l.57.5.71.57s.24.19.62.45.9.62,1.43.94a21.16,21.16,0,1,0,7.33-39,22.15,22.15,0,0,0-12.89,7.26c0-1.61.06-3.4.24-5.33a57.74,57.74,0,0,1,.9-6.23c.37-1.88.82-3.65,1.31-5.27s1-3.11,1.52-4.45l-45.77-19.41-45.77-19.41q-1.72,2.26-3.36,4.67t-3.12,4.94c-12.51,21.23-16,45.06-11.54,66.44s16.9,40.31,36.23,51.7a75.69,75.69,0,0,0,45,10.12,87.64,87.64,0,0,0,44-16.64,84.15,84.15,0,0,1-5.69-7c-1.58-2.17-2.87-4.14-3.9-5.84-.57-.94-1.28-2.15-2.05-3.6S560.31,409.9,559.48,408Z"/><path class="cls-11" d="M545.31,395.75a11.33,11.33,0,1,1,1.21-8.59A11.33,11.33,0,0,1,545.31,395.75Z"/><path class="cls-11" d="M472.82,395.49A11.33,11.33,0,1,1,474,386.9,11.34,11.34,0,0,1,472.82,395.49Z"/><path class="cls-12" d="M473.57,363.4a4.57,4.57,0,1,1-7.87-4.64,4.58,4.58,0,0,1,6.26-1.62,4.61,4.61,0,0,1,2.1,2.8A4.56,4.56,0,0,1,473.57,363.4Z"/><path class="cls-12" d="M521,369.49a4.57,4.57,0,1,1-7.87-4.64,4.58,4.58,0,0,1,6.25-1.62,4.57,4.57,0,0,1,1.62,6.26Z"/><path class="cls-6" d="M478.91,337a91.66,91.66,0,0,1,13.07-.16,90,90,0,0,1,38.47,11.24"/><polyline class="cls-6" points="492.2 338.23 488.27 359.54 484.33 380.84 487.38 381.15 490.42 381.47"/><path class="cls-2" d="M575.19,282.24c-17.8-10.49-38.33-12.77-57.75-8a92,92,0,0,0-51.1,34L538.93,339l72.59,30.78a88.78,88.78,0,0,0-4.47-50.21A76,76,0,0,0,575.19,282.24Z"/><polyline class="cls-6" points="560.94 384.48 569.45 383.1 577.96 381.72"/><path class="cls-4" d="M493.91,319.91A41.93,41.93,0,0,1,479,339.58a36.7,36.7,0,0,1-22.31,7,34.33,34.33,0,0,1-8.82-1.44,37.26,37.26,0,0,1-7.36-3.16,36.41,36.41,0,0,1-14.08-14.21,32.79,32.79,0,0,1-1.73-28.09,31.12,31.12,0,0,1,4.5-7.71A35.33,35.33,0,0,1,445,280.89c6.24-2.15,13-2.36,19.17.59a24,24,0,0,1,9.09,7.86,31.37,31.37,0,0,1,3.72,7.05c-1.14,1.06-2.31,2.21-3.49,3.43s-2.37,2.54-3.57,3.94c-.65.75-1.27,1.51-1.86,2.25s-1.16,1.48-1.71,2.21l13.79,5.84Z"/><polyline class="cls-6" points="486.79 288.32 549.89 316.74 613 345.15"/><polyline class="cls-6" points="505.88 296.92 499.25 308.14 492.63 319.37"/><polyline class="cls-6" points="530.72 308.31 524.46 318.92 518.2 329.53"/><polyline class="cls-6" points="561 322.3 554.85 332.73 548.71 343.15"/><polyline class="cls-6" points="592.04 336.23 586.22 346.1 580.41 355.96"/><path class="cls-6" d="M484,397.25a17.53,17.53,0,0,0,7.3,4.77c4.56,1.5,11,1.22,18.26-5.89"/><path class="cls-4" d="M692.43,589.59l7.68,43.24q3.82,21.63,7.67,43.25a.1.1,0,0,1,0,.1.11.11,0,0,1-.11,0L688.27,670l-19.35-6.18a.12.12,0,0,1-.08-.14l11.69-37.07q5.84-18.52,11.68-37.07a.13.13,0,0,1,.12-.08A.12.12,0,0,1,692.43,589.59Z"/></svg>