<svg id="Layer_2" data-name="Layer 2" xmlns="http://www.w3.org/2000/svg" viewBox="0 0 1000 1000"><defs><style>.cls-1{fill:#104fc1;}.cls-1,.cls-10,.cls-11,.cls-2,.cls-3,.cls-4,.cls-5,.cls-6,.cls-8,.cls-9{stroke:#000;stroke-linecap:round;stroke-miterlimit:10;stroke-width:3px;}.cls-2{fill:#fff8f8;}.cls-4{fill:none;}.cls-5{fill:#ffc0c0;}.cls-6{fill:#ef3f3f;}.cls-7{fill:#231f20;}.cls-8{fill:#f9851c;}.cls-9{fill:#d1b7e5;}.cls-10{fill:#14af6c;}.cls-11{fill:#f7ce21;}</style></defs><path class="cls-1" d="M422.71,798.62c24.94-.8,47.46-1.28,67-1.57s36.11-.37,49.12-.39c74.41-.09,130.22-.17,168.06-.18s57.71,0,60.24.18c17.6,1,28.59,1.34,37.1.9a93.7,93.7,0,0,0,22.27-3.81c32.78-9.11,50.43-34.71,60.11-65.06s11.4-65.45,12.31-93.54c.22-6.9.56-17.46.55-29.8s-.4-26.45-1.61-40.45c-2.29-26.36-5.14-59.15-13.92-91.43s-23.5-64-49.51-88.29c-18.29-17.05-38.2-26.71-63.2-33.12s-55.12-9.58-93.8-13.65A431.68,431.68,0,0,0,575,339.58a348.36,348.36,0,0,0-55.83,12c-8.47,2.59-16.36,5-24.25,7.95a171.93,171.93,0,0,0-24.25,11.18c-30.89,17.3-52.56,41.82-67.72,66s-23.79,47.91-28.62,63.71l-8.5,35.37-8.49,35.38L321.64,527.3,286,483.47l-54,48.11-54,48.1,4,5.12c1.27,1.6,2.44,3.1,3.52,4.47l1.69,2.17c1,1.27,2.3,2.94,3.51,4.5,4,5.14,25,36.19,49.61,70.09s52.63,70.65,70.72,87.21c1.3,1.19,3.05,2.74,5.26,4.44a73.12,73.12,0,0,0,8,5.36,74.72,74.72,0,0,0,10.75,5A70.28,70.28,0,0,0,360,773a68,68,0,0,0,42.16-15.24,75.42,75.42,0,0,0,25.53-39.93q-1.24,20.19-2.48,40.39Z"/><polygon class="cls-2" points="572.46 447.59 555.64 622.13 538.84 796.66 598.74 796.66 658.63 796.66 615.54 622.13 572.46 447.59"/><polygon class="cls-2" points="551.32 408.31 561.88 427.95 572.46 447.59 579.55 425.45 586.64 403.31 568.98 405.81 551.32 408.31"/><path class="cls-3" d="M357.31,571.12l14.76,19.08,14.76,19.08a.67.67,0,0,0,1.16-.64q-6-16.27-11.92-32.55t-11.92-32.54l-3.42,13.78Z"/><path class="cls-4" d="M437.51,566.43q-2.43,39.26-4.85,78.5t-4.85,78.5"/><path class="cls-1" d="M519.14,351.57l-13.71,4.36-4.69,1.5s-1.35,19.32-3.31,47.44-4.55,65.05-7,100.28l41-28.78,41-28.78-26.65-48Z"/><path class="cls-1" d="M611.37,336.35,591.91,392q-9.72,27.81-19.46,55.62L622.81,474l50.36,26.39c-2.66-9.81-13.82-51-24.33-89.71l-20.34-75h0l-8.44.34Z"/><path class="cls-3" d="M628.36,278.8,600.13,286l-28.23,7.2a89.61,89.61,0,0,0,10,21.2,78,78,0,0,0,38.58,31.09,81.58,81.58,0,0,0,13.81,3.78,95.3,95.3,0,0,0,3.64-19,98.44,98.44,0,0,0-3.69-36.46A97.14,97.14,0,0,0,628.36,278.8Z"/><path class="cls-5" d="M610.1,340.74c-1.87-1-3.34-2-4.48-2.74s-2-1.4-2.52-1.85l-1.13-.94-.86-.76.77.05.9,0h.77c.47,0,1.09-.05,1.71-.13A21.16,21.16,0,1,0,587.49,299a22.12,22.12,0,0,0-5.86,13.58c-1-1.28-2-2.74-3-4.38a59,59,0,0,1-3.06-5.5c-.84-1.73-1.55-3.41-2.15-5s-1.08-3.09-1.48-4.47l-48.18,12.28-48.17,12.28c0,1.91.05,3.83.16,5.76s.27,3.87.5,5.82c2.9,24.47,14.56,45.55,31.07,59.85s37.85,21.84,60.14,19.2a75.76,75.76,0,0,0,42-19.22,87.61,87.61,0,0,0,24.93-39.9,87.76,87.76,0,0,1-8.75-2.1c-2.58-.77-4.8-1.56-6.64-2.29-1-.4-2.33-.94-3.82-1.62S611.91,341.73,610.1,340.74Z"/><path class="cls-6" d="M591.39,339.56a11.33,11.33,0,1,1-4.24-7.57A11.27,11.27,0,0,1,591.39,339.56Z"/><path class="cls-6" d="M533.56,383.26a11.33,11.33,0,1,1-4.24-7.57A11.31,11.31,0,0,1,533.56,383.26Z"/><path class="cls-7" d="M514.72,357.27a4.57,4.57,0,1,1-9.07,1.08,4.57,4.57,0,1,1,9.07-1.08Z"/><path class="cls-7" d="M556.15,333.39a4.57,4.57,0,1,1-5.08-4,4.57,4.57,0,0,1,5.08,4Z"/><path class="cls-4" d="M503,333a91.52,91.52,0,0,1,10.3-8,90.08,90.08,0,0,1,37.42-14.36"/><polyline class="cls-4" points="514.3 325.96 524.07 345.3 533.85 364.63 536.46 363.03 539.07 361.44"/><path class="cls-8" d="M546.41,231.14c-20.51,2.44-38.23,13.06-50.82,28.59a92,92,0,0,0-20,58L552,298.27l76.41-19.47a88.68,88.68,0,0,0-34-37.24A76,76,0,0,0,546.41,231.14Z"/><polyline class="cls-4" points="597.01 321.12 602.94 314.87 608.88 308.61"/><path class="cls-3" d="M504.56,310.35a42,42,0,0,1,.06,24.67,36.61,36.61,0,0,1-13.54,19.06,33.88,33.88,0,0,1-7.88,4.2,36.86,36.86,0,0,1-27.58-.83,32.79,32.79,0,0,1-18.39-21.31,30.91,30.91,0,0,1-1.09-8.85A35.37,35.37,0,0,1,442,309c3.67-5.5,9-9.79,15.61-11.15a24.07,24.07,0,0,1,12,.75,31.37,31.37,0,0,1,7.23,3.36c-.26,1.53-.5,3.15-.7,4.84s-.35,3.46-.46,5.3c-.05,1-.09,2-.11,2.92s0,1.88,0,2.78l14.51-3.7Z"/><polyline class="cls-4" points="479.76 289.53 547.18 273.91 614.61 258.29"/><polyline class="cls-4" points="500.15 284.81 501.69 297.75 503.22 310.69"/><polyline class="cls-4" points="526.82 278.82 528.27 291.06 529.72 303.29"/><polyline class="cls-4" points="559.39 271.61 560.81 283.63 562.24 295.65"/><polyline class="cls-4" points="592.53 263.9 593.87 275.27 595.22 286.64"/><path class="cls-6" d="M569.57,356.73a3.2,3.2,0,0,0-2.29-1.29,3.13,3.13,0,0,0-2.47.84l-5.43,5.08q-2.7,2.55-5.42,5.08a33.05,33.05,0,0,0-.75,12,42.46,42.46,0,0,0,2,9.06,19.88,19.88,0,0,0,7.67-1.48,17.06,17.06,0,0,0,6.27-4.42,18.47,18.47,0,0,0,4.47-11.93A21.35,21.35,0,0,0,569.57,356.73Z"/><path class="cls-3" d="M541.84,377.81a3.22,3.22,0,0,0-1,2.44,3.18,3.18,0,0,0,1.13,2.39,20.77,20.77,0,0,0,13.31,4.88,42.46,42.46,0,0,1-2-9.06,33.05,33.05,0,0,1,.75-12l-6.06,5.69Z"/><path class="cls-3" d="M531.54,585.55A5.45,5.45,0,1,1,530,581.7,5.42,5.42,0,0,1,531.54,585.55Z"/><path class="cls-3" d="M522.52,690.07a5.45,5.45,0,1,1-9.3-3.85,5.45,5.45,0,0,1,9.3,3.85Z"/><path class="cls-4" d="M767.13,796.66c-35.47-3.29-68.64-67-93-130S634.43,541.6,634.43,541.6l66.35-31.72,66.35-31.71,29,69.38,29,69.37"/><path class="cls-9" d="M675.54,438.11,643,434.43l-32.58-3.68a9.62,9.62,0,0,1-8.48-10.64l7.75-68.63,7.75-68.63a9.64,9.64,0,0,1,10.64-8.49L660.63,278l32.57,3.68a9.62,9.62,0,0,1,8.48,10.64L693.93,361l-7.75,68.64a9.62,9.62,0,0,1-10.64,8.48Z"/><path class="cls-3" d="M686.58,307.54a6.69,6.69,0,1,1-2-4.74A6.69,6.69,0,0,1,686.58,307.54Z"/><path class="cls-3" d="M684.13,331.71a6.71,6.71,0,1,1-2-4.74A6.71,6.71,0,0,1,684.13,331.71Z"/><path class="cls-5" d="M702.4,306.67a9.18,9.18,0,0,1,2.2-1.85,7.07,7.07,0,0,1,2.64-.93,7,7,0,0,1,1.45,0,9.25,9.25,0,0,1,3.34,1c5,2.6,7.61,11.43,8.94,19.62a117.27,117.27,0,0,1,1.4,15.71,248.28,248.28,0,0,0,3,36.25c1.78,11.68,4.25,23.53,7.11,37.26,0,0,.43,2,3.45,11.81S744.6,452.88,755,484q-7.56,3.6-15.15,7.23l-15.18,7.27q-18.37,8.84-36.61,17.69t-36.31,17.74c-15.68-19-29-36-39.38-49.72s-17.89-24.31-21.94-30.56a68,68,0,0,1-4.73-9.12c-2.28-5.35-4.41-12.25-3.77-18.5a32.06,32.06,0,0,1,.71-4.2c.29-1.22.61-2.23.87-3a26.14,26.14,0,0,1-4.33-5.77,22.23,22.23,0,0,1-2.87-12.69,21.75,21.75,0,0,1,1.87-7.2,23.61,23.61,0,0,1,2.58-4.36,16.26,16.26,0,0,1-1.89-4.11,15.09,15.09,0,0,1,5-16.36,16.49,16.49,0,0,1,4.27-2.59,14.18,14.18,0,0,1-.65-7.95,12,12,0,0,1,3.67-6.52,12.2,12.2,0,0,1,8.19-3,14.17,14.17,0,0,1,8.83,3.13,11.87,11.87,0,0,1,1.11,1c.36.36.69.74,1,1.13a93.69,93.69,0,0,0,9.67,9.9,91,91,0,0,0,13.92,10.11,92.14,92.14,0,0,0,33.9,11.75,100.69,100.69,0,0,0,23.36.57c2-15.93,2.94-24.27,3.46-28.63s.53-4.73.53-4.73c.35-5.38.81-10.4,1.49-16.43s1.55-13,2.73-22.39a13.79,13.79,0,0,1,1-3.77A12.33,12.33,0,0,1,702.4,306.67Z"/><path class="cls-4" d="M588.11,365.71A165.57,165.57,0,0,0,603,383.93c9.07,9.65,21.41,20.4,34.45,24.75"/><path class="cls-4" d="M580.77,388.77a202.5,202.5,0,0,0,14.77,17.52c8.71,9.22,20.06,19.37,30.63,23.07"/><path class="cls-4" d="M583.52,418.79s5.07,5.81,12,12.51,15.59,14.27,22.85,17.8"/><path class="cls-10" d="M400.22,201.38H258.84a16.56,16.56,0,0,0-16.54,16.54v78.75a16.54,16.54,0,0,0,16.54,16.54H323.2l19.2,19.19,19.19,19.18L358.2,332.4l-3.39-19.19h45.41a16.54,16.54,0,0,0,16.54-16.54V217.92a16.56,16.56,0,0,0-16.54-16.54Z"/><path class="cls-11" d="M299.31,260.65a10.43,10.43,0,1,1-3.06-7.37A10.4,10.4,0,0,1,299.31,260.65Z"/><path class="cls-11" d="M380.59,260.65a10.41,10.41,0,1,1-3-7.37A10.39,10.39,0,0,1,380.59,260.65Z"/><path class="cls-11" d="M340,260.65a10.41,10.41,0,1,1-3.05-7.37A10.43,10.43,0,0,1,340,260.65Z"/><path class="cls-5" d="M184.5,438.46a76.06,76.06,0,0,1-9.84-11.89c-2.54-3.73-4.47-7.1-6.18-9.69a277.74,277.74,0,0,1-14.74-25,206.52,206.52,0,0,1-11.59-26.58,34.72,34.72,0,0,0-3.14-6.92,15.49,15.49,0,0,0-7.62-6.77,11.43,11.43,0,0,0-2.49-.62,9.11,9.11,0,0,0-4.13.39,9.9,9.9,0,0,0-5,4,15.5,15.5,0,0,0-2.39,7,14.3,14.3,0,0,0-3.9,1.33,12,12,0,0,0-2.36,1.58,14.42,14.42,0,0,0-4.61,8.59,23.5,23.5,0,0,0,1,11.42,12.75,12.75,0,0,0-1.62,1,11.64,11.64,0,0,0-1.33,1.16c-4.91,4.92-4.62,13.4-3,20.91a78.75,78.75,0,0,0,5.11,15.09l1.64,3.56c.54,1.18,1.09,2.37,1.63,3.56a11.26,11.26,0,0,0-1.38.88,11.14,11.14,0,0,0-1.56,1.43c-1.77,2-3.64,5.56-2.7,13.14s4.7,19.16,14.16,37.15a354.24,354.24,0,0,0,22.81,37.26,525.63,525.63,0,0,0,43,53.54l50.81-45.27L286,483.47c-16.86-34.38-31.34-63.93-41.88-85.45S227,363,225.91,360.68a9.73,9.73,0,0,0-.49-.92,14.85,14.85,0,0,0-5.78-5.57,9.31,9.31,0,0,0-5.25-1,8,8,0,0,0-1.72.39,8.6,8.6,0,0,0-2.95,1.63c-3,2.55-3.67,6.11-3.38,9.79a47.36,47.36,0,0,0,2.59,10.58,249.7,249.7,0,0,1,9.09,36c2.47,15.42,2.49,30.8-5.58,35.8a10.82,10.82,0,0,1-4.55,1.46,27.68,27.68,0,0,1-4.73,0,20,20,0,0,1-8.11-2.34A45,45,0,0,1,184.5,438.46Z"/><path class="cls-4" d="M110,430.62s3.69,10.07,9,21.58,12.08,24.45,18.35,30.2"/><path class="cls-4" d="M107.54,385.33s7.95,19.79,17.37,40.17S145.2,466.81,151,469.1"/><path class="cls-4" d="M117.39,362.41s7.58,20.93,17.38,43,21.83,45.3,30.72,49.89"/><path class="cls-3" d="M658.7,623.52l0,86.57,0,86.57H761.37c-2.88,0-5.84-1.56-8.61-3.53s-5.35-4.37-7.46-6c-12.11-9.63-22.08-21.85-30.67-35.08s-15.8-27.49-22.37-41.18c-4.14-8.62-7.48-16.3-10.59-24s-6-15.4-9.22-24.06c-1.9-5.09-4-11-6.36-17.53S661.29,631.41,658.7,623.52Z"/></svg>