<svg id="Layer_2" data-name="Layer 2" xmlns="http://www.w3.org/2000/svg" viewBox="0 0 1000 1000"><defs><style>.cls-1{fill:#104fc1;}.cls-1,.cls-10,.cls-2,.cls-3,.cls-4,.cls-5,.cls-6,.cls-7,.cls-8,.cls-9{stroke:#000;stroke-linecap:round;stroke-miterlimit:10;stroke-width:3px;}.cls-3{fill:none;}.cls-4{fill:#fff8f8;}.cls-5{fill:#f9851c;}.cls-6{fill:#14af6c;}.cls-7{fill:#ffc0c0;}.cls-8{fill:#d1b7e5;}.cls-9{fill:#f7ce21;}.cls-10{fill:#ef3f3f;}.cls-11{fill:#231f20;}</style></defs><path class="cls-1" d="M453.88,402.68s58-27.44,130.18-30.27,158.39,19,214.81,117.41l38.43,66,38.43,66q4.88,8.36,10,16.56T896,654.81c12.67,20.05,18,42.25,16.71,62.8s-9.09,39.48-22.68,53a74.15,74.15,0,0,1-32.6,18.57,103.84,103.84,0,0,1-30,3.59q-22.21-.5-44.43-.89t-44.43-.39H325.15q-28.69,0-57.38.27t-57.37.76a68.37,68.37,0,0,1-20.16-2.59,54.93,54.93,0,0,1-22.45-12.63,58.14,58.14,0,0,1-17.43-33.4,66.77,66.77,0,0,1,5.84-39.45L166,678.93l9.79-25.51,21.33-55.58,21.33-55.58a156.17,156.17,0,0,1,110.13-94l62.66-22.81Z"/><path class="cls-2" d="M535.64,452q.9-18.69,1.79-37.36t1.78-37.37c3.46-.64,7-1.25,10.77-1.8s7.56-1,11.53-1.46q4.57-.5,9-.82t8.55-.52q-10.85,19.83-21.68,39.67Z"/><path class="cls-3" d="M827.4,792.76c-6.73.26-16.33-4.19-24.24-8.71A162.12,162.12,0,0,1,789,775L701,717.3l-88.05-57.65L648,599.3l35.09-60.36,56.53,31.56,56.54,31.55"/><path class="cls-4" d="M387.55,475.61l21.77-8.19,21.78-8.19-.66,27.9-.66,27.9a.56.56,0,0,1-.36.52.57.57,0,0,1-.61-.12l-20.63-19.91Z"/><path class="cls-4" d="M428,517.13l8,137.18,8,137.17H592.56l-80.21-137.8-80.21-137.8a2.22,2.22,0,0,0-4.14,1.25Z"/><path class="cls-5" d="M517.52,711.91l-47.25-25.86L423,660.19a1.17,1.17,0,0,1-.57-.71,1.15,1.15,0,0,1,.1-.9L527.73,466.37,632.91,274.16l48.29,26.43L729.5,327,624.32,519.22,519.14,711.43a1.17,1.17,0,0,1-.71.57A1.21,1.21,0,0,1,517.52,711.91Z"/><path class="cls-6" d="M458.22,682.83a3.06,3.06,0,0,1-.79-.1,3.17,3.17,0,0,1-.76-.28,3.38,3.38,0,0,1-1.44-4.55l88.53-170.38L632.3,337.14a3.37,3.37,0,0,1,6,3.11L549.75,510.63,461.21,681a3.33,3.33,0,0,1-1.26,1.34A3.39,3.39,0,0,1,458.22,682.83Z"/><path class="cls-6" d="M491.34,701a3.44,3.44,0,0,1-.77-.09,4.35,4.35,0,0,1-.76-.28,3.4,3.4,0,0,1-1.67-2,3.35,3.35,0,0,1,.2-2.57L575,526.33,661.65,356.6a3.37,3.37,0,0,1,6,3.07L581,529.39,494.35,699.12a3.42,3.42,0,0,1-3,1.84Z"/><polygon class="cls-1" points="328.57 448.29 347.58 520.38 366.59 592.47 398.17 554.41 429.75 516.34 390.3 478.26 350.85 440.18 339.71 444.23 328.57 448.29"/><polygon class="cls-1" points="432.24 410.55 431 463.45 429.75 516.34 478.83 518.41 527.9 520.48 496.45 459.23 465 397.98 448.62 404.27 432.24 410.55"/><path class="cls-7" d="M538.53,446.63l-26.79,4.12L485,454.87a30.63,30.63,0,0,0-9.8,6.87c-4.53,4.77-8.31,12.24-5.33,23a17.71,17.71,0,0,0-4.5,2.3,16.89,16.89,0,0,0-7,17.09,18.22,18.22,0,0,0,1.63,4.93,17.66,17.66,0,0,0-5.63,2.51,14.46,14.46,0,0,0-2.85,2.54,17.35,17.35,0,0,0-3.74,12,28.85,28.85,0,0,0,4.8,14.42,13.09,13.09,0,0,0-1.55,1.77,12.61,12.61,0,0,0-1.11,1.81c-3.42,6.85.06,15.66,4.55,22.91a85.39,85.39,0,0,0,10.54,13.51l13.71-23.27q6.84-11.64,13.7-23.28l14.05,34.47,14,34.47a17.89,17.89,0,0,0,5.6,6.67c2.72,2.07,6.11,3.58,9.56,3.34a11.46,11.46,0,0,0,5.7-2.13,17,17,0,0,0,2.89-2.58c3.8-4.18,4.66-10.53,2.43-22.59s-7.54-29.84-16.07-56.85c0,0-1-3.1-3.16-9.94S521.83,501.38,517,486.4h0l10.75-19.88Z"/><polygon class="cls-8" points="415.88 781.9 432.23 770.84 448.59 759.78 433.26 750.16 417.94 740.53 416.91 761.21 415.88 781.9"/><path class="cls-9" d="M421.94,660.33l-2,40.1-2,40.1,15.32,9.63,15.33,9.62,34.69-23.45L518,712.88a.44.44,0,0,0,.2-.38.46.46,0,0,0-.23-.37L470.26,686,422.6,660a.45.45,0,0,0-.66.37Z"/><path class="cls-9" d="M219.85,257.33a67.5,67.5,0,1,1-31.4-41A67.3,67.3,0,0,1,219.85,257.33Z"/><path class="cls-4" d="M138.73,546.07H342.05A928.76,928.76,0,0,0,356.15,653C367,708.26,385.46,767.22,415.88,781.9H673.11v10.89l-234.29-.13-234.28-.13c-6.45-8.7-11.78-16.84-16.13-24s-7.73-13.43-10.25-18.34c-15.57-30.33-24.4-60.19-29.71-88.26s-7.09-54.35-8.53-77.52c-.52-8.36-.82-15.92-1-22.4S138.73,550.1,138.73,546.07Z"/><path class="cls-8" d="M106.57,634.11h198.8a495.83,495.83,0,0,0,39.69,75.34c24.77,38.22,59.43,77.57,98.93,82L324.26,792l-119.72.52s-18.36-12.42-39.79-38.43S118.84,688.48,106.57,634.11Z"/><path class="cls-5" d="M96.34,669.43h176.6a577.37,577.37,0,0,0,32.15,55.82c18.89,28.78,43.42,59.3,66,66.23L287.8,792l-83.26.52s-15.12,1.43-36.19-13.24S120.22,733.85,96.34,669.43Z"/><polyline class="cls-3" points="469.83 484.73 481.09 509.34 492.34 533.95"/><path class="cls-2" d="M453.42,343.49l-27.56,9.43-27.57,9.42A89.28,89.28,0,0,0,410,382.67a77.88,77.88,0,0,0,40.94,27.92A81.09,81.09,0,0,0,465,413.26a95,95,0,0,0,2.12-19.2,98.11,98.11,0,0,0-1.92-20,97.09,97.09,0,0,0-4.67-16A95.17,95.17,0,0,0,453.42,343.49Z"/><path class="cls-7" d="M440.16,406.69c-2-.88-3.48-1.68-4.68-2.37s-2.06-1.24-2.66-1.65c-.44-.3-.85-.58-1.2-.84l-.92-.69h.77l.9-.05s.31,0,.77-.08,1.08-.14,1.69-.26a21.16,21.16,0,1,0-20.53-33.9,22.09,22.09,0,0,0-4.77,14c-1.07-1.2-2.22-2.58-3.38-4.14a57.87,57.87,0,0,1-3.48-5.23c-1-1.66-1.82-3.27-2.54-4.81s-1.33-3-1.84-4.33l-47,16.08-47,16.08q.23,2.85.61,5.72t1,5.76c4.84,24.17,18.14,44.25,35.74,57.2S381,481.92,403,477.52A75.78,75.78,0,0,0,443.29,455,87.55,87.55,0,0,0,465,413.26a83.79,83.79,0,0,1-8.89-1.4c-2.63-.56-4.9-1.17-6.8-1.75-1-.32-2.39-.75-3.94-1.31S442,407.54,440.16,406.69Z"/><path class="cls-10" d="M421.42,407a11.33,11.33,0,1,1-4.83-7.21A11.26,11.26,0,0,1,421.42,407Z"/><path class="cls-10" d="M367.25,455.18a11.33,11.33,0,1,1-4.83-7.21A11.28,11.28,0,0,1,367.25,455.18Z"/><path class="cls-11" d="M346.4,430.77a4.61,4.61,0,0,1-.67,3.44,4.59,4.59,0,0,1-6.34,1.27,4.59,4.59,0,0,1-1.95-2.91,4.53,4.53,0,0,1,.68-3.43,4.57,4.57,0,0,1,6.34-1.27A4.54,4.54,0,0,1,346.4,430.77Z"/><path class="cls-11" d="M385.8,403.67a4.58,4.58,0,1,1-1.95-2.91A4.59,4.59,0,0,1,385.8,403.67Z"/><path class="cls-3" d="M332.76,407.55a90.39,90.39,0,0,1,35.7-23.24,91.64,91.64,0,0,1,10.09-2.9"/><polyline class="cls-3" points="343.49 399.6 354.77 418.09 366.05 436.58 368.53 434.79 371.01 432.99"/><path class="cls-5" d="M367.94,302.52c-20.25,4.06-37.07,16.06-48.38,32.54a92,92,0,0,0-15.35,59.44L378.82,369l74.6-25.5a88.7,88.7,0,0,0-36.83-34.41A75.94,75.94,0,0,0,367.94,302.52Z"/><polyline class="cls-3" points="425.55 388.18 430.97 381.48 436.38 374.77"/><path class="cls-2" d="M332.53,384.81a41.84,41.84,0,0,1,2,24.59,36.7,36.7,0,0,1-12,20.08,34.33,34.33,0,0,1-7.53,4.81,36.75,36.75,0,0,1-27.56,1.37,32.78,32.78,0,0,1-20-19.77,30.92,30.92,0,0,1-1.8-8.74A35.42,35.42,0,0,1,270,388.4c3.22-5.77,8.15-10.47,14.68-12.35a24,24,0,0,1,12-.21,31.57,31.57,0,0,1,7.48,2.76c-.14,1.56-.25,3.19-.31,4.89s-.08,3.47,0,5.31c0,1,.06,2,.11,2.92s.12,1.88.2,2.78l14.18-4.84Z"/><polyline class="cls-3" points="306.15 366.03 372.12 345.09 438.08 324.15"/><polyline class="cls-3" points="326.11 359.7 328.67 372.48 331.23 385.26"/><polyline class="cls-3" points="352.21 351.61 354.63 363.69 357.05 375.77"/><polyline class="cls-3" points="384.1 341.82 386.48 353.69 388.86 365.56"/><polyline class="cls-3" points="416.52 331.5 418.77 342.72 421.02 353.95"/><path class="cls-3" d="M376.74,449a17.54,17.54,0,0,0,8.62-1.31c4.4-1.93,9-6.4,9.67-16.57"/><path class="cls-9" d="M735.37,304.05A56,56,0,1,1,719,264.42,55.86,55.86,0,0,1,735.37,304.05Z"/><path class="cls-8" d="M709,304.05a29.65,29.65,0,1,1-8.68-21A29.54,29.54,0,0,1,709,304.05Z"/><path class="cls-1" d="M460.15,509l10.92,20.45L482,549.89"/><path class="cls-7" d="M452.37,540.65l9.75,14,9.74,14"/><path class="cls-7" d="M683.1,538.94c-7-6.38-19.59-15.58-32.22-24.78s-25.28-18.4-32.23-24.78a24.33,24.33,0,0,0-23.49-6.57l-34.65,8.91-34.64,8.92c-1.45.37-2.91.71-4.36,1.05s-2.92.66-4.37,1a28.61,28.61,0,0,0-10.87,4.84,12.72,12.72,0,0,0-5.13,7.62,9.88,9.88,0,0,0-.07,3.09,8.35,8.35,0,0,0,.36,1.59c.91,2.74,3.17,5,6.39,6.61a29.18,29.18,0,0,0,12.12,2.72l2.23.06,2.23.06,1,0,2.11.08c11.85.52,21,.92,28.16,2.18s12.27,3.37,16,7.32a9.48,9.48,0,0,1,2.45,4.15,46.67,46.67,0,0,0,4,8.44A94.3,94.3,0,0,0,593,571l-17,33.87-17,33.86c2.26,1.39,4.7,2.77,7.31,4.12s5.41,2.66,8.38,3.9a113.93,113.93,0,0,0,22.28,6.7,120,120,0,0,0,18.45,2.06l33.88-58.29Z"/><path class="cls-3" d="M573.79,543.53a99.79,99.79,0,0,0,14.08,22,81.34,81.34,0,0,0,35,24.59A76.71,76.71,0,0,0,638,593.73a82.26,82.26,0,0,0,12.81.71"/><path class="cls-3" d="M180.35,356.58l-24-33.61-24-33.6a14,14,0,0,1-1.67-3.06,11.75,11.75,0,0,1-.79-3.37,13.07,13.07,0,0,1,22.91-9.6l7.82,7.1,7.83,7.1a7.67,7.67,0,0,1,2.46,6.45,7.15,7.15,0,0,1-3.77,5.67,7.34,7.34,0,0,1-10.76-6l-.74-11.12-.73-11.12a16.66,16.66,0,0,1,1.68-8.36,13.71,13.71,0,0,1,5.47-5.86,13.32,13.32,0,0,1,6.73-1.68,13.63,13.63,0,0,1,3.44.45,11.84,11.84,0,0,1,2.26.91,12.43,12.43,0,0,1,1.85,1.17,12.73,12.73,0,0,1,2.87,3.08A14.36,14.36,0,0,1,181,265q5.82,19.8,11.65,39.58l11.65,39.58"/><polygon class="cls-5" points="226.03 363.92 204.59 375.08 183.16 386.24 172 364.81 160.84 343.38 182.27 332.22 203.71 321.06 214.87 342.49 226.03 363.92"/><polyline class="cls-3" points="168.18 357.47 189.8 346.67 211.42 335.88"/><polyline class="cls-3" points="175.86 372.21 197.48 361.41 219.1 350.62"/><path class="cls-2" d="M686.88,708.08l13.55,9.07c8.05,5.4,18.67,12.51,28.91,19.35,44.69,29.87,55.18,36.69,56.06,37.08s-7.87-5.62-1.66-1.4c1.71,1.16,4.63,3.14,8.61,5.61s9,5.42,14.89,8.5c2.77,1.44,5.31,2.69,7.53,3.74s4.13,1.92,5.62,2.57L775,791.87l-45.39-.73q-10.68-20.76-21.37-41.53Z"/><path class="cls-2" d="M399.26,688.68a5.86,5.86,0,1,1-1.72-4.14A5.83,5.83,0,0,1,399.26,688.68Z"/></svg>