<svg id="Layer_2" data-name="Layer 2" xmlns="http://www.w3.org/2000/svg" viewBox="0 0 1000 1000"><defs><style>.cls-1{fill:#104fc1;}.cls-1,.cls-10,.cls-11,.cls-2,.cls-3,.cls-4,.cls-5,.cls-6,.cls-7,.cls-8{stroke:#000;stroke-linecap:round;stroke-miterlimit:10;stroke-width:3px;}.cls-2{fill:#fff8f8;}.cls-4{fill:none;}.cls-5{fill:#d1b7e5;}.cls-6{fill:#ffc0c0;}.cls-7{fill:#14af6c;}.cls-8{fill:#ef3f3f;}.cls-9{fill:#231f20;}.cls-10{fill:#f9851c;}.cls-11{fill:#f7ce21;}</style></defs><path class="cls-1" d="M656.21,396.58c47.39.81,91.27,12.17,125.21,35.79S839.35,491.9,847,541.78q6.67,36,13.36,72.06t13.37,72s5.81,26.44-3.63,51.94-34.14,50-95.16,46.27h-362V749.33a103.15,103.15,0,0,1-27.25,6.72c-13.79,1.46-31,.38-47.92-8.55l-.93-.5-.91-.51a71.39,71.39,0,0,1-16.81-13.19,76.92,76.92,0,0,1-12.34-17.5q-28-54.4-55.94-108.8T194.83,498.2L254,460.05l59.13-38.16,38.1,60.55q19,30.29,38.09,60.56s2.44-34.76,19.63-69.11S458,405.58,517,407.19l69.6-5.31Z"/><path class="cls-2" d="M562.38,480,525,631.79,487.53,783.62l58.79.43,58.8.44q-10.67-76.14-21.34-152.26T562.44,480a0,0,0,0,0,0,0Z"/><path class="cls-3" d="M413.81,783.12q11-11.57,22-23.12t22-23.12L479,760.52l21.09,23.63-42.92,0-42.92,0a.58.58,0,0,1-.42-1Z"/><polyline class="cls-4" points="412.87 749.33 412.87 696.91 412.87 644.49"/><path class="cls-2" d="M538.22,428.87q6.06,12.74,12.1,25.48l12.1,25.47q8.61-11,17.21-22.07l17.22-22.07-29.32-3.4Z"/><path class="cls-1" d="M505,407.36q-5.55,32.08-11.11,64.17T482.79,535.7l39.81-27.94,39.82-27.94-15.51-36.63q-7.75-18.31-15.5-36.64l-13.19.41Z"/><path class="cls-1" d="M562.42,479.82l27.63-40.15,27.63-40.15,12.08-.92,12.09-.92,2.4,75.19q1.2,37.59,2.41,75.19l-42.12-34.12Z"/><path class="cls-5" d="M528.65,691.29l-8.4,6.05-8.41,6a6.57,6.57,0,0,1-9.18-1.49l-29-40.29-29-40.29a6.58,6.58,0,0,1,1.49-9.19l8.41-6L463,600a6.58,6.58,0,0,1,9.18,1.5l29,40.29,29,40.29a6.58,6.58,0,0,1-1.5,9.18Z"/><path class="cls-6" d="M313.08,421.89l-29.43-50.24q-14.7-25.12-29.42-50.24a37.06,37.06,0,0,0-15.07-14l-12.76-6.41-12.75-6.41a17.42,17.42,0,0,0-7.23-1.86,17.62,17.62,0,0,0-7.35,1.34l-20.7,8.62-20.7,8.63a16.35,16.35,0,0,0-2.78,1.82,15.31,15.31,0,0,0-3.23,3.62,15.51,15.51,0,0,0-2.38,7.33,16.77,16.77,0,0,0,.27,4.44,17.7,17.7,0,0,0-4.65.22,12.71,12.71,0,0,0-6.29,3c-.09.08-.36.33-.71.71a14,14,0,0,0-1.19,1.52,14.84,14.84,0,0,0-2,9.36,27.94,27.94,0,0,0,1.36,6.44,19.78,19.78,0,0,0-3.6,1.81,16.65,16.65,0,0,0-4,3.59,17.86,17.86,0,0,0-3.42,7.33,28.23,28.23,0,0,0,.13,11.61L130,397.83l4.75,23.65a8.46,8.46,0,0,0,2.1,4,7.63,7.63,0,0,0,3.77,2.21,7.55,7.55,0,0,0,4.3-.26,8.31,8.31,0,0,0,2.12-1.08,8.09,8.09,0,0,0,2.35,5.41,7,7,0,0,0,5,2.12,6.81,6.81,0,0,0,4.07-1.45,8.14,8.14,0,0,0,2.69-3.75,9.76,9.76,0,0,0,1.8,2.23,8.21,8.21,0,0,0,4.83,2.26,8.08,8.08,0,0,0,3.32-.4,8.51,8.51,0,0,0,1.9-.9,110.13,110.13,0,0,0,5,17.91,105.26,105.26,0,0,0,27.94,41.29l53.59-34.58Z"/><polyline class="cls-4" points="136.11 349.85 141.56 388.1 147.01 426.34"/><path class="cls-4" d="M149.55,328.58s2.2,23.41,4.74,47.62,5.44,49.23,6.83,52.47"/><path class="cls-4" d="M173,431.86a7.34,7.34,0,0,0,3.87-3.19c1.86-2.73,3.6-7.72,3.08-16.78-.22-3.78-.38-7.56-.52-11.34s-.23-7.57-.34-11.35l-.22-8.08-.22-8.09"/><path class="cls-3" d="M186.48,347.35l11.85-3.13,11.84-3.14A4.72,4.72,0,0,1,215,342.6L224.62,354l9.63,11.43-23.88-9.06Z"/><polygon class="cls-7" points="461.66 644.82 459.56 642.02 457.45 639.22 470.56 629.37 483.67 619.52 485.77 622.32 487.87 625.12 474.76 634.97 461.66 644.82"/><polygon class="cls-7" points="473.29 661.16 471.28 658.3 469.26 655.44 483.11 645.69 496.96 635.94 498.97 638.8 500.99 641.66 487.14 651.41 473.29 661.16"/><path class="cls-3" d="M663.19,354.6,635,347.33l-28.21-7.27a89,89,0,0,0-1.42,23.4,78.86,78.86,0,0,0,8.84,31.16,77.53,77.53,0,0,0,10,14.66,81.78,81.78,0,0,0,10.28,10,94.84,94.84,0,0,0,12.31-14.88,97.58,97.58,0,0,0,9.39-17.78,96.59,96.59,0,0,0,7-32Z"/><path class="cls-6" d="M617.39,400.12c-1.14-1.81-2-3.32-2.61-4.55s-1-2.17-1.32-2.84c-.2-.49-.38-1-.54-1.36l-.39-1.08.65.41.78.45.68.36c.42.21,1,.48,1.56.71a21.16,21.16,0,1,0,1.47-39.61A22.18,22.18,0,0,0,606,361.7c-.24-1.59-.44-3.37-.55-5.31a59.38,59.38,0,0,1,0-6.29c.1-1.92.28-3.73.52-5.41s.53-3.22.85-4.63l-48.14-12.41-48.15-12.4q-1.37,2.5-2.63,5.12c-.83,1.74-1.62,3.52-2.35,5.34-9.23,22.85-9.15,47-1.56,67.43s22.68,37.35,43.49,45.75a75.7,75.7,0,0,0,46,3.33,87.57,87.57,0,0,0,41-23,86.9,86.9,0,0,1-6.66-6.06c-1.89-1.91-3.45-3.67-4.72-5.2-.7-.84-1.59-1.94-2.57-3.26S618.49,401.87,617.39,400.12Z"/><path class="cls-8" d="M601.55,390.09a11.32,11.32,0,1,1-.07-8.67A11.26,11.26,0,0,1,601.55,390.09Z"/><path class="cls-8" d="M529.83,400.58a11.34,11.34,0,1,1-.08-8.67A11.29,11.29,0,0,1,529.83,400.58Z"/><path class="cls-9" d="M525.81,368.74a4.57,4.57,0,1,1-6-5.92,4.61,4.61,0,0,1,3.5,0,4.57,4.57,0,0,1,2.52,5.95Z"/><path class="cls-9" d="M573.62,367.73a4.55,4.55,0,0,1-2.45,2.5,4.56,4.56,0,0,1-6-2.43,4.49,4.49,0,0,1,0-3.49,4.57,4.57,0,1,1,8.47,3.42Z"/><path class="cls-4" d="M527.18,341.84a91.19,91.19,0,0,1,12.9-2.1,89.74,89.74,0,0,1,17,.1,88.24,88.24,0,0,1,12.69,2.2,90.82,90.82,0,0,1,10,3.11"/><polyline class="cls-4" points="540.51 341.09 539.77 362.74 539.04 384.39 542.1 384.25 545.16 384.11"/><path class="cls-10" d="M614.27,273.41c-19.15-7.74-39.8-7-58.3.61a92.06,92.06,0,0,0-45.49,41.23l76.36,19.67,76.35,19.68a88.71,88.71,0,0,0-11.88-49A75.92,75.92,0,0,0,614.27,273.41Z"/><polyline class="cls-4" points="615.34 376.63 623.56 374 631.77 371.37"/><path class="cls-3" d="M539.47,322.72a41.88,41.88,0,0,1-11.81,21.65,36.69,36.69,0,0,1-21,10.2,33.94,33.94,0,0,1-8.92-.11,36.94,36.94,0,0,1-7.75-2,36.33,36.33,0,0,1-16-12A32.82,32.82,0,0,1,468,312.94a30.83,30.83,0,0,1,3.3-8.29,35.49,35.49,0,0,1,14-13.27c5.85-3.05,12.56-4.27,19-2.26a24,24,0,0,1,10.15,6.43,31.13,31.13,0,0,1,4.73,6.42c-1,1.22-2,2.52-2.94,3.91s-2,2.86-2.95,4.42c-.53.85-1,1.68-1.51,2.5s-.93,1.64-1.36,2.44L525,319Z"/><polyline class="cls-4" points="527.75 292.53 594.37 311.27 661 330.01"/><polyline class="cls-4" points="547.9 298.2 543.02 310.29 538.14 322.37"/><polyline class="cls-4" points="574.15 305.78 569.54 317.2 564.93 328.62"/><polyline class="cls-4" points="606.18 315.13 601.65 326.35 597.11 337.57"/><polyline class="cls-4" points="638.94 324.3 634.65 334.92 630.37 345.54"/><path class="cls-8" d="M574.15,394.65a3.18,3.18,0,0,0-1.37-2.24,3.22,3.22,0,0,0-2.58-.45l-7.2,1.85-7.19,1.85a32.74,32.74,0,0,0-6.45,10.16,43.51,43.51,0,0,0-2.56,8.94,19.86,19.86,0,0,0,7.44,2.39,17.09,17.09,0,0,0,7.63-.86,18.45,18.45,0,0,0,9.64-8.31A21.19,21.19,0,0,0,574.15,394.65Z"/><path class="cls-3" d="M539.71,399.79a3.24,3.24,0,0,0-2.07,1.65,3.19,3.19,0,0,0-.16,2.64,20.7,20.7,0,0,0,3.84,6.28,20.94,20.94,0,0,0,5.48,4.4,43.51,43.51,0,0,1,2.56-8.94,32.74,32.74,0,0,1,6.45-10.16l-8,2.06Z"/><path class="cls-6" d="M597.11,646H560.88a20.56,20.56,0,0,1-13.09-4.72l-18.7-15.52-18.7-15.51c-1.25-1-2.46-2.13-3.66-3.23s-2.38-2.23-3.57-3.35a14.8,14.8,0,0,0-9.79-4,11.42,11.42,0,0,0-8.55,3.19,11.25,11.25,0,0,0-2.83,7.82,15.22,15.22,0,0,0,3.21,9.19l13.1,17.85,13.11,17.86a12.07,12.07,0,0,1,1.42,2.8,5.46,5.46,0,0,1,0,3.92,4.72,4.72,0,0,1-1.63,2,9.18,9.18,0,0,1-1.93,1c-4.13,1.68-11,2.59-18.32,3.23s-15.21,1-21.36,1.69a22.12,22.12,0,0,0-4.13.74,12.57,12.57,0,0,0-4.67,2.5,13.43,13.43,0,0,0-3.78,5.59,19.37,19.37,0,0,0-1,4.21,18.35,18.35,0,0,0,.74,8.17A20.66,20.66,0,0,0,459,696a19.88,19.88,0,0,0-3.73,4.39,18,18,0,0,0,0,19.56,19.63,19.63,0,0,0,3.34,4,22.19,22.19,0,0,0-2.59,6.13,20.66,20.66,0,0,0,8.12,22.41,22.43,22.43,0,0,0,5.72,3,45.56,45.56,0,0,0,3.71,9.36,35.6,35.6,0,0,0,7.92,10A36.6,36.6,0,0,0,498.74,783,74.39,74.39,0,0,0,514,784.1c12.48-.05,26.32,0,41.52,0s31.76.06,49.65,0l-4-69.06Z"/><path class="cls-4" d="M459,696s5.47,2.91,14.95,4.37,23,1.45,39.07-4.37"/><path class="cls-4" d="M458.53,724A85.64,85.64,0,0,0,477,729.88c11,2.23,25.35,3,39.05-2.78"/><path class="cls-4" d="M202.64,577.86q-.79-90-1.6-180t-1.6-180a2.25,2.25,0,0,1,4.14-1.23L328.64,411.62,453.71,606.69"/><path class="cls-4" d="M469.78,755.48a78.7,78.7,0,0,0,8.78,2.18,75.61,75.61,0,0,0,27.06.1,76.58,76.58,0,0,0,11.71-3"/><polyline class="cls-4" points="704.83 562.57 714.55 604.28 724.27 645.99 660.46 645.99 596.65 645.99"/><path class="cls-6" d="M234.25,365.47l-30.11-11.42L174,342.63a16.3,16.3,0,0,0-5.62-1.06,9,9,0,0,0-5.78,1.81,7.83,7.83,0,0,0-2.42,3.7,10.8,10.8,0,0,0-.51,2.63c-.19,3.08,1.14,5.83,3.19,8.4a60.21,60.21,0,0,0,7.56,7.37c7.32,6.4,12.81,11.2,16.8,14.87a65,65,0,0,1,7.86,8,30.33,30.33,0,0,1,5.67,12.8,55.39,55.39,0,0,0,4.52,14.4,58.54,58.54,0,0,0,9.29,13.78A79.78,79.78,0,0,0,233,444.27"/><path class="cls-11" d="M221.9,780.4l-7.68-21.7q-3.85-10.85-7.69-21.69c3.87-5.12,7.46-14.47,10-25.54a151,151,0,0,0,3.87-35.88A142.06,142.06,0,0,0,214.79,639c-3.25-10.6-7.59-18.14-12.19-18.24-4.31-.1-8.49,6.36-11.9,15.14a138.12,138.12,0,0,0-7.36,29.06,144.37,144.37,0,0,0,.67,41.73c2.06,12.78,5.61,23.53,9.61,29.5q-4.19,11.05-8.38,22.1l-8.37,22.09a2.14,2.14,0,0,0,.24,2,2.19,2.19,0,0,0,1.8,1h40.93a2.18,2.18,0,0,0,1.79-.93A2.14,2.14,0,0,0,221.9,780.4Z"/><path class="cls-4" d="M183.34,664.93a13.33,13.33,0,0,0,2.49,2.65,9.27,9.27,0,0,0,12,.3,12.42,12.42,0,0,0,4.09-5.5.66.66,0,0,1,.66-.44.67.67,0,0,1,.63.49,10.56,10.56,0,0,0,3,4.69,8.73,8.73,0,0,0,9.64,1.48,10.55,10.55,0,0,0,4-3.21"/><path d="M202.93,641.86a2.66,2.66,0,0,1-.78,1.88,2.64,2.64,0,0,1-3.77,0,2.67,2.67,0,1,1,4.55-1.88Z"/><path class="cls-4" d="M197.6,685.33s1.67,8.82,4.44,18,6.64,18.78,11,20.3"/><path class="cls-4" d="M208.25,681a54.13,54.13,0,0,1,4.55,8c2.29,4.85,4.59,11.42,4.67,18.29"/><path class="cls-4" d="M200.2,740.68l-4.86,20.87-4.86,20.86"/><path class="cls-4" d="M200.2,740.68l3.7,20.87,3.7,20.86"/><path class="cls-10" d="M211.25,610.68a8.21,8.21,0,1,1-2.4-5.8A8.22,8.22,0,0,1,211.25,610.68Z"/><path class="cls-7" d="M202.93,602.47h0a9,9,0,0,1-9-9V577.07a9,9,0,0,1,9-9h0a9,9,0,0,1,9,9v16.39a9,9,0,0,1-9,9Z"/><path class="cls-3" d="M704.88,562.79q4.85,20.79,9.7,41.6l9.69,41.6-25.69,0-25.7,0q8-20.82,15.94-41.65l15.93-41.64s0,0,.07,0A.06.06,0,0,1,704.88,562.79Z"/></svg>