<svg id="Layer_2" data-name="Layer 2" xmlns="http://www.w3.org/2000/svg" viewBox="0 0 1000 1000"><defs><style>.cls-1{fill:#104fc1;}.cls-1,.cls-10,.cls-11,.cls-2,.cls-3,.cls-4,.cls-5,.cls-6,.cls-7,.cls-8,.cls-9{stroke:#000;stroke-linecap:round;stroke-miterlimit:10;}.cls-1,.cls-10,.cls-11,.cls-2,.cls-3,.cls-4,.cls-6,.cls-7,.cls-8,.cls-9{stroke-width:3px;}.cls-2{fill:#fff8f8;}.cls-4{fill:#14af6c;}.cls-5,.cls-6{fill:none;}.cls-5{stroke-width:5px;}.cls-7{fill:#ffc0c0;}.cls-8{fill:#f9851c;}.cls-9{fill:#f7ce21;}.cls-10{fill:#d1b7e5;}.cls-11{fill:#ea5050;}.cls-12{fill:#231f20;}</style></defs><path class="cls-1" d="M957,567.08c-2.38-17.42-9.74-34.86-19.13-51.26s-20.83-31.76-31.34-45c-3.07-3.87-23.39-28.14-42.66-51.77s-37.49-46.61-36.33-47.91l-22.06,24.77-22.06,24.76c-11.52-11.34-24.19-25.46-39.27-39.89s-32.56-29.15-53.7-41.68q-5.82-3.43-11.56-6.64t-11.4-6.17a269.42,269.42,0,0,0-170.33-27l-49.54,5.63L398,310.56q-7.89.88-15.79,1.69t-15.8,1.55c-47,4.46-83.88,25.28-112.12,55.53s-47.78,69.95-60,112.17a845.67,845.67,0,0,0-23,106.53c-5.53,36-9.21,72.27-11.86,108.4,0,0-3,23,4.34,46.49s25.05,47.53,66.46,49.63H741.3L713.86,678c-13.73-57.27-27.45-114.53-27.45-114.53,24.76,13.17,49.75,28.32,75,42.71s50.87,28,76.82,38.13c16.55,6.45,34.62,9.85,51.79,8.19s33.46-8.37,46.45-22.14c9.27-9.83,15.13-20.2,18.29-30.84A76.65,76.65,0,0,0,957,567.08Z"/><polygon class="cls-2" points="418.19 340.82 434.19 339.67 450.19 338.53 447.31 356.31 444.43 374.09 431.31 357.45 418.19 340.82"/><path class="cls-3" d="M606,593.61l-34.74,53.44-34.75,53.44q-5-17.87-10.07-35.72l-10.08-35.71,44.82-17.73Z"/><path class="cls-4" d="M219.28,267.27a97,97,0,0,1-8.19,6.13,32.43,32.43,0,0,0-7.6,7.13c-4,5.52-3.27,12.09-1.41,18.73s4.86,13.33,5.39,19.09A32.11,32.11,0,0,1,203,337.58a54.73,54.73,0,0,1-13.3,15c-4,3.19-9,5.1-14,7.14S166,364,162.55,367.67s-5.26,9.05-6.19,14.53-1.08,11.2-1.58,16c-.1,1-.55,6.45-1.06,12.91s-1.09,13.92-1.46,18.91a6.08,6.08,0,0,1-6.1,5.6H146a6.06,6.06,0,0,1-6-6.09c0-7,.05-14.05-.34-21.05a114.81,114.81,0,0,0-2.87-20.8,45.74,45.74,0,0,0-5.13-12.61,46.25,46.25,0,0,0-8.63-10.52c-3.73-3.41-8.11-6.17-12.24-9.19s-8-6.28-10.76-10.69a26.13,26.13,0,0,1-3.8-13.51,36.76,36.76,0,0,1,2.61-13.91c1.68-4.29,3.92-8,5.16-11.89a15.85,15.85,0,0,0-.84-12.63c-3.61-7.45-9.27-13.31-15.24-19s-12.25-11.09-17.1-17.71a42,42,0,0,1-7.6-33.73c2.21-11.26,8.63-22,17.66-30.5A74.19,74.19,0,0,1,107.19,176a71.24,71.24,0,0,1,30.44-3.83c13,1.28,22.29,6.32,30.35,13.25s14.89,15.78,23,24.66c4.66,5.14,11.13,8.18,17.32,11.49s12.12,6.9,15.69,13.11a26.77,26.77,0,0,1,3.39,12.3,29,29,0,0,1-2.4,12.76,20.55,20.55,0,0,1-2.5,4.2A24.59,24.59,0,0,1,219.28,267.27Z"/><path class="cls-2" d="M562.5,792.55H399.12l22.56-208.41,22.57-208.42a.32.32,0,0,1,.62-.05l58.82,208.44Z"/><polyline class="cls-5" points="555.67 201.23 563.06 186.45 570.45 171.66"/><polyline class="cls-5" points="571.45 216.78 586.04 205.41 600.63 194.04"/><polyline class="cls-5" points="577.85 237.73 593.79 239.98 609.74 242.22"/><path class="cls-2" d="M173.66,283.59a33.42,33.42,0,0,0,7-10.39,31.63,31.63,0,0,0,2.57-12.51,32.59,32.59,0,0,0-10.58-23.85,37.94,37.94,0,0,0-51.07,0A32.55,32.55,0,0,0,111,260.69a32,32,0,0,0,5.91,18.51,35.74,35.74,0,0,0,15.3,12.22l.28,12.08.28,12.08a5.38,5.38,0,0,0,6.24,5.19l19.31-3.13,19.32-3.13a5.39,5.39,0,0,0,4.22-7.07l-4.12-11.92Z"/><polyline class="cls-6" points="149.62 297.62 151.04 308.1 152.46 318.59"/><polyline class="cls-6" points="162.64 295.58 164 305.64 165.37 315.7"/><path class="cls-3" d="M142.39,260a11.13,11.13,0,0,1-1.28,6.55,5.21,5.21,0,0,1-9,.84,11.83,11.83,0,0,1-1.19-12.75,5.21,5.21,0,0,1,9-.84A11.12,11.12,0,0,1,142.39,260Z"/><path class="cls-3" d="M169,256.19a11.15,11.15,0,0,1-.85,6.61,5.21,5.21,0,0,1-9,1.43,11.86,11.86,0,0,1-2-12.65,5.21,5.21,0,0,1,9-1.42A11.08,11.08,0,0,1,169,256.19Z"/><path class="cls-3" d="M148.17,271.22l-1,4.42-1,4.43a3,3,0,0,0,5,2.85,3,3,0,0,1,1.37-.74,3.06,3.06,0,0,1,1.56.06l.76.24.76.23a3,3,0,0,0,3.37-4.5l-2.66-4-2.66-4a3,3,0,0,0-5.38,1Z"/><path class="cls-1" d="M363,314.18l13,71.2,13,71.19,27.74-41.24,27.74-41.24-13.12-16.64-13.12-16.63a68.38,68.38,0,0,1-33.4-15.59,77.28,77.28,0,0,1-11.22-11.89l-5.31.42Z"/><path class="cls-1" d="M450.19,338.53l-2.88,17.78-2.88,17.78,46.81,24.07,46.82,24.07-20.52-62-20.52-62a84.5,84.5,0,0,1-11.46,16.84C477.84,324.06,466.13,334.13,450.19,338.53Z"/><polyline class="cls-6" points="787.64 566.82 757.67 527.5 727.7 488.18"/><path class="cls-7" d="M635.1,370.2a8.14,8.14,0,0,1,1.86-3.32,8.26,8.26,0,0,1,3.17-2.11l21.14-7.68,21.14-7.69s6.33-2.21,12.28-1,11.52,5.83,10,19.49c-.23,2.08-.47,4.16-.69,6.24s-.41,4.17-.58,6.26c-.51,6.38-1.33,15.87-2.4,26.59s-2.42,22.65-4,33.91a206.46,206.46,0,0,1-4.91,24.29,245.73,245.73,0,0,1-7.54,23.63,31.71,31.71,0,0,0-2.18,9.12c-.13,2.84.54,5.24,2.6,6.53a9.27,9.27,0,0,0,6.06,2.91c3.69.16,8.67-2.26,13.88-12.6a12,12,0,0,0,7.75,3.77c4.63.19,10.8-3,16.91-16.57,0,0,2.77,2.33,7.31-.32s10.87-10.3,18-30.26l36.3-40.14,36.31-40.13s-19.43-27-46-50.26-60.2-42.95-88.67-28.31L664.32,306,635.8,319.39c-2.12,1-4.23,2-6.35,2.95s-4.26,1.91-6.42,2.81a36.24,36.24,0,0,0-5.91,3.15,34.74,34.74,0,0,0-6.55,5.6l-.05.06-.06.05a30.35,30.35,0,0,0-4.78,7.16,33.06,33.06,0,0,0-2.66,8.2c-1,5.29-1.78,10.14-2.42,14.48s-1.12,8.19-1.49,11.46-.65,6.1-.85,9-.33,5.78-.35,8.89-.1,6.4,0,9.6a49.21,49.21,0,0,0,1.12,9.52,15.65,15.65,0,0,0,5,8.54,8.24,8.24,0,0,0,9.28,1c3.23-1.57,5.36-4.42,7-7.63a105.13,105.13,0,0,0,3.88-9.9c2.13-5.57,4.05-11.22,5.85-16.92S633.48,375.94,635.1,370.2Z"/><polyline class="cls-6" points="778.55 371.55 766.24 412.75 753.94 453.96"/><polyline class="cls-6" points="752.14 405.63 740.87 443.8 729.59 481.97"/><path class="cls-6" d="M728.5,417s-4.46,18-9.64,36.78-11.07,38.19-13.93,41"/><polygon class="cls-1" points="418.19 565.67 441.16 598.96 464.14 632.25 441.16 652.91 418.19 673.57 418.19 619.62 418.19 565.67"/><path class="cls-6" d="M363,726s-14.05,15.08-30.7,30.94S296.37,789.43,286,792.55"/><path class="cls-2" d="M516.28,518.47a113.78,113.78,0,0,1,10.06-8.61c3.49-2.71,7-5.3,10.16-7.9q11.31-9.3,22.65-18.57t22.62-18.6q12.29-10.17,24.47-20.46t24.15-20.84c4.13-3.64,8.32-7.72,13-10.66s9.77-4.75,15.76-3.86a28.67,28.67,0,0,1,13.4,6,37.42,37.42,0,0,1,9.58,11.23c4.45,8,7.1,17.66,8.11,27.51a86.1,86.1,0,0,1-1.77,28.62c-.41,1.65-.93,3.24-1.48,4.82s-1.12,3.16-1.63,4.77a27.11,27.11,0,0,1-3.35,6.4,42.43,42.43,0,0,1-13.3,12.41,19.28,19.28,0,0,1-9.4,2.62c-5,.08-11.34-1.93-17.1-9.86-1.43-2-2.84-3.93-4.34-5.83l-.8-1-3.58-4.52a14,14,0,0,0-20.3-1.83l-16,14.06-16,14.06a14.06,14.06,0,0,0-2.76,17.77l3.47,5.77,3.47,5.78A32.19,32.19,0,0,1,589,559.27c.66,6.48-1,14.35-10.06,19.9a49.08,49.08,0,0,1-10.75,5.27,45.54,45.54,0,0,1-19.4,2.37c-10.53-1-22-7.11-30.58-15.74S503.92,551.25,504.89,540a28.87,28.87,0,0,1,3.73-11.8A44.82,44.82,0,0,1,516.28,518.47Z"/><path class="cls-3" d="M633.88,454.17a6.25,6.25,0,1,1-1.83-4.44A6.25,6.25,0,0,1,633.88,454.17Z"/><path class="cls-3" d="M560.12,519.57a6.28,6.28,0,1,1-1.84-4.43A6.26,6.26,0,0,1,560.12,519.57Z"/><path class="cls-3" d="M653.77,408.88l-8.54,10.23-8.55,10.22a10.78,10.78,0,0,0-2.69,5.49,8,8,0,0,0,.91,5.35A8.47,8.47,0,0,0,641,444a10.6,10.6,0,0,0,8.08-2.21c1.44-1.28,2.9-2.69,4.38-4.2s3-3.14,4.54-4.85a109.21,109.21,0,0,0,7.27-9,52,52,0,0,0,5.7-9.9,22.86,22.86,0,0,0-4.84-2.84A24.67,24.67,0,0,0,653.77,408.88Z"/><path class="cls-3" d="M506.3,533.33l11.18-4.77,11.18-4.76a11.86,11.86,0,0,1,3.54-.92,9.84,9.84,0,0,1,3.62.3,10.19,10.19,0,0,1,3,1.34,8.68,8.68,0,0,1,2.27,2.21,9,9,0,0,1,1.56,4.73,11,11,0,0,1-3.5,8.6,12.6,12.6,0,0,1-3.53,2.31l-14.16,6.27-14.16,6.26a26.84,26.84,0,0,1-2-6.47A28.38,28.38,0,0,1,506.3,533.33Z"/><path class="cls-3" d="M633.2,407.51l-7.54,9.94-7.54,9.93a5.41,5.41,0,0,1-7.59,1.05h0a5.41,5.41,0,0,1-1-7.6L617,410.9l7.53-9.94a5.44,5.44,0,0,1,7.6-1h0a5.42,5.42,0,0,1,1,7.59Z"/><path class="cls-3" d="M539.93,488.53l-10.8,6.24L518.33,501a5.41,5.41,0,0,1-7.4-2h0a5.42,5.42,0,0,1,2-7.4l10.8-6.24,10.81-6.23a5.42,5.42,0,0,1,7.4,2h0a5.41,5.41,0,0,1-2,7.4Z"/><polygon class="cls-3" points="537.32 501.28 533.47 504.31 529.63 507.34 526.95 502.45 524.28 497.56 528.22 495.29 532.16 493.02 534.74 497.15 537.32 501.28"/><polygon class="cls-3" points="634.47 419.84 630.85 423.05 627.23 426.26 624.8 424.17 622.37 422.08 625.12 418.45 627.87 414.83 631.17 417.33 634.47 419.84"/><path class="cls-7" d="M500.46,471.64a83,83,0,0,0,16.71,8.53c9.58,3.56,21.61,5.72,31.41.11a10.93,10.93,0,0,0,4.44-5.16,7.9,7.9,0,0,0,0-6.67c-.88-1.73-2.74-3.08-4.78-4.22s-4.27-2.09-5.89-3c-4.74-2.73-9.61-5.49-14.31-8.48a101.53,101.53,0,0,1-13.34-9.9,39.29,39.29,0,0,0-6.3-4.61,32.45,32.45,0,0,0-7.16-3.08,38.11,38.11,0,0,0-17.83-.69c-7.09,1.35-15.24,4.76-24.21,11.6q-5.07,3.87-10.16,7.7c-3.4,2.54-6.82,5.06-10.28,7.52l-31.09,22.1-31.09,22.1L413,558.09l36.34,52.62,20.12,6.38,15.83,5c8.55,2.74,15.84,5.09,22.72,6.22a42.27,42.27,0,0,0,20.2-1.13l1-.32c.44-.16,1.09-.39,2.2-.81,24.93-9.2,38.66-15,47.7-19s13.41-6.48,19.6-9c.09,0,.51-.21,1.15-.52a27.27,27.27,0,0,0,2.43-1.33,28.58,28.58,0,0,0,4.14-2.91,7.26,7.26,0,0,0,2.43-3.93,7,7,0,0,0-.41-3.82,8.31,8.31,0,0,0-.91-1.73,8.12,8.12,0,0,0-5-2.92,31.08,31.08,0,0,0-6.13-.48,27.89,27.89,0,0,0-3,.13c-1,.1-2.12.26-3.44.48-6.12,1-10.09,2.19-13.48,3a27,27,0,0,1-9.88.92c-.7-.07-1.39-.16-2.21-.32s-1.75-.38-2.94-.69c-9.45-2.49-18.52-6.7-28-11.29s-19.27-9.57-30.22-13.59a101.09,101.09,0,0,1-16.38-7.6c-4.24-2.43-7.87-4.82-12.67-7.27a9.37,9.37,0,0,1-4.6-11.32l9.33-27.63,9.32-27.63a9.66,9.66,0,0,1,12.34-6Z"/><path class="cls-6" d="M483.9,603.14s11.75,5.36,24.72,10.48,27.19,10,32.13,9"/><path class="cls-6" d="M498.58,586.46S511.7,594.07,527,601s32.67,13.16,41.25,10.39"/><path class="cls-8" d="M712.57,689.16l-8.44-4.84-8.45-4.84A203.73,203.73,0,0,1,570.2,758.33a54.37,54.37,0,0,0,3.7,5,96.88,96.88,0,0,0,11.58,11.78,190.53,190.53,0,0,0,61.79-18.91C671.84,743.57,697,722.91,712.57,689.16Z"/><path class="cls-8" d="M869.25,723.73c-7.1,8.1-21.2,24.56-36.06,43.94s-30.47,41.67-40.6,61.44a55,55,0,0,0,9.45-.91,58.88,58.88,0,0,0,10.05-2.79l33.3-46.26,33.29-46.25a20,20,0,0,0-2.12-2.77A41.59,41.59,0,0,0,869.25,723.73Z"/><path class="cls-4" d="M869.25,723.73c.24-.28-3.37-1.89-7.18-3.47s-7.82-3.15-8.37-3.35a106.18,106.18,0,0,0-17.75-4.7,90.32,90.32,0,0,0-18.3-1.2c-6.85.23-13.69.87-20.52,1.41a190.38,190.38,0,0,1-20.54.76l-1.17,0-1.15,0a91.69,91.69,0,0,1-21.83-3.89,99.27,99.27,0,0,1-20.36-8.84l-9.75-5.59-9.76-5.6c-15.58,33.75-40.73,54.41-65.3,67a190.53,190.53,0,0,1-61.79,18.91,111.15,111.15,0,0,0,24.56,16,126.91,126.91,0,0,0,56.34,12.06,143.29,143.29,0,0,0,18.72-1.61,123,123,0,0,1,28.83-1.2,79,79,0,0,1,27.77,7.28,75.57,75.57,0,0,1,11,6.9,97.94,97.94,0,0,0,10.82,7.11,65.16,65.16,0,0,0,14.08,5.58,57.08,57.08,0,0,0,15,1.91c10.13-19.77,25.74-42.06,40.6-61.44S862.15,731.83,869.25,723.73Z"/><path class="cls-9" d="M803.05,759.58c-.38,6.74-6.83,12.49-16.94,16.35s-23.88,5.82-38.93,5-28.52-4.34-38.13-9.31-15.37-11.41-15-18.15S700.88,741,711,737.09s23.89-5.82,38.94-5,28.52,4.34,38.13,9.31S803.43,752.85,803.05,759.58Z"/><path class="cls-9" d="M629.5,689.68c.1,1-.73,2.08-2.15,2.91a15.81,15.81,0,0,1-11.59,1.11c-1.55-.54-2.55-1.4-2.65-2.45s.72-2.08,2.14-2.91a15.82,15.82,0,0,1,11.59-1.11C628.39,687.77,629.4,688.63,629.5,689.68Z"/><path class="cls-9" d="M553.42,787.57a56.25,56.25,0,0,0-37.25,3.07,19.08,19.08,0,0,0-6.18,4.77,10.83,10.83,0,0,0-2.78,7.13,8.26,8.26,0,0,0,.34,2.26,6.16,6.16,0,0,0,1.19,2.2c2,2.36,5,2.93,8.19,2.7a35.24,35.24,0,0,0,8.84-2.14,30.91,30.91,0,0,1,3.44-1,29.91,29.91,0,0,1,4.26-.64,30.39,30.39,0,0,1,5.88.12,31.17,31.17,0,0,1,4.34.85,19.5,19.5,0,0,0,9.46.65,12.17,12.17,0,0,0,7.1-4c2.91-3.47,3-6.93,1.43-9.8A14,14,0,0,0,553.42,787.57Z"/><polygon class="cls-10" points="418.19 725.98 230.21 725.98 42.24 725.98 42.24 600.76 42.24 475.53 230.21 475.53 418.19 475.53 418.19 600.76 418.19 725.98"/><path class="cls-3" d="M610.26,729.38c-2.26.83-4.55,1.63-6.84,2.41s-4.59,1.55-6.9,2.31c-4.33,1.41-12.5,4-18.82,8S566.93,751.28,570,758l.08.17.08.17c2.3,4.65,7.41,5.89,12.9,5.76s11.36-1.64,15.17-2.51A159.41,159.41,0,0,0,644.44,743a161.6,161.6,0,0,0,38.37-31.75A124.08,124.08,0,0,0,695,695.44c4.28-7,6.63-13.91.68-16-4.09-1.41-8.52,0-12.62,2.45a76.22,76.22,0,0,0-10.69,8.22c-4.64,4-9.25,8.12-14,12.08a170.65,170.65,0,0,1-14.67,11.2,117.56,117.56,0,0,1-16.24,9C621.84,725,616,727.28,610.26,729.38Z"/><path class="cls-9" d="M641,745c0-9.23,1.32-17.42,3.71-23.64s5.88-10.45,10.28-11.75a9.84,9.84,0,0,1,2-.39,11,11,0,0,1,2.36,0,8.41,8.41,0,0,1,1.76.21,7.43,7.43,0,0,1,1.38.46,10.13,10.13,0,0,1,5,5.59A22.75,22.75,0,0,1,669,725s-4.74,3.8-10.61,8.2S645.54,742.62,641,745Z"/><path class="cls-9" d="M635.06,747.5s-2.3-2-5.65-4.68-7.72-6-11.88-8.74-9.58-6.26-14.95-8.47-10.8-3.15-15.39-1a13.9,13.9,0,0,0-2.8,1.85,10.42,10.42,0,0,0-3.36,4.93,10.68,10.68,0,0,0,1,7.7,44.55,44.55,0,0,0,4.66,7.13,65,65,0,0,0,9.93,10.36c3,2.55,5.22,4,5.26,4.08h0c2.85-.67,5.92-1.5,9.16-2.54s6.64-2.28,10.17-3.76c2.61-1.11,5.08-2.25,7.38-3.41S633.06,748.66,635.06,747.5Z"/><polyline class="cls-6" points="140.99 725.98 155.19 682.63 169.38 639.27 230.16 639.27 290.95 639.27 305.19 682.63 319.44 725.98"/><path class="cls-6" d="M289.5,621.5H170.93a5.75,5.75,0,0,1-5.75-5.75h0a5.75,5.75,0,0,1,5.75-5.76H289.5a5.75,5.75,0,0,1,5.75,5.76h0a5.75,5.75,0,0,1-5.75,5.75Z"/><polygon class="cls-10" points="251.75 792.55 230.21 792.55 208.67 792.55 208.67 759.27 208.67 725.98 230.21 725.98 251.75 725.98 251.75 759.27 251.75 792.55"/><polyline class="cls-10" points="137.56 792.55 230.21 792.55 322.87 792.55"/><path class="cls-3" d="M509.76,242.74,481.89,240,454,237.22a85.61,85.61,0,0,0,2.09,22.44,74.76,74.76,0,0,0,24.66,40.75A77,77,0,0,0,492,308.36a90.88,90.88,0,0,0,9.51-15.94,94.77,94.77,0,0,0,8.64-34.17A91.94,91.94,0,0,0,509.76,242.74Z"/><path class="cls-7" d="M472.94,292.72a72.78,72.78,0,0,1-5.45-7,76.14,76.14,0,0,1-6.29-11.08c-.84-1.83-1.74-4-2.61-6.42a74.31,74.31,0,0,1-2.4-8.22c-.44-1.88-.84-3.91-1.18-6.08s-.63-4.49-.81-6.94c-.13-1.77-.2-3.46-.23-5.09s0-3.18,0-4.65l-47.56-4.72-47.56-4.71q-.94,2.58-1.75,5.25c-.53,1.78-1,3.59-1.45,5.43-5.41,23.06-1.8,45.94,8.42,64.28s27.05,32.15,48.05,37.08a72.8,72.8,0,0,0,44.21-3.6A84.12,84.12,0,0,0,492,308.36a83.86,83.86,0,0,1-7.22-4.77c-2.07-1.54-3.81-3-5.24-4.25-1.6-1.4-3-2.73-4.06-3.87S473.52,293.38,472.94,292.72Z"/><path class="cls-11" d="M450.37,287.05a11.11,11.11,0,1,1-.29-8.48A11.08,11.08,0,0,1,450.37,287.05Z"/><path class="cls-11" d="M391.93,302.49a11.08,11.08,0,1,1-1.37-8.37A11.07,11.07,0,0,1,391.93,302.49Z"/><path class="cls-12" d="M381.32,276.36a4.33,4.33,0,0,1-2,2.73,4.38,4.38,0,0,1-3.32.54,4.33,4.33,0,0,1-2.73-2,4.39,4.39,0,1,1,8-1.31Z"/><path class="cls-12" d="M426.6,268.37a4.42,4.42,0,0,1-5.29,3.28,4.43,4.43,0,0,1-2.73-2,4.39,4.39,0,1,1,8-1.32Z"/><polyline class="cls-6" points="378.99 250.88 403.51 246.94 428.03 243.01"/><polyline class="cls-6" points="391.52 248.87 394.01 269.54 396.49 290.22 399.38 289.64 402.26 289.05"/><path class="cls-8" d="M451.35,172.79c-19.33-4.54-38.83-.75-55.3,9.15a88.46,88.46,0,0,0-37.15,45.85l75.43,7.47,75.43,7.48a85.37,85.37,0,0,0-18.48-44.8A73,73,0,0,0,451.35,172.79Z"/><path class="cls-3" d="M387.54,230.63a40.26,40.26,0,0,1-8,22.3A35.27,35.27,0,0,1,361,265.72a32.43,32.43,0,0,1-8.5,1.2,35.33,35.33,0,0,1-24.65-9.8,31.65,31.65,0,0,1-9.14-16.71,31.33,31.33,0,0,1-.48-8.58,29.67,29.67,0,0,1,1.91-8.36,34.09,34.09,0,0,1,11.31-14.65c5.11-3.76,11.3-5.91,17.76-4.95a23.13,23.13,0,0,1,10.59,4.62,30.53,30.53,0,0,1,5.44,5.4q-1.12,2-2.22,4.15c-.74,1.46-1.46,3-2.16,4.63-.37.88-.73,1.75-1.06,2.6s-.64,1.69-.94,2.52l14.34,1.42Z"/><polyline class="cls-6" points="371.96 203.67 438.01 211.69 504.06 219.7"/><polyline class="cls-6" points="391.94 206.09 389.08 218.29 386.22 230.5"/><polyline class="cls-6" points="418 209.44 415.29 220.97 412.59 232.5"/><polyline class="cls-6" points="449.8 213.61 447.14 224.94 444.48 236.27"/><polyline class="cls-6" points="482.27 217.52 479.76 228.24 477.24 238.95"/><path class="cls-10" d="M438.74,171.47a72.06,72.06,0,0,1,23.71,14.12,71.53,71.53,0,0,1,11.76,13.58,72.68,72.68,0,0,1,6.64,12.39,71.55,71.55,0,0,1,4,12.59,73,73,0,0,1,1.45,9.86l11.07.11,11.08.1c-.28-1.39-.66-3.07-1.18-5s-1.16-4.07-2-6.38a85,85,0,0,0-10.84-20.79,73.82,73.82,0,0,0-8-9.52,76.82,76.82,0,0,0-10.34-8.6,66.38,66.38,0,0,0-6.38-3.95A70.85,70.85,0,0,0,452,173.3,72.37,72.37,0,0,0,438.74,171.47Z"/><path class="cls-3" d="M432.21,306.19a18.82,18.82,0,0,1-.09,12.92,13.15,13.15,0,0,1-19.59,6.75,19.46,19.46,0,0,1-7.94-23.06,13.14,13.14,0,0,1,19.59-6.74A18.78,18.78,0,0,1,432.21,306.19Z"/><path class="cls-11" d="M432.21,306.19c-.12-.36-.26-.71-.4-1.05s-.29-.68-.45-1a10.36,10.36,0,0,0-1.34-.3,9.23,9.23,0,0,0-1.4-.11,10.07,10.07,0,0,0-7.56,3.54,12.9,12.9,0,0,0-3.14,8.56,13.2,13.2,0,0,0,1.86,6.82,11.21,11.21,0,0,0,4.79,4.38,13.81,13.81,0,0,0,7.66-8.22A18.8,18.8,0,0,0,432.21,306.19Z"/><path class="cls-10" d="M511.86,308.86H481a12.94,12.94,0,0,1-12.93-12.94V247.55A12.94,12.94,0,0,1,481,234.61h30.86a12.94,12.94,0,0,1,12.94,12.94v48.37a12.94,12.94,0,0,1-12.94,12.94Z"/><path class="cls-10" d="M502.24,292.24H490.63a9.41,9.41,0,0,1-9.42-9.41V260.64a9.41,9.41,0,0,1,9.42-9.41h11.61a9.39,9.39,0,0,1,9.41,9.41v22.19a9.39,9.39,0,0,1-9.41,9.41Z"/><path class="cls-3" d="M362.94,726.06h0l22.72,0,22.72,0h0s-.9,6.52-2.51,18.09-3.93,28.22-6.75,48.48H286c2.56-1.26,5.64-2.89,9.08-4.95a127.42,127.42,0,0,0,11.19-7.51c2-1.52,3.93-3.08,6.19-5.05s4.89-4.35,8.36-7.5c2.12-1.92,4.4-4,6.88-6.28s5.16-4.79,8.07-7.58c2-1.87,3.67-3.53,5-4.85s2.33-2.3,2.83-2.79c5.22-5.18,10-10.18,13.58-13.88S362.94,726.06,362.94,726.06Z"/></svg>