<svg id="Layer_2" data-name="Layer 2" xmlns="http://www.w3.org/2000/svg" viewBox="0 0 1000 1000"><defs><style>.cls-1{fill:#104fc1;}.cls-1,.cls-10,.cls-11,.cls-12,.cls-2,.cls-3,.cls-4,.cls-5,.cls-6,.cls-7,.cls-9{stroke:#000;stroke-linecap:round;stroke-miterlimit:10;stroke-width:3px;}.cls-2{fill:#14af6c;}.cls-4{fill:#fff8f8;}.cls-5{fill:none;}.cls-6{fill:#ffc0c0;}.cls-7{fill:#ef3f3f;}.cls-8{fill:#231f20;}.cls-9{fill:#f9851c;}.cls-10{fill:#d1b7e5;}.cls-11{fill:#f7ce21;}.cls-12{fill:#fff;}</style></defs><path class="cls-1" d="M979.37,787.35Q973.7,766.53,968,745.7t-11.35-41.64L943.4,659.44q-6.61-22.32-13.25-44.63c2.22-3.42,4.5-7.24,6.74-11.45s4.45-8.82,6.52-13.83l.09-.23c0-.08.07-.15.1-.23a120,120,0,0,0,8-31,125.44,125.44,0,0,0-.28-32q-1.05-7.72-2.34-15.64t-2.81-16A637.21,637.21,0,0,0,916,387.11a668.94,668.94,0,0,0-39.92-86.28c-15.41-27.95-38.3-45.47-64.77-56s-56.51-14.06-86.22-14c-37,0-74.07,2.85-110.37,9.51S542.87,257.48,509,273c-16.44,7.51-33.69,15.56-49.13,25.76s-29.07,22.55-38.26,38.64c-9.11,15.94-14.79,33.28-19.41,51s-8.16,35.8-13,53.23l-41-33.65-41-33.64-35.14,68L237,510.18l64.33,62.68,64.33,62.67a105.21,105.21,0,0,0,30.86,21c18.56,8.12,43.38,11.43,68.44-7.77l-.64,73.92-.65,73.92L535,795.34l71.37-1.29,92.6-1.66,92.59-1.66L885.47,789Z"/><polygon class="cls-2" points="791.56 790.73 746.28 682.95 701.01 575.18 650.15 590.45 599.3 605.73 602.84 699.89 606.37 794.05 698.97 792.39 791.56 790.73"/><path class="cls-3" d="M930.15,614.81,903.93,702q-13.11,43.56-26.23,87.14l-62.61.66-62.62.67c12.74-9.51,24.45-18.77,35.1-27.56S807.84,745.73,816.4,738c17.08-15.34,31.75-29.68,43.68-41.92s21.15-22.38,27.32-29.32c8.85-9.95,16.84-19.4,24-28.13S924.76,621.91,930.15,614.81Z"/><path class="cls-4" d="M546.05,258.16l21,24.08,21,24.07,5.49-31.44L599,243.43c-4.58.86-9.35,1.85-14.29,3s-10,2.47-15.27,4q-6.3,1.82-12.16,3.77T546.05,258.16Z"/><polyline class="cls-5" points="466.61 518.75 465.72 589.12 464.83 659.48"/><path class="cls-3" d="M389.21,441.57,403.85,453l14.64,11.47a.77.77,0,0,0,.94,0,.75.75,0,0,0,.26-.91l-10.93-27.79L397.84,408l-4.32,16.77Q391.36,433.18,389.21,441.57Z"/><path class="cls-1" d="M509,273l4.48,51.6L518,376.16l35-34.93,35-34.92-21-24.07-21-24.08s-7.9,2.78-16.49,6S511.72,271.1,509,273Z"/><path class="cls-1" d="M599,243.43l-5.49,31.44-5.49,31.44,47.6,15.23,47.6,15.24-17.87-50.73-17.86-50.72s-8.71,1.13-19.12,2.7S605.86,241.63,599,243.43Z"/><path class="cls-3" d="M625.8,164.27,597.64,168l-28.15,3.73a87,87,0,0,0,7.25,21.67,76,76,0,0,0,33.79,34.53,79.16,79.16,0,0,0,12.93,5.25,92.09,92.09,0,0,0,5.7-17.95,95.78,95.78,0,0,0,.61-35.73A94.18,94.18,0,0,0,625.8,164.27Z"/><path class="cls-6" d="M601,222.14c-1.7-1.22-3-2.28-4-3.16s-1.73-1.59-2.22-2.09-.7-.72-1-1L593,215l.74.13c.26,0,.55.09.87.13,0,0,.3,0,.75.07s1.06.08,1.66.08a20.64,20.64,0,1,0-13.13-36.34,21.57,21.57,0,0,0-7.24,12.47c-.79-1.35-1.62-2.88-2.44-4.59a58.15,58.15,0,0,1-2.32-5.68c-.62-1.77-1.11-3.47-1.51-5.07s-.7-3.11-.92-4.5l-48,6.36-48.05,6.36q-.33,2.77-.51,5.59c-.11,1.88-.18,3.78-.18,5.69,0,24,8.87,45.78,23.21,61.52s34.14,25.48,56,25.48a73.83,73.83,0,0,0,42.82-13.79,85.33,85.33,0,0,0,28.71-35.76,82.32,82.32,0,0,1-8.23-3c-2.4-1-4.46-2.06-6.16-3-1-.51-2.15-1.18-3.52-2S602.65,223.31,601,222.14Z"/><path class="cls-7" d="M576.08,221.84a11.06,11.06,0,1,1-3.24-7.81A11,11,0,0,1,576.08,221.84Z"/><path class="cls-7" d="M523.56,250.3a11.06,11.06,0,1,1-3.24-7.81A11,11,0,0,1,523.56,250.3Z"/><path class="cls-5" d="M529.16,252.57a18.08,18.08,0,0,0,9.05.12c4.83-1.22,10.28-5,12.73-15.32"/><path class="cls-8" d="M506.78,227.2a4.46,4.46,0,1,1-1.31-3.15A4.42,4.42,0,0,1,506.78,227.2Z"/><path class="cls-8" d="M549.62,208.83a4.45,4.45,0,1,1-4.45-4.45,4.44,4.44,0,0,1,4.45,4.45Z"/><polyline class="cls-5" points="498.57 202.58 521.87 193.02 545.17 183.46"/><polyline class="cls-5" points="510.48 197.7 517.72 217.53 524.96 237.37 527.68 236.13 530.39 234.89"/><path class="cls-9" d="M551.93,108.73c-20.13,0-38.51,8.25-52.48,21.84a89.7,89.7,0,0,0-26.06,53.87l76.2-10.09,76.21-10.08a86.6,86.6,0,0,0-28.63-40A74,74,0,0,0,551.93,108.73Z"/><polyline class="cls-5" points="590.59 201.65 597.05 196.27 603.52 190.9"/><path class="cls-3" d="M502.32,180.61a40.86,40.86,0,0,1-2.77,23.89,35.7,35.7,0,0,1-15.29,16.9,33.39,33.39,0,0,1-8.11,3.16,35.91,35.91,0,0,1-26.62-4,31.94,31.94,0,0,1-15.35-22.74,29.83,29.83,0,0,1,0-8.7,34.44,34.44,0,0,1,7.76-17.08c4.18-4.9,9.79-8.45,16.39-9a23.43,23.43,0,0,1,11.53,2.1,30.57,30.57,0,0,1,6.62,4.08c-.43,1.46-.85,3-1.24,4.61s-.74,3.31-1.05,5.07c-.17,1-.31,1.9-.44,2.82s-.25,1.81-.35,2.69l14.48-1.91Z"/><polyline class="cls-5" points="480.7 157.6 547.77 150.22 614.84 142.84"/><polyline class="cls-5" points="500.99 155.37 500.99 168.08 500.99 180.79"/><polyline class="cls-5" points="527.49 152.64 527.49 164.65 527.49 176.66"/><polyline class="cls-5" points="559.85 149.39 559.85 161.19 559.85 173"/><polyline class="cls-5" points="592.82 145.73 592.82 156.89 592.82 168.06"/><path class="cls-6" d="M307.25,374.28l-29.18-23.22-29.19-23.22a137,137,0,0,0-32.73-19.34,129.85,129.85,0,0,0-36.81-9.31l-1.3-.12-1.32-.11a87.44,87.44,0,0,0-39,5.85A90.55,90.55,0,0,0,105.05,327l-34.2,36.29L36.64,399.54a60.75,60.75,0,0,0-9.91,14,56,56,0,0,0-5.36,16.29,54.87,54.87,0,0,0,.37,20,63.17,63.17,0,0,0,10.15,23.18L58.53,507.9l26.64,34.84a62.33,62.33,0,0,0,8.26,9.85c4.8,4.57,11,8.41,16.42,5.53a32.56,32.56,0,0,0,6.89,6.81c4.16,3,9.77,5.05,15.54,1.52a18,18,0,0,0,5.76,4.12c3.48,1.53,8.17,2,13-2.27,0,0,1.51-.85,2.39-3.89s1.13-8.27-1.4-17c-.82-2.88-1.65-5.76-2.46-8.65s-1.59-5.77-2.34-8.67l-8.48-33-8.49-33a11.17,11.17,0,0,1,.73-7.63L142.14,433l11.15-23.55h0v0a8,8,0,0,1,15.36,3.83l-6.82,54.68q-3.41,27.35-6.82,54.68a60.51,60.51,0,0,0-.83,16.77c.5,4.46,1.71,7.58,3.39,8.74a12.1,12.1,0,0,0,3,1.5,10,10,0,0,0,1.43.37,9.5,9.5,0,0,0,1.53.09,13,13,0,0,0,3.6-.56c1.94-.6,4.43-2.76,7.06-6.19a66.86,66.86,0,0,0,7.87-13.83q5.46-12.29,10.9-24.58l10.91-24.59,16.52,14.95L237,510.18l35.15-67.95Z"/><polyline class="cls-5" points="203.92 480.29 206.99 474.21 210.07 468.12"/><polyline class="cls-5" points="86.54 456 109.41 511.22 132.28 566.45"/><polyline class="cls-5" points="56.37 469.04 83.11 513.58 109.85 558.12"/><path class="cls-10" d="M569,798.45,364.36,762.76l-204.61-35.7a8.64,8.64,0,0,0-10.05,9.15l2,27,2,27A18.51,18.51,0,0,0,169,806.84l109.69,19.61,109.69,19.62a18.51,18.51,0,0,0,18.59-7.85L416,824.77l9.11-13.45,59.75,8.43,59.76,8.43,12.16-14.86Z"/><path class="cls-4" d="M588.2,310.45l5.55,147.64,5.55,147.64,50.85-15.28L701,575.18,645.33,442.65,589.65,310.13a.74.74,0,0,0-.86-.45A.76.76,0,0,0,588.2,310.45Z"/><path class="cls-3" d="M560.41,444.16a5.87,5.87,0,1,1-1.72-4.13A5.83,5.83,0,0,1,560.41,444.16Z"/><path class="cls-3" d="M560.41,543.08a5.87,5.87,0,1,1-1.72-4.13A5.83,5.83,0,0,1,560.41,543.08Z"/><path class="cls-3" d="M560.41,642a5.87,5.87,0,1,1-1.72-4.14A5.83,5.83,0,0,1,560.41,642Z"/><path class="cls-11" d="M159.75,727.06S153.1,716.79,150,700.3s-2.76-39.21,11.27-64.1a42.77,42.77,0,0,1,4.22-6.19,35.21,35.21,0,0,1,5.3-5.27,26.29,26.29,0,0,1,7-4.17,13.33,13.33,0,0,1,8.07-.68,11.46,11.46,0,0,1,4.43,2.2,12.28,12.28,0,0,1,3.16,3.81,13.21,13.21,0,0,1,1.42,4.47,14.39,14.39,0,0,1-.58,6,14.67,14.67,0,0,1,8.23-9.17,15.54,15.54,0,0,1,12.4,0c6,2.63,10,8.51,12.63,15.19a83.21,83.21,0,0,1,4.61,20c.28,2.41.45,4.85.51,7.28s0,4.87-.18,7.3q-.1,1.5-.27,3c-.11,1-.23,2-.37,3-.07.48-.11,1.53-.22,2.54a4.6,4.6,0,0,1-.63,2.33,17.93,17.93,0,0,1,8.64-4.34c5-.81,11.39,1.1,16.88,12a211.23,211.23,0,0,0,15.12,26.42c9.17,13.56,21.58,27.83,34.53,30.67l-73.19-12.77Z"/><path class="cls-5" d="M178.56,620.29a131.46,131.46,0,0,0-13.44,37.41c-4.22,21.69-3.47,49.33,16.45,73.16"/><path class="cls-5" d="M194.25,636.41a104.43,104.43,0,0,0-7,23.43,96.67,96.67,0,0,0,8.69,60.4A99.86,99.86,0,0,0,205,735"/><path class="cls-5" d="M221.58,632.21a98.57,98.57,0,0,0-7.73,22,95.54,95.54,0,0,0,10.62,69.29,98,98,0,0,0,12.49,17"/><path class="cls-5" d="M243.25,683.47a69.9,69.9,0,0,0-.79,12.67,68.87,68.87,0,0,0,12.81,38.15,70.43,70.43,0,0,0,9.86,11.15"/><path class="cls-9" d="M280.83,636.79a12.56,12.56,0,1,1-3.68-8.88A12.56,12.56,0,0,1,280.83,636.79Z"/><path class="cls-7" d="M338,728.58c.79,1.7.28,3.82-1.19,5.86a19.53,19.53,0,0,1-15.56,7.29c-2.51-.19-4.47-1.15-5.26-2.85s-.29-3.82,1.18-5.86a19.57,19.57,0,0,1,15.57-7.28C335.23,725.92,337.18,726.88,338,728.58Z"/><path class="cls-2" d="M298.58,676.85a.59.59,0,0,0-.47,0,.6.6,0,0,0-.32.34l-1.52,4-1.52,4c-1.05,2.75.29,5.08,2.37,7a34.46,34.46,0,0,0,6.82,4.41,51.42,51.42,0,0,0,13.17,4.72c5.21,1,10.17.59,11.65-3.62l1.34-3.8,1.34-3.81a.61.61,0,0,0,0-.46.63.63,0,0,0-.34-.32l-16.25-6.2Z"/><path class="cls-2" d="M212,604.35a.63.63,0,0,0-.15.45.59.59,0,0,0,.21.42l3.19,2.8,3.19,2.8c2.21,1.95,4.87,1.5,7.38.21a34.78,34.78,0,0,0,6.51-4.86,51.51,51.51,0,0,0,9-10.71c2.73-4.55,4.08-9.33.65-12.19l-3.11-2.58-3.1-2.57a.55.55,0,0,0-.44-.14.62.62,0,0,0-.42.2l-11.45,13.09Z"/><polygon class="cls-11" points="366.15 730.74 359.25 726.26 352.35 721.79 358.86 711.75 365.37 701.71 372.27 706.19 379.17 710.66 372.66 720.7 366.15 730.74"/><path class="cls-6" d="M698.69,621.54l-10.21,9.56-10.22,9.55L626.15,653,574,665.25a46.27,46.27,0,0,0-13.4,4,62.7,62.7,0,0,0-25.77,21.86L508.17,722l-26.7,30.82a30.12,30.12,0,0,0-3.55,9.77c-.8,5.26.35,11.29,8.13,14.34,0,0,2.29,1.53,8.12-.46s15.22-7.47,29.41-21.51l9.46-8.54,9.46-8.55a12,12,0,0,1,5.15-4.46c3.78-1.87,10-3,19.57-.12l18.16,3.67,18.16,3.66s3.16.32,4.42,2.84.61,7.22-7,16l-28.15,34.39-28.14,34.39-56.13,1.29-56.14,1.29-2.95,0-3,0a25.19,25.19,0,0,0-10.17,2c-3.63,1.74-6.62,4.92-6.23,10.76a12.44,12.44,0,0,0,.39,2.39,12.6,12.6,0,0,0,1.28,3.1,12.47,12.47,0,0,0,1.65,2.21,12.93,12.93,0,0,0,1.82,1.59,12.2,12.2,0,0,0,2.33,1.33,14.27,14.27,0,0,0,2.54.84l59.29,14.14,59.29,14.13a32,32,0,0,0,3.7,1,32.51,32.51,0,0,0,4.32.57,33.82,33.82,0,0,0,13.58-2,38.94,38.94,0,0,0,8.39-4.25,28.53,28.53,0,0,0,8.37,9.29c5.49,3.74,13.6,5.66,24.06-1.57l.29.18.85.49A33.83,33.83,0,0,0,622,891.11a34.35,34.35,0,0,0,18.7-7.79l88.81-73.82,88.82-73.82-59.82-57.07Z"/><polyline class="cls-5" points="656.57 796.62 612.61 837.61 568.65 878.59"/><polyline class="cls-5" points="683.9 811.32 642.49 848.81 601.08 886.31"/><path class="cls-12" d="M331.64,689.46c-.7,1.83-3.21,2.77-6.71,2.8a40.12,40.12,0,0,1-23.78-9.07c-2.59-2.36-3.84-4.73-3.14-6.56s3.21-2.76,6.71-2.8a40,40,0,0,1,23.78,9.08C331.09,685.27,332.34,687.64,331.64,689.46Z"/><path class="cls-12" d="M235.32,577.73c1.47,1.29,1.48,4,.29,7.27a40.09,40.09,0,0,1-16.76,19.15c-3.11,1.61-5.77,2-7.24.67s-1.48-4-.3-7.27a40.18,40.18,0,0,1,16.77-19.15C231.19,576.79,233.85,576.44,235.32,577.73Z"/><polyline class="cls-10" points="425.13 811.32 435.47 794.14 445.8 776.96"/><path class="cls-1" d="M739.9,450.82q6.44,24.8,12.88,49.59L765.65,550l-33.48,35.77-33.48,35.77,59.83,57.07,59.82,57.07q27.87-25.27,54.55-53.64T924.58,622q1.41-1.77,2.8-3.56t2.77-3.58"/></svg>