<svg id="Layer_2" data-name="Layer 2" xmlns="http://www.w3.org/2000/svg" viewBox="0 0 1000 1000"><defs><style>.cls-1{fill:#14af6c;}.cls-1,.cls-2,.cls-3,.cls-4,.cls-5,.cls-6,.cls-7,.cls-8,.cls-9{stroke:#000;stroke-linecap:round;stroke-miterlimit:10;stroke-width:3px;}.cls-2{fill:#ef3f3f;}.cls-3{fill:#104fc1;}.cls-5{fill:#d1b7e5;}.cls-6{fill:#fff8f8;}.cls-7{fill:none;}.cls-8{fill:#ffc0c0;}.cls-9{fill:#f9851c;}.cls-10{fill:#231f20;}</style></defs><path class="cls-1" d="M388,457.26l-4,36.88-4,36.88a260.35,260.35,0,0,0-1.19,27.87c.12,16,1.71,36.19,7.52,52.83.7,2,1.41,4,2.1,6s1.39,4,2,6l14.08,43.17,14.08,43.18,62.73-14.16,62.72-14.16-20.07-59.42L504,562.93a30.33,30.33,0,0,1-1.24-14.15l8.11-53.48L519,441.82a.91.91,0,0,1,.94-.8.92.92,0,0,1,.93.82l10.94,82.25,10.93,82.24a312.79,312.79,0,0,0,21.28,78.77q7.88,18.95,16.14,38.16t16.91,38.67Q606.49,783,616,803.6t19,40.58l62-16.65,62-16.66-33.8-79.94L691.46,651a52.71,52.71,0,0,1-4-15.69L674.15,492,660.78,348.68l-129.69-1.42-129.68-1.42-6.69,55.71Z"/><path class="cls-2" d="M819.2,915.12h0l-150,30.36-150,30.36h0a36.49,36.49,0,0,0,39.28,18.37L614.39,983l55.9-11.26a49.19,49.19,0,0,0,10-3.18,48.65,48.65,0,0,0,9.12-5.24l2.58-1.88,2.57-1.87a2.58,2.58,0,0,1,4,1.31h0a5.61,5.61,0,0,0,6.49,3.85l25.81-5.2,25.81-5.2a6,6,0,0,0,4.74-5l.19-1.16.18-1.16a1.5,1.5,0,0,1,1.05-1.21,1.47,1.47,0,0,1,1.53.43l1.34,1.92,1.34,1.92a3.52,3.52,0,0,0,1.55,1.24,3.43,3.43,0,0,0,2,.18l5.33-1.07,5.33-1.08a3.46,3.46,0,0,0,2.75-2.86l.34-2.18.34-2.17a1.5,1.5,0,0,1,1.05-1.21,1.47,1.47,0,0,1,1.53.43l.85,1.21.85,1.22a6.53,6.53,0,0,0,6.65,2.67l3.71-.75,3.72-.75a22.12,22.12,0,0,0,16.18-29.82Z"/><path class="cls-3" d="M705.87,337.9A717.77,717.77,0,0,0,718,262.06c4.34-41.72,5.26-91-8.41-121.43a82.91,82.91,0,0,0-6.25-11.24A92.67,92.67,0,0,0,690.55,114c-2.84-2.77-9.73-9.09-23.44-15.26s-34.25-12.19-64.4-14.33c-14.37-1-30.81.3-52.9,3.69S500,97,463,104.24c-12.29,2.42-22.81,4.63-32.71,7.8a120.55,120.55,0,0,0-28.95,13.52A132.65,132.65,0,0,0,359,169.08,131.61,131.61,0,0,0,345,201.73q-9.94,36-19.87,72.08t-19.88,72.08c1.61,1.54,9.94,9.53,20.66,19S349.81,385.44,361,393a55.93,55.93,0,0,0,10.15,5.71,28.48,28.48,0,0,0,13.32,2.19,29.13,29.13,0,0,0,6.27-1.24,30.92,30.92,0,0,0,4.74-1.93l-3.72,29.75L388,457.26l41.86.58,41.86.58q2-28.14,3.94-56.29t3.94-56.29c7.54.13,22.17.61,36.8,1.08s29.25.95,36.79,1.08q3,27.92,6.1,55.83t6.1,55.84l78-9.5,78-9.5-7.77-51.38Z"/><path class="cls-4" d="M604.17,398,689.8,429.3l29,10.61h0a4.18,4.18,0,0,0,.66.07,1.84,1.84,0,0,0,1.07-.23,1.21,1.21,0,0,0,.43-.9,4.48,4.48,0,0,0,0-.83c-.13-1.34-3.35-22.67-6.78-45.26s-7.07-46.45-8.05-52.87a95.15,95.15,0,0,1-2.94,10.27,92.69,92.69,0,0,1-5.43,12.49,97.19,97.19,0,0,1-6,10.16,69.21,69.21,0,0,1-10.42,12.08,70.67,70.67,0,0,1-17,11.58,72.86,72.86,0,0,1-25.25,7.06,72.4,72.4,0,0,1-16.77-.42A71.33,71.33,0,0,1,612,400.84,74,74,0,0,1,604.17,398Z"/><path class="cls-4" d="M402.05,328.24l39.33-.66,39.33-.66-1.41,21.91q-.71,10.95-1.4,21.91L440,349.49Z"/><polygon class="cls-5" points="659.46 864.81 477.36 864.81 295.26 864.81 295.26 854.5 295.26 844.18 477.36 844.18 659.46 844.18 659.46 854.5 659.46 864.81"/><path class="cls-4" d="M305.23,851.83a49.57,49.57,0,1,1-14.52-35A49.41,49.41,0,0,1,305.23,851.83Z"/><path class="cls-6" d="M513.3,148.26,500.56,123,487.81,97.8A71.32,71.32,0,0,1,502.45,91,74.37,74.37,0,0,1,538,87.46L527,117.78l-11.06,30.33a1.43,1.43,0,0,1-2.61.15Z"/><path class="cls-6" d="M480.41,346.47l36,1.09,36,1.09a.76.76,0,0,0,.62-.28.8.8,0,0,0,.18-.66L533.85,246.34,514.49,145a.77.77,0,0,0-.78-.64.78.78,0,0,0-.77.66L496.3,245.27,479.65,345.55a.78.78,0,0,0,.17.63A.8.8,0,0,0,480.41,346.47Z"/><polyline class="cls-7" points="416.99 209.3 406.23 303.54 395.48 397.77"/><path class="cls-3" d="M464.87,103.29,463,140.39l-1.86,37.1,26.66-14.67,26.65-14.67L499.9,119.9,485.33,91.64,475.1,97.47Z"/><path class="cls-3" d="M514.46,148.15q4.27-15.39,8.54-30.76l8.55-30.76h26.61L568,126.81,577.74,167l-31.64-9.42Z"/><path class="cls-3" d="M705.87,337.9q-1.29,5.63-2.82,10.67t-3.3,9.54a71.5,71.5,0,0,1-39.3,40.14,72.27,72.27,0,0,1-56.28-.24q-11.58-4.93-23.86-11t-25-13.27c-8.86-5-17.21-10.17-25.06-15.3s-15.19-10.25-22-15.3a135.88,135.88,0,0,0,19.58-21.76,124.89,124.89,0,0,0,23.06-59.49,129.38,129.38,0,0,0,.76-17.38l24.19,11.95L600,268.44l5-27.74q2.47-13.87,5-27.75"/><path class="cls-8" d="M551.58,244.55l-21.7-10.9-21.7-10.9c-1.86-.74-4.17-1.6-6.88-2.47s-5.83-1.75-9.3-2.53c-1.5-.33-2.85-.6-4.06-.81s-2.27-.4-3.2-.54c-11.54-1.77-21.68-3.33-31.36-3.73a86.16,86.16,0,0,0-28.61,3.2c-1.7.5-3.4,1-5.21,1.64a52.27,52.27,0,0,0-5.9,2.52c-11.19,5.63-18.4,15.23-24.44,30.21s-10.89,35.33-17.37,62.46a23.38,23.38,0,0,0-.7,4.87,13.63,13.63,0,0,0,2.89,9.18,12.11,12.11,0,0,0,3.75,3.15,12.31,12.31,0,0,0,7.2,1.31,14.48,14.48,0,0,0,4-1,17.59,17.59,0,0,0,7.3,5.74,13.17,13.17,0,0,0,8.35.67,12.38,12.38,0,0,0,4.53-2.31,14.35,14.35,0,0,0,2.49-2.53,13.53,13.53,0,0,0,2.64,3.17,12.5,12.5,0,0,0,15.15,1.39,13.78,13.78,0,0,0,3.2-2.67,12.64,12.64,0,0,0,4.12,4.65,11.11,11.11,0,0,0,5.68,1.91,11.32,11.32,0,0,0,7.35-2.4,12.89,12.89,0,0,0,4.55-6.84L471,329.51,487.74,328,498,335.6l10.22,7.58s10.84-8.86,21.69-25.62A133.52,133.52,0,0,0,551.58,244.55Z"/><path class="cls-4" d="M458.9,312.06c1.43-8,3-16.07,4.62-24.11s3.19-16.08,4.62-24.12a6.24,6.24,0,0,1,2-4,6,6,0,0,1,4-1.56,5,5,0,0,1,3.93,1.91,6.79,6.79,0,0,1,1.36,4.51v0c-.08,1.58-.52,5.6-1.51,13.2s-2.51,18.76-4.77,34.66l-7.16-.26Z"/><polyline class="cls-7" points="388.95 330.22 396.87 299.59 404.78 268.96"/><polyline class="cls-7" points="411.56 332.61 418.73 302.26 425.9 271.9"/><polyline class="cls-7" points="432.61 333.68 439.34 303.42 446.07 273.16"/><path class="cls-1" d="M191.93,317.3h0a13.22,13.22,0,0,1-12.68-13.72l.52-13.26.52-13.25A13.22,13.22,0,0,1,194,264.39h0a13.21,13.21,0,0,1,12.68,13.72l-.52,13.25-.52,13.26a13.21,13.21,0,0,1-13.72,12.68Z"/><path class="cls-9" d="M284.31,851.83a28.65,28.65,0,1,1-8.39-20.25A28.55,28.55,0,0,1,284.31,851.83Z"/><polyline class="cls-7" points="599.96 268.44 608.74 273.16 617.53 277.88"/><path class="cls-9" d="M788.54,840.1c-3.81-6.62-8.4-14.76-13.59-24.26s-11-20.36-17.13-32.46a19.51,19.51,0,0,0-6.65-8.06,15.38,15.38,0,0,0-5.06-2.27,15,15,0,0,0-5.54-.29,97.89,97.89,0,0,0-14.08,3,93.73,93.73,0,0,0-10.37,3.68,97.47,97.47,0,0,0-10.86,5.15,53.56,53.56,0,0,0-11.3,8.55,56.33,56.33,0,0,0-10.41,14.16s-1.58-9-6.62-15.83-13.53-11.56-27.34-3l-14.52,9.34-14.51,9.34A10.74,10.74,0,0,0,617.35,822l7.31,11.31L632,844.6a19.87,19.87,0,0,1,3.26,10.81c0,6.42-3.15,14.87-16,23L595.1,892.16l-24.17,13.75q-6,3.38-11.95,6.66t-12,6.5c-7,3.76-18.58,10.92-26.05,20.67S510,961.84,519.22,976l150.1-30.31,150.1-30.31c-5.14-19.69-12.86-38.51-19.3-52.4S788.54,840.1,788.54,840.1Z"/><path class="cls-7" d="M683.55,807.28a110.16,110.16,0,0,1-1.4,20.2c-1.8,11-5.81,24-14.61,31.5"/><path class="cls-7" d="M630.76,868.22l12,3.9,12,3.89"/><path class="cls-7" d="M604.63,887.15l11.14,5.22,11.13,5.22"/><path class="cls-1" d="M725.77,814.3a10.29,10.29,0,1,1-3.57-7A10.21,10.21,0,0,1,725.77,814.3Z"/><path class="cls-9" d="M572.27,732.09c-3-7-6.61-15.64-10.64-25.68s-8.48-21.52-13.19-34.26a20.57,20.57,0,0,0-1.67-3.86,19.39,19.39,0,0,0-4-4.92,15.23,15.23,0,0,0-4.76-2.85,14.72,14.72,0,0,0-5.47-.94,97.35,97.35,0,0,0-14.33,1.3,96.16,96.16,0,0,0-10.73,2.43,99.89,99.89,0,0,0-11.39,3.84,53.18,53.18,0,0,0-12.23,7.16,56.93,56.93,0,0,0-12,12.84s-.52-9.1-4.72-16.49-12.07-13.08-26.79-6.24L424.85,672l-15.51,7.56A10.76,10.76,0,0,0,404.4,694l5.93,12.1,5.94,12.09a19.86,19.86,0,0,1,2,11.11c-.73,6.38-4.88,14.4-18.57,21L374.05,761l-25.62,10.81q-6.3,2.65-12.65,5.21t-12.71,5c-7.43,2.91-19.73,8.66-28.3,17.46s-13.41,20.67-5.93,35.8l152.62-12.45,152.63-12.45c-2.79-20.16-8.25-39.75-13-54.3S572.27,732.09,572.27,732.09Z"/><path class="cls-7" d="M471.87,687.15A109.9,109.9,0,0,1,468.1,707c-3.09,10.75-8.58,23.12-18.21,29.57"/><path class="cls-1" d="M412.28,741.46l11.49,5.28L435.26,752"/><path class="cls-1" d="M384.11,757.19l10.44,6.49,10.44,6.5"/><path class="cls-1" d="M513,699.09a10.28,10.28,0,1,1-2.72-7.4A10.25,10.25,0,0,1,513,699.09Z"/><path class="cls-4" d="M458.24,393.08a3.93,3.93,0,1,1-1.15-2.79A3.93,3.93,0,0,1,458.24,393.08Z"/><path class="cls-8" d="M373.59,264.2l-18.81-16.76L336,230.67a64.09,64.09,0,0,0-7.24-6.13,60.17,60.17,0,0,0-10.63-6.16,49,49,0,0,0-13.89-3.87c-5.11-.72-11.08-1-19-1.47a161.88,161.88,0,0,0-27.56.59,66.71,66.71,0,0,0-11.41,2.24c-.92.27-2.57.75-4.56,1.44a54.53,54.53,0,0,0-6.54,2.72c-11.19,5.63-18.41,15.23-24.44,30.21s-10.9,35.33-17.37,62.46a22.61,22.61,0,0,0-.71,4.87,14.47,14.47,0,0,0,1.37,6.74,13,13,0,0,0,1.53,2.44,11.94,11.94,0,0,0,3.74,3.15,12.32,12.32,0,0,0,7.2,1.31,14.48,14.48,0,0,0,4-1,17.66,17.66,0,0,0,7.3,5.74,13.2,13.2,0,0,0,8.36.67,12.46,12.46,0,0,0,4.53-2.31,14.72,14.72,0,0,0,2.49-2.53,13.64,13.64,0,0,0,2.63,3.17,12.51,12.51,0,0,0,15.16,1.39,13.61,13.61,0,0,0,3.19-2.67,12.64,12.64,0,0,0,4.12,4.65,11.15,11.15,0,0,0,5.68,1.91,11.32,11.32,0,0,0,7.35-2.4,12.89,12.89,0,0,0,4.55-6.84l16.72-1.49L309.16,328l9.3,5.73,9.29,5.72c3.62-3.44,7.48-7.41,11.42-12a168.93,168.93,0,0,0,26.32-41.32A170.17,170.17,0,0,0,373.59,264.2Z"/><polyline class="cls-7" points="210.37 330.22 218.29 299.59 226.2 268.96"/><polyline class="cls-7" points="232.98 332.61 240.16 302.26 247.33 271.9"/><polyline class="cls-7" points="254.03 333.68 260.76 303.42 267.49 273.16"/><path class="cls-5" d="M254.78,864.81h0a12.07,12.07,0,0,1-12-13.55l33.56-271.44,33.56-271.43h24.32L300.5,581.31,266.76,854.22a12.07,12.07,0,0,1-12,10.59Z"/><path class="cls-4" d="M549.67,43.71,530.08,46.3l-19.59,2.59a60.71,60.71,0,0,0,5,15.08A53.44,53.44,0,0,0,529,81.32a52.59,52.59,0,0,0,10,6.67,55,55,0,0,0,9,3.65,63.74,63.74,0,0,0,4-12.48,66.37,66.37,0,0,0,1.39-13.57,65.49,65.49,0,0,0-1-11.29A64.54,64.54,0,0,0,549.67,43.71Z"/><path class="cls-8" d="M532.43,84c-1.18-.85-2.1-1.59-2.8-2.2s-1.21-1.1-1.55-1.45-.49-.5-.69-.72l-.52-.58.51.09.61.09.52,0c.32,0,.74,0,1.16,0A14.36,14.36,0,1,0,520.53,54a15,15,0,0,0-5,8.68c-.56-.94-1.13-2-1.7-3.2a40.38,40.38,0,0,1-1.62-4c-.43-1.23-.77-2.41-1-3.53s-.48-2.16-.64-3.13l-33.43,4.43-33.43,4.42c-.15,1.29-.27,2.59-.35,3.89s-.13,2.63-.13,4a63.41,63.41,0,0,0,16.15,42.8c10,11,23.75,17.73,39,17.73a51.33,51.33,0,0,0,29.78-9.59,59.33,59.33,0,0,0,20-24.89,59,59,0,0,1-5.72-2.11c-1.67-.72-3.11-1.44-4.29-2.07-.66-.36-1.49-.82-2.45-1.4S533.56,84.78,532.43,84Z"/><path class="cls-2" d="M515.08,83.76a7.7,7.7,0,1,1-2.25-5.43A7.66,7.66,0,0,1,515.08,83.76Z"/><path class="cls-2" d="M478.54,103.56a7.68,7.68,0,1,1-2.25-5.43A7.66,7.66,0,0,1,478.54,103.56Z"/><path class="cls-7" d="M482.43,105.14a12.63,12.63,0,0,0,6.3.09c3.36-.85,7.15-3.5,8.86-10.66"/><path class="cls-10" d="M466.86,87.49a3.12,3.12,0,0,1-.91,2.2,3.11,3.11,0,0,1-4.38,0,3.1,3.1,0,0,1,0-4.39,3.1,3.1,0,0,1,5.29,2.19Z"/><path class="cls-10" d="M496.67,74.71a3.12,3.12,0,0,1-.91,2.2,3.11,3.11,0,0,1-4.38,0,3.11,3.11,0,0,1,2.19-5.3,3.11,3.11,0,0,1,3.1,3.1Z"/><polyline class="cls-7" points="461.15 70.36 477.36 63.71 493.57 57.06"/><polyline class="cls-7" points="469.44 66.97 474.47 80.77 479.51 94.57 481.4 93.7 483.29 92.84"/><path class="cls-9" d="M498.28,5.06a52.18,52.18,0,0,0-36.52,15.2,62.38,62.38,0,0,0-18.13,37.48l53-7,53-7a60.15,60.15,0,0,0-19.92-27.8A51.48,51.48,0,0,0,498.28,5.06Z"/><polyline class="cls-7" points="525.17 69.71 529.67 65.97 534.17 62.23"/><path class="cls-4" d="M463.76,55.08a28.4,28.4,0,0,1-1.93,16.62,24.84,24.84,0,0,1-10.64,11.76,23.11,23.11,0,0,1-5.64,2.19,24.14,24.14,0,0,1-5.39.69A24.67,24.67,0,0,1,427,82.89a22.2,22.2,0,0,1-10.68-15.82,20.79,20.79,0,0,1,0-6,24,24,0,0,1,5.4-11.89,17,17,0,0,1,11.41-6.26,16.33,16.33,0,0,1,8,1.47,21.29,21.29,0,0,1,4.6,2.83c-.3,1-.59,2.09-.86,3.21s-.51,2.3-.73,3.53c-.12.66-.22,1.32-.31,2s-.17,1.26-.24,1.87l10.08-1.33Z"/><polyline class="cls-7" points="448.71 39.07 495.38 33.93 542.04 28.8"/><polyline class="cls-7" points="462.83 37.52 462.83 46.36 462.83 55.2"/><polyline class="cls-7" points="481.27 35.62 481.27 43.97 481.27 52.33"/><polyline class="cls-7" points="503.79 33.36 503.79 41.57 503.79 49.78"/><polyline class="cls-7" points="526.72 30.81 526.72 38.58 526.72 46.34"/><path class="cls-2" d="M594.21,810.31h0L441.4,822.54,288.6,834.77h0a36.61,36.61,0,0,0,36.88,22.94l56.94-4.51,56.94-4.51a49,49,0,0,0,20.05-6.07l2.78-1.56,2.79-1.55a2.58,2.58,0,0,1,3.79,1.78h0a5.64,5.64,0,0,0,6,4.6l26.29-2.09,26.29-2.08a6,6,0,0,0,5.31-4.36l.32-1.13.32-1.13a1.49,1.49,0,0,1,1.19-1.07,1.47,1.47,0,0,1,1.47.6l1.11,2.07,1.1,2.07a3.54,3.54,0,0,0,1.4,1.42,3.48,3.48,0,0,0,1.94.41l5.43-.43,5.43-.43a3.51,3.51,0,0,0,3.08-2.52l.59-2.12.6-2.12a1.49,1.49,0,0,1,1.19-1.06,1.45,1.45,0,0,1,1.47.6l.7,1.31.7,1.31a6.53,6.53,0,0,0,6.29,3.44l3.79-.3,3.79-.3a22.12,22.12,0,0,0,19.65-27.67Z"/><polyline class="cls-7" points="373.6 264.2 378.26 266.58 382.92 268.96"/><path class="cls-4" d="M280.17,308.39q2.18-11.13,4.37-22.28t4.37-22.28a6.24,6.24,0,0,1,2-4,6,6,0,0,1,4.06-1.56,5.86,5.86,0,0,1,3.82,1.5,6.26,6.26,0,0,1,2,3.64,4.63,4.63,0,0,1,.06,1,7.2,7.2,0,0,1-.12,1l-3.72,21.42q-1.87,10.71-3.73,21.42l-6.58,0Z"/><path class="cls-1" d="M479.31,268.8a11.77,11.77,0,0,0-5.56,1.36,15.3,15.3,0,0,0-2.91,1.92,14.1,14.1,0,0,0-3.95,5.55,15.11,15.11,0,0,0-1,3.84h0l-3.5,15.3-3.5,15.29,6,.22,6,.22a18.17,18.17,0,0,0,1.67.92,15.29,15.29,0,0,0,2.29.87s.44.14,1.1.28a12.28,12.28,0,0,0,2.35.31,11.87,11.87,0,0,0,12.14-11.59l.26-11.17.26-11.18a11.87,11.87,0,0,0-11.59-12.14Z"/><path class="cls-7" d="M460.27,304.39l-2.85,12.75-2.85,12.76"/><polyline class="cls-7" points="280.17 308.39 277.95 319.7 275.73 331"/><polygon class="cls-5" points="372.23 308.39 326.2 308.39 280.17 308.39 282.88 294.56 285.59 280.74 332.31 280.74 379.02 280.74 375.63 294.56 372.23 308.39"/></svg>