<svg id="Layer_2" data-name="Layer 2" xmlns="http://www.w3.org/2000/svg" viewBox="0 0 1000 1000"><defs><style>.cls-1{fill:#104fc1;}.cls-1,.cls-10,.cls-2,.cls-3,.cls-4,.cls-5,.cls-6,.cls-7,.cls-8{stroke:#000;stroke-linecap:round;stroke-miterlimit:10;stroke-width:3px;}.cls-2{fill:#fff8f8;}.cls-3{fill:#d1b7e5;}.cls-5{fill:none;}.cls-6{fill:#14af6c;}.cls-7{fill:#ffc0c0;}.cls-8{fill:#ef3f3f;}.cls-9{fill:#231f20;}.cls-10{fill:#f9851c;}</style></defs><path class="cls-1" d="M928.72,657.25a117.18,117.18,0,0,0,10.8-10.37,108.48,108.48,0,0,0,7.48-9.14c32.35-44.21,26.45-105.84,7.8-162.15s-50-107.3-68.69-130.23a163.78,163.78,0,0,0-14.69-15.83c-4.21-4-7.48-6.66-9-8a147.77,147.77,0,0,0-37.33-23.33,136.13,136.13,0,0,0-42.65-10.71c-23.73-2-48.59-.33-73.3,3s-49.27,8.4-72.44,13.26c-14.43,3-28.81,6.45-43,10.48a439.74,439.74,0,0,0-42,14.1c-11.92,4.72-24.94,9.55-37.14,15.67s-23.57,13.51-32.2,23.38c-9.28,10.6-16.12,22.86-22,35.67s-10.68,26.18-15.92,39c-5.5,13.44-10.13,27.07-14.75,40.71s-9.26,27.28-14.75,40.72l-23.27-37.44-23.26-37.43-63.17,43.79-63.17,43.8L279,613.11,316,690a149.74,149.74,0,0,0,19.2,35.1c11.29,15.18,27.91,30.69,51.16,37.11A85.28,85.28,0,0,0,404,765.12a109.46,109.46,0,0,0,12.26,0c22.33-1,41.35-8.68,56.3-17.63a159.7,159.7,0,0,0,31.93-25.43V827.62l68.91-6.46,68.9-6.46,67.43-6.33,67.42-6.32L919.2,786.29l48.94-5.42q-2.71-8.5-5.42-17t-5.41-17q-7.15-22.41-14.3-44.82T928.72,657.25Z"/><path class="cls-1" d="M547.24,330.11,553,381.37l5.74,51.25,31.5-29.18,31.5-29.18-21.09-27.88L579.55,318.5c-3.44.95-7,2-10.65,3.23s-7.39,2.54-11.22,4q-2.73,1-5.33,2.15C550.61,328.63,548.91,329.37,547.24,330.11Z"/><path class="cls-1" d="M621.72,374.26q3.75-17.62,7.48-35.24t7.48-35.24l18-3.64,18-3.63,20.55,52,20.54,52-46-13.15Z"/><path class="cls-2" d="M643.32,814.6l66.26-6.22,66.27-6.21a1,1,0,0,0,.75-.46,1,1,0,0,0,.09-.87l-76.76-213-76.77-213a1,1,0,0,0-1.93.39l10.5,219.17,10.5,219.18a1,1,0,0,0,1.09.94Z"/><path class="cls-2" d="M579.55,318.5l21.08,27.88,21.09,27.88q3.75-17.62,7.48-35.24t7.48-35.24s-13,2.93-26.71,6.24S582,317,579.55,318.5Z"/><path class="cls-3" d="M232.13,467.77H41.71A11.74,11.74,0,0,1,30,456V337.08a11.74,11.74,0,0,1,11.74-11.74H232.13a11.74,11.74,0,0,1,11.74,11.74V456a11.74,11.74,0,0,1-11.74,11.74Z"/><polygon class="cls-4" points="504.11 786.18 504.29 806.9 504.47 827.62 538.24 824.57 572.01 821.52 538.06 803.85 504.11 786.18"/><path class="cls-4" d="M928.72,657.25,886.6,686.81l-42.13,29.57,61.83,32.24,61.84,32.25-19.71-61.81Z"/><path class="cls-5" d="M32.49,329.82l46.69,39.67,46.68,39.67a18.88,18.88,0,0,0,24.72-.24L195.67,369l45.1-39.89"/><path class="cls-5" d="M511,527.67q-1.58,63.74-3.16,127.45t-3.16,127.44"/><path class="cls-6" d="M685.1,748.42l-29.85,26.2-29.84,26.2-71.93-43.44L481.55,714a25,25,0,0,1-4.84-39l34.93-34.4,34.92-34.4a27.68,27.68,0,0,1,6.87-5.1,28.28,28.28,0,0,1,7.78-2.73A27.07,27.07,0,0,1,577,600.06a29,29,0,0,1,12.39,10.16l47.84,69.1Z"/><path class="cls-3" d="M680.68,752.3,647,782.4l-33.72,30.1-71.93-43.44-71.93-43.43a25,25,0,0,1-4.84-39l35-33,35.05-33a28.14,28.14,0,0,1,40.11.12l53,65.82Z"/><path class="cls-2" d="M673.94,756.86,635,792.22l-38.93,35.36-71.93-43.44-71.93-43.43a25,25,0,0,1-4.84-39l35.48-33,35.48-33a28.15,28.15,0,0,1,40.12.12L616.2,696.3Z"/><path class="cls-7" d="M368.45,448.64c-2.54-4.47-5.38-9.14-8.58-13.93S353.13,425,349.19,420a223.21,223.21,0,0,0-26.38-27.95,229,229,0,0,0-24.68-19.16c-9.28-5.63-18.2-11.26-27.13-16.89s-17.85-11.27-27.13-16.9c.24,8,.12,16.05,0,24.08s-.24,16.05,0,24.08c-6.74,1.37-13.48,2.71-20.21,4.11s-13.45,2.86-20.14,4.47q-4.23,1-8.45,2.14t-8.4,2.33c-2.64.76-5.55,1.42-8.36,2.29a27.83,27.83,0,0,0-7.82,3.54,9.35,9.35,0,0,0-3.67,5.81,8.55,8.55,0,0,0,1.39,6.74l0,0,0,.05c3.6,4.81,9.71,5.64,17.75,6.13s18,.65,29.36,4.12a77.59,77.59,0,0,1,8.05,3c2.29,1,4.18,1.94,5.6,2.69l8.48,4.63,4.54,2.51a1.83,1.83,0,0,1,.27.16,4.28,4.28,0,0,1,.4.32,3.73,3.73,0,0,1,1,2,9.51,9.51,0,0,1,.13,1.9c0,1.55,0,3.1,0,4.65s0,3.1,0,4.65a16.52,16.52,0,0,1-.07,1.68,11.13,11.13,0,0,1-.36,2,12.68,12.68,0,0,1-.68,1.85c-.23.48-.43.84-.55,1a13.24,13.24,0,0,1-2.68,3,12.25,12.25,0,0,1-5.06,2.22,19.49,19.49,0,0,1-3.34.4c-2.82.06-14.84.12-33.44.14s-43.76,0-72.87-.12A184.1,184.1,0,0,1,169,478.07a149,149,0,0,1,54.47,34.74,141.14,141.14,0,0,1,10.38,11.76c3.1,3.93,5.85,7.84,8.29,11.66l63.17-43.8Z"/><path class="cls-5" d="M229,434.71c1.25.62,2.86,1.45,4.76,2.46s4.07,2.22,6.44,3.6a189.69,189.69,0,0,1,27.34,19.43c6.77,5.59,12.4,10.28,20.48,14.09A66.12,66.12,0,0,0,301.71,479a81.13,81.13,0,0,0,20.37,1.83"/><path class="cls-5" d="M237.16,388.67c2.64-.6,5.36-1.18,8.16-1.72s5.68-1.07,8.63-1.55c3.56-.58,7-1.08,10.4-1.5s6.65-.78,9.83-1.06"/><path class="cls-7" d="M727.83,612.73,771.2,676l43.37,63.27c-16.91,11.15-32.93,20.79-47.64,29.09s-28.14,15.23-39.86,21c-36,17.63-62.74,27.32-83.5,32.55s-35.52,6-47.48,5.7c-3.23-.08-6.18-.22-8.77-.4s-4.83-.37-6.63-.55a35.94,35.94,0,0,1-12.61-3,35.71,35.71,0,0,1-7.29-4.33,34.85,34.85,0,0,1-4.48-4.09,53,53,0,0,1-16.72-1.41,24.74,24.74,0,0,1-9.17-4.5c-.83-.67-3.07-2.59-5.1-4.33l-3.86-3.33h0l-1.46-.42-1.46-.41a77.64,77.64,0,0,1-8.63-3.14,27.79,27.79,0,0,1-7.71-4.86,15.58,15.58,0,0,1-3.18-4.21,12.64,12.64,0,0,1-1.38-5,8.85,8.85,0,0,1,3.18-7.78,12.41,12.41,0,0,1,8.23-2.28,183.89,183.89,0,0,0,26.5-.55,105.39,105.39,0,0,0,25.83-5.84l1.25-.47,1.26-.49a253.88,253.88,0,0,0,38.57-19.49A389.07,389.07,0,0,0,652.8,709.8l-23.19-37.71-23.19-37.7s8.28-1.84,21.23-3.86a441,441,0,0,1,49.28-5A128.2,128.2,0,0,0,703,621.75a129.51,129.51,0,0,0,24.79-9Z"/><path class="cls-5" d="M521.46,801.65a362,362,0,0,0,50.11-8.75c28.09-6.89,62.27-18.81,86.61-39"/><path class="cls-5" d="M556.31,815.22A241.26,241.26,0,0,0,600.36,812c25-4.08,56.14-13,80.32-32.49"/><polyline class="cls-5" points="414.98 523.5 425.01 541.6 435.05 559.69"/><polyline class="cls-5" points="727.83 612.73 772.38 583 816.92 553.26 796.84 513.14 776.75 473.02"/><path class="cls-5" d="M814.57,739.27q4.42-3.49,8.9-7t9-6.95q24.22-18.55,48.32-35.56t47.91-32.53"/><path class="cls-5" d="M537.39,627.29l9.82,60.28L557,747.84a14.18,14.18,0,0,0,12.75,11.84l3.75.33,3.75.33"/><path class="cls-4" d="M592.53,508.67a5.86,5.86,0,1,1-1.72-4.14A5.85,5.85,0,0,1,592.53,508.67Z"/><path class="cls-4" d="M592.53,591.94a5.86,5.86,0,1,1-1.72-4.14A5.85,5.85,0,0,1,592.53,591.94Z"/><path class="cls-4" d="M681.27,241l-29.61-.18-29.61-.19a90.75,90.75,0,0,0,4.39,23.42,80,80,0,0,0,16.43,28.53,79,79,0,0,0,13.52,12,81.43,81.43,0,0,0,12.6,7.27,95.55,95.55,0,0,0,8.45-17.71,100.15,100.15,0,0,0,5.76-36.81A98.25,98.25,0,0,0,681.27,241Z"/><path class="cls-7" d="M647.39,297.26c-1.58-1.5-2.78-2.79-3.71-3.84s-1.55-1.88-2-2.48c-.33-.43-.62-.84-.87-1.21s-.48-.7-.65-1l.73.25.88.25.77.19c.46.1,1.08.23,1.71.31a21.51,21.51,0,1,0-8.36-39.41,22.48,22.48,0,0,0-9.26,11.85c-.63-1.51-1.27-3.21-1.86-5.1a60.43,60.43,0,0,1-1.59-6.19c-.38-1.92-.65-3.75-.83-5.46s-.28-3.31-.31-4.78l-50.54-.31L521,240q-.74,2.82-1.32,5.71c-.4,1.92-.73,3.87-1,5.85-3.44,24.81,2.61,48.54,15.16,66.85S565.42,349.66,588,352.8a77,77,0,0,0,46.19-8.11A89,89,0,0,0,669,311.86a85.43,85.43,0,0,1-8.07-4.32c-2.33-1.41-4.31-2.76-5.94-4-.9-.66-2-1.52-3.33-2.58S648.91,298.7,647.39,297.26Z"/><path class="cls-8" d="M621.68,293.38a11.53,11.53,0,1,1-2.22-8.53A11.47,11.47,0,0,1,621.68,293.38Z"/><path class="cls-8" d="M563.36,315.25a11.51,11.51,0,1,1-2.22-8.54A11.49,11.49,0,0,1,563.36,315.25Z"/><path class="cls-5" d="M568.81,318.39a18.94,18.94,0,0,0,9.34,1.43c5.17-.58,11.33-3.72,15.34-14"/><path class="cls-9" d="M549.34,289a4.65,4.65,0,1,1-.9-3.44A4.61,4.61,0,0,1,549.34,289Z"/><path class="cls-9" d="M596.22,276.16a4.65,4.65,0,1,1-.9-3.44A4.61,4.61,0,0,1,596.22,276.16Z"/><polyline class="cls-5" points="544.39 262.39 569.82 255.85 595.25 249.31"/><polyline class="cls-5" points="557.39 259.05 562.02 280.57 566.66 302.1 569.64 301.2 572.62 300.31"/><path class="cls-10" d="M612.94,173.1c-20.79-2.88-41,3-57.33,15A93.55,93.55,0,0,0,521,240l80.15.5,80.14.5a90.23,90.23,0,0,0-23.83-45.36A77.24,77.24,0,0,0,612.94,173.1Z"/><polyline class="cls-5" points="639.56 274.6 647 269.98 654.45 265.35"/><path class="cls-4" d="M551.41,240.23a42.55,42.55,0,0,1-6.29,24.27,37.24,37.24,0,0,1-18.21,15.27,34.46,34.46,0,0,1-8.83,2.1A37.49,37.49,0,0,1,491.16,274a33.27,33.27,0,0,1-12.59-25.68,30.88,30.88,0,0,1,1.2-9,36,36,0,0,1,10.46-16.54c5-4.46,11.33-7.32,18.22-6.94a24.38,24.38,0,0,1,11.6,3.82,32.23,32.23,0,0,1,6.26,5.16q-1,2.16-1.94,4.58c-.63,1.62-1.24,3.31-1.81,5.09-.31,1-.6,1.91-.87,2.84s-.51,1.85-.74,2.74l15.23.1Z"/><polyline class="cls-5" points="532.37 213.37 602.7 215.36 673.02 217.34"/><polyline class="cls-5" points="553.65 213.97 551.83 227.1 550 240.22"/><polyline class="cls-5" points="581.41 214.95 579.69 227.35 577.97 239.75"/><polyline class="cls-5" points="615.29 216.23 613.61 228.42 611.91 240.61"/><polyline class="cls-5" points="649.87 217.17 648.27 228.7 646.67 240.23"/><path class="cls-4" d="M777,473.52l20,39.87,20,39.87-21.64,14.45-21.64,14.44q.76-27.14,1.55-54.29t1.55-54.28a.12.12,0,0,1,.11-.13A.12.12,0,0,1,777,473.52Z"/></svg>