<svg id="Layer_2" data-name="Layer 2" xmlns="http://www.w3.org/2000/svg" viewBox="0 0 1000 1000"><defs><style>.cls-1{fill:#14af6c;}.cls-1,.cls-10,.cls-11,.cls-12,.cls-13,.cls-2,.cls-3,.cls-4,.cls-5,.cls-6,.cls-7,.cls-9{stroke:#000;stroke-linecap:round;stroke-miterlimit:10;}.cls-1,.cls-10,.cls-11,.cls-12,.cls-2,.cls-3,.cls-4,.cls-5,.cls-7,.cls-9{stroke-width:3px;}.cls-2{fill:#104fc1;}.cls-4{fill:#fff8f8;}.cls-5{fill:#ffc0c0;}.cls-12,.cls-6{fill:#ef3f3f;}.cls-6{stroke-width:2px;}.cls-13,.cls-7{fill:none;}.cls-8{fill:#231f20;}.cls-9{fill:#f9851c;}.cls-10{fill:#d1b7e5;}.cls-11{fill:#f7ce21;}.cls-13{stroke-width:5px;}</style></defs><polygon class="cls-1" points="948.56 832.74 629.24 832.74 309.92 832.74 309.92 758.11 309.92 683.48 629.24 683.48 948.56 683.48 948.56 758.11 948.56 832.74"/><path class="cls-2" d="M508.3,308.68S481.42,310.6,452,327,390.4,374.3,380,432.24l-14.56,82.61-14.57,82.62-22,19.11-22,19.11,17.31,75.61,17.3,75.6,59.9-51.71,59.9-51.71H904.53L889,662.56l-15.51-20.92L899,588.2l25.49-53.45s6.09-12.07,6.36-30.74-5.3-43.93-28.59-70.32l-43.58-51-43.57-51s-.53-.59-1.55-1.63-2.55-2.55-4.53-4.39a159.28,159.28,0,0,0-61.32-35.49,161.18,161.18,0,0,0-70.69-5.6l-84.36,12Z"/><path class="cls-3" d="M904.53,683.48,889,662.56l-15.51-20.92-18.26,21.28L837,684.2l33.77-.36Z"/><polygon class="cls-4" points="567.75 312.78 579.16 331.95 590.57 351.11 597.03 326.5 603.5 301.9 585.62 307.34 567.75 312.78"/><polygon class="cls-2" points="524.16 306.46 523.92 358.51 523.68 410.56 557.17 380.31 590.66 350.07 575.51 325.72 560.36 301.38 542.26 303.92 524.16 306.46"/><polygon class="cls-2" points="604.71 295.02 597.64 323.07 590.57 351.11 632.62 374.49 674.66 397.88 659.59 343.6 644.51 289.32 624.61 292.17 604.71 295.02"/><path class="cls-3" d="M645.17,223.66l-26-.95-26-1a82.35,82.35,0,0,0,3.25,21.35,72.62,72.62,0,0,0,14,26.35,83.14,83.14,0,0,0,11.08,11.13,57.13,57.13,0,0,0,10.39,6.84,87.08,87.08,0,0,0,8.21-15.79,90.59,90.59,0,0,0,6.36-33.16A88.39,88.39,0,0,0,645.17,223.66Z"/><path class="cls-5" d="M614.38,273.74l-.77-.77-.44-.46a63.85,63.85,0,0,1-9.26-14.12A98.54,98.54,0,0,1,598,242.58c-.21-.74-1.53-6-2.74-11s-2.32-9.86-2.13-9.85l-45.77-1.87L501.59,218q-.75,2.53-1.37,5.13t-1.09,5.27c-3.89,22.37.42,44,10.8,60.9s26.82,29.11,47.19,32.66a69.78,69.78,0,0,0,42.1-5.91,80.64,80.64,0,0,0,32.53-28.65c-.51.77-3.84-1.66-7.54-4.78S616.41,275.72,614.38,273.74Z"/><path class="cls-6" d="M591.15,269.49a10.43,10.43,0,1,1-1.74-7.8A10.39,10.39,0,0,1,591.15,269.49Z"/><path class="cls-6" d="M537.64,287.48a10.45,10.45,0,1,1-1.75-7.8A10.36,10.36,0,0,1,537.64,287.48Z"/><path class="cls-7" d="M542.48,290.5a17.11,17.11,0,0,0,8.41,1.58c4.7-.35,10.39-3,14.34-12.2"/><path class="cls-8" d="M525.76,263.26a4.21,4.21,0,1,1-.71-3.15A4.22,4.22,0,0,1,525.76,263.26Z"/><path class="cls-8" d="M568.63,253.09a4.23,4.23,0,1,1-.71-3.14A4.22,4.22,0,0,1,568.63,253.09Z"/><polyline class="cls-7" points="522.11 239 545.35 233.88 568.59 228.75"/><polyline class="cls-7" points="533.98 236.38 537.51 256.03 541.04 275.67 543.77 274.95 546.5 274.24"/><path class="cls-9" d="M586.16,160.12c-18.54-3.23-36.79,1.51-51.85,11.93a85.16,85.16,0,0,0-32.72,46l71.79,2.81,71.78,2.82a81.76,81.76,0,0,0-19.88-41.79A68.63,68.63,0,0,0,586.16,160.12Z"/><polyline class="cls-7" points="607.93 253.04 614.82 249.08 621.71 245.12"/><path class="cls-3" d="M529.15,219.15A38.58,38.58,0,0,1,522.7,241a33.79,33.79,0,0,1-17,13.26,31,31,0,0,1-8.07,1.62,33,33,0,0,1-7.37-.33,33.51,33.51,0,0,1-16.76-7.67,30.29,30.29,0,0,1-10.62-23.66,28.84,28.84,0,0,1,1.37-8.11,32.72,32.72,0,0,1,10-14.65c4.68-3.88,10.49-6.28,16.72-5.72a22.09,22.09,0,0,1,10.39,3.83,29.3,29.3,0,0,1,5.51,4.86c-.64,1.29-1.28,2.65-1.9,4.09s-1.23,3-1.8,4.56q-.46,1.29-.87,2.55c-.28.83-.53,1.65-.76,2.45l13.79.56Z"/><polyline class="cls-7" points="512.95 193.82 575.76 198.02 638.57 202.21"/><polyline class="cls-7" points="532 195.44 529.94 207.27 527.88 219.1"/><polyline class="cls-7" points="557.12 197.19 555.17 208.37 553.23 219.55"/><polyline class="cls-7" points="587.78 199.41 585.87 210.4 583.95 221.38"/><polyline class="cls-7" points="619.07 201.33 617.26 211.73 615.45 222.12"/><path class="cls-10" d="M579,160a10.32,10.32,0,0,1,4.4,1.24c1.42.7,2.79,1.55,4.08,2.2a61.61,61.61,0,0,1,24.64,23.4,74.81,74.81,0,0,1,10.37,32.59l10.75.1,10.76.11c-.27-1.35-.64-3-1.14-4.85s-1.13-4-1.93-6.2a89.29,89.29,0,0,0-12.15-22.78A67.24,67.24,0,0,0,610,168.1a49.73,49.73,0,0,0-9.29-4.31,66.38,66.38,0,0,0-9.9-2.63q-2.93-.56-5.89-.84C583,160.13,581,160,579,160Z"/><path class="cls-10" d="M648.33,297.24H615.52a12.94,12.94,0,0,1-12.94-12.94V233.37a12.94,12.94,0,0,1,12.94-12.93h32.81a12.94,12.94,0,0,1,12.94,12.93V284.3a12.94,12.94,0,0,1-12.94,12.94Z"/><path class="cls-9" d="M751.93,809.1H717.45V788.32a15.86,15.86,0,0,1,15.85-15.85h2.78a15.84,15.84,0,0,1,15.85,15.85V809.1Z"/><path class="cls-10" d="M638.26,280.05H625.59a9.42,9.42,0,0,1-9.41-9.41V247a9.42,9.42,0,0,1,9.41-9.42h12.67a9.42,9.42,0,0,1,9.41,9.42v23.6a9.42,9.42,0,0,1-9.41,9.41Z"/><path class="cls-7" d="M467.86,528.48q-1.64,38.74-3.25,77.5l-3.24,77.5"/><path class="cls-4" d="M576.41,683.48l7.12-166.71,7.13-166.7a.41.41,0,0,1,.38-.38.4.4,0,0,1,.44.31l51.24,166.74L694,683.48H576.41Z"/><path class="cls-5" d="M861.2,666.66l-56.64-27.61-56.64-27.6-21.35,29.81-21.35,29.82c-2.47,3.15-5,6.26-7.54,9.36s-5.1,6.17-7.66,9.25a40.87,40.87,0,0,0-7.77,14,30,30,0,0,0,1.39,21.33l7.64,21.08,7.63,21.07a39.14,39.14,0,0,0,3.51,7.42c2.16,3.48,5.28,6.93,9.26,7.25a7.57,7.57,0,0,0,1.43,0,5.94,5.94,0,0,0,2.12-.61,8.07,8.07,0,0,0,3.8-5.19,20.87,20.87,0,0,0,.34-8.86l-1.3-14.38-1.31-14.38a9.46,9.46,0,0,1,3.23-8l11.72-10.12,11.72-10.13a4.87,4.87,0,0,1,7.34,1.14l9.46,15.44,9.45,15.44a8.6,8.6,0,0,1,1.24,3.71,8.75,8.75,0,0,1-.52,3.88l-13.3,35.11-13.3,35.13a32.53,32.53,0,0,0-1.88,7.45,19.53,19.53,0,0,0,.41,7.61,7.71,7.71,0,0,0,4.94,5.3,9,9,0,0,0,7.3-.69,21,21,0,0,0,6.7-6.46c1.85-2.6,3.45-5.43,5.17-7.89l4.95-7.49,4.94-7.48a27.55,27.55,0,0,0,5.81,4.38,21.83,21.83,0,0,0,11.67,2.92,19.61,19.61,0,0,0,4.12-.61A22.25,22.25,0,0,0,801.2,816a14.45,14.45,0,0,0,2.8,2.68,13.43,13.43,0,0,0,6.4,2.55,11.18,11.18,0,0,0,9.93-4.06l20.15-24.88,20.15-24.87A24.17,24.17,0,0,0,866,750.34l-.87-11.75q-.45-5.88-.88-11.75l-1.51-30.09Z"/><polyline class="cls-7" points="776.33 810.4 786.94 791.43 797.55 772.47"/><polyline class="cls-7" points="801.2 815.98 815.6 791.86 830 767.74"/><path class="cls-9" d="M909.12,809.1H874.64V788.32a15.86,15.86,0,0,1,15.85-15.85h2.78a15.84,15.84,0,0,1,15.85,15.85V809.1Z"/><path class="cls-11" d="M901.63,747.84a9.76,9.76,0,1,1-2.86-6.89A9.69,9.69,0,0,1,901.63,747.84Z"/><path class="cls-11" d="M901.63,707.45a9.76,9.76,0,1,1-2.86-6.89A9.69,9.69,0,0,1,901.63,707.45Z"/><path class="cls-11" d="M751.93,747.84a9.76,9.76,0,1,1-2.86-6.89A9.69,9.69,0,0,1,751.93,747.84Z"/><path class="cls-9" d="M610.81,740.23a7.24,7.24,0,1,1-2.12-5.13A7.22,7.22,0,0,1,610.81,740.23Z"/><path class="cls-12" d="M658.81,746.12H628a6,6,0,0,1-6-6V739a6,6,0,0,1,6-6h30.77a6,6,0,0,1,6,6v1.06a6,6,0,0,1-6,6Z"/><path class="cls-9" d="M610.81,779.56a7.24,7.24,0,1,1-2.12-5.13A7.22,7.22,0,0,1,610.81,779.56Z"/><path class="cls-12" d="M658.81,785.45H628a6,6,0,0,1-6-6v-1.06a6,6,0,0,1,6-6h30.77a6,6,0,0,1,6,6v1.06a6,6,0,0,1-6,6Z"/><path class="cls-2" d="M564.79,809.86H493.48a6.91,6.91,0,0,1-6.91-6.92V709.51a6.9,6.9,0,0,1,6.91-6.91h71.31a6.91,6.91,0,0,1,6.91,6.91v93.43a6.93,6.93,0,0,1-6.91,6.92Z"/><path class="cls-4" d="M557,799.86H501.31a5.94,5.94,0,0,1-5.95-6V718.54a5.94,5.94,0,0,1,5.95-5.95H557a5.94,5.94,0,0,1,5.95,5.95v75.37a5.94,5.94,0,0,1-5.95,6Z"/><path class="cls-3" d="M275.44,421.7c1.06,2.1.63,4.71-.93,7.24a21,21,0,0,1-17.69,9c-3-.21-5.33-1.4-6.4-3.49s-.64-4.71.92-7.24a21,21,0,0,1,17.69-9C272,418.43,274.37,419.61,275.44,421.7Z"/><path class="cls-13" d="M274.74,422.4l-8.51-38.66-8.5-38.66a.7.7,0,0,1,1.19-.62l16.26,11,16.26,11"/><path class="cls-3" d="M876.3,290.19c.76,1.86.2,4.05-1.32,6.09a17.92,17.92,0,0,1-15.71,6.39c-2.51-.4-4.44-1.58-5.2-3.44s-.2-4.06,1.32-6.1a17.93,17.93,0,0,1,15.72-6.39C873.61,287.14,875.54,288.32,876.3,290.19Z"/><path class="cls-3" d="M929.69,274c.76,1.86.2,4.06-1.32,6.09a18,18,0,0,1-15.71,6.4c-2.51-.41-4.44-1.59-5.2-3.45s-.2-4.05,1.32-6.09a17.93,17.93,0,0,1,15.72-6.39C927,270.92,928.93,272.1,929.69,274Z"/><path class="cls-13" d="M875.73,290.19l.14-32.49.15-32.49a5.9,5.9,0,0,1,1.13-3.47,5.24,5.24,0,0,1,2.88-2L901.37,214l21.35-5.73a5,5,0,0,1,4.56,1,5.78,5.78,0,0,1,2,4.49l-.14,30.09L929,274"/><path class="cls-3" d="M324.42,558.81c.76,1.87.2,4.06-1.31,6.1a18,18,0,0,1-15.72,6.39c-2.51-.4-4.44-1.58-5.19-3.45s-.2-4.05,1.31-6.09a18,18,0,0,1,15.72-6.39C321.74,555.77,323.67,557,324.42,558.81Z"/><path class="cls-3" d="M377.81,542.59c.76,1.86.2,4.06-1.31,6.09a18,18,0,0,1-15.72,6.4c-2.51-.41-4.44-1.59-5.19-3.45s-.2-4,1.31-6.09a18,18,0,0,1,15.72-6.39C375.13,539.55,377.06,540.73,377.81,542.59Z"/><path class="cls-13" d="M323.85,558.81l.15-32.48.14-32.49a6,6,0,0,1,1.13-3.47,5.24,5.24,0,0,1,2.88-2l21.35-5.74,21.34-5.74a5,5,0,0,1,4.56,1,5.78,5.78,0,0,1,2,4.49l-.14,30.09-.13,30.08"/><path class="cls-3" d="M809.87,434.25c.84,2.06.22,4.49-1.46,6.75A19.85,19.85,0,0,1,791,448.09c-2.78-.44-4.92-1.75-5.76-3.82s-.22-4.49,1.46-6.75a19.93,19.93,0,0,1,17.43-7.09C806.9,430.88,809,432.19,809.87,434.25Z"/><polyline class="cls-13" points="809.13 434.25 809.13 403.55 809.13 372.85"/><path class="cls-3" d="M551.08,517a6.35,6.35,0,1,1-1.86-4.5A6.34,6.34,0,0,1,551.08,517Z"/><path class="cls-3" d="M546.64,607.67a6.38,6.38,0,1,1-1.87-4.5A6.32,6.32,0,0,1,546.64,607.67Z"/><polygon class="cls-10" points="346.21 807.2 221.78 807.2 97.34 807.2 74.39 704.25 51.44 601.3 175.88 601.3 300.32 601.3 323.27 704.25 346.21 807.2"/><polygon class="cls-10" points="452.45 832.74 274.89 832.74 97.34 832.74 97.34 819.97 97.34 807.2 274.89 807.2 452.45 807.2 452.45 819.97 452.45 832.74"/><path class="cls-2" d="M873.51,641.64l-6.16,12.51-6.15,12.51-56.64-27.61-56.64-27.6c8.48-16.76,15.75-32,23-47.25s14.54-30.48,23-47.24l-30.76-33.41-30.76-33.41"/><path class="cls-7" d="M189.38,681.46a26.68,26.68,0,0,1-.23-7.13c.4-4,1.82-8.77,5.92-12.06"/><path class="cls-12" d="M189.53,680.38s.93-1.07,2.18-2.4a46.37,46.37,0,0,1,4.08-3.92,18.68,18.68,0,0,1,8.12-3.64,21.37,21.37,0,0,1,4.85-.42,20.23,20.23,0,0,1,11.93,4.77,26.21,26.21,0,0,1,4.94,5.2c3.55,5.09,4.66,11,4.39,17a65.37,65.37,0,0,1-3.88,18c-1,2.82-2.07,5.6-3.24,8.35s-2.42,5.48-3.69,8.17a39.6,39.6,0,0,1-3.06,5.65,13.62,13.62,0,0,1-4.59,4.37,14.72,14.72,0,0,1-6.61,1.74,13,13,0,0,1-9.28-3.33,14.21,14.21,0,0,1-2.48-2.78,16.65,16.65,0,0,1-2.72,2.79,13.68,13.68,0,0,1-4.95,2.57,14.27,14.27,0,0,1-9.31-.75,23,23,0,0,1-5.26-3.1,13.63,13.63,0,0,1-3.63-4.36,84.19,84.19,0,0,1-6-13.63,134.94,134.94,0,0,1-5.18-16.2,27.45,27.45,0,0,1-.18-12.25,29.61,29.61,0,0,1,1.7-5.52,22.43,22.43,0,0,1,4.78-7.09,25.51,25.51,0,0,1,3.49-3,13.59,13.59,0,0,1,5.48-2.31c4.28-.74,8.8.78,12.25,2.49A35.57,35.57,0,0,1,189.53,680.38Z"/><path class="cls-4" d="M204.76,695.16c.27.48.55.93.81,1.36l.77,1.19a35.55,35.55,0,0,1,4.19,8.71,30.78,30.78,0,0,1,1.38,9.59.41.41,0,0,0,.74.25,30.87,30.87,0,0,0,5-9.73,26.62,26.62,0,0,0,1.06-10.93,21.36,21.36,0,0,0-2.51-7.57,11.79,11.79,0,0,0-5.63-5.42,6.13,6.13,0,0,0-4-.1,6.44,6.44,0,0,0-3.32,2.31,6.15,6.15,0,0,0-.76,5.26A20.22,20.22,0,0,0,204.76,695.16Z"/><path class="cls-3" d="M323.18,701.11l30.53,24.48,30.53,24.47L362.9,768.48,341.57,786.9q-4.6-21.45-9.2-42.89T323.18,701.11Z"/></svg>