<svg id="Layer_2" data-name="Layer 2" xmlns="http://www.w3.org/2000/svg" viewBox="0 0 1000 1000"><defs><style>.cls-1{fill:#104fc1;}.cls-1,.cls-10,.cls-2,.cls-3,.cls-4,.cls-5,.cls-6,.cls-7,.cls-8,.cls-9{stroke:#000;stroke-linecap:round;stroke-miterlimit:10;stroke-width:3px;}.cls-3{fill:#fff8f8;}.cls-4{fill:none;}.cls-5{fill:#14af6c;}.cls-6{fill:#f7ce21;}.cls-7{fill:#ef3f3f;}.cls-8{fill:#ffc0c0;}.cls-9{fill:#f9851c;}.cls-10{fill:#d1b7e5;}.cls-11{fill:#231f20;}</style></defs><path class="cls-1" d="M237.33,771.14c10.55,0,123.67,1.68,234.16,3.35s218.34,3.36,218.34,3.36L727.42,787,765,796.23a92.65,92.65,0,0,0,24.7,1.66c14.13-.87,31.82-5.15,46-18.78l1.07-1,1.08-1C841,774.36,851.54,764,859,745s11.72-46.69,2.29-84c-7.28-28.8-15.48-57.67-24.37-86.33s-18.47-57.12-28.49-85.09A194.33,194.33,0,0,0,783.53,442a191.87,191.87,0,0,0-37.06-38.83,280.73,280.73,0,0,0-23.91-17c-14.25-9.16-33.83-20.24-56-28.51C592.72,330,525.73,333.93,477.2,344.77s-78.58,28.59-78.58,28.59a280.68,280.68,0,0,0-40.17,28.81,267.55,267.55,0,0,0-44.61,49.09,199.37,199.37,0,0,0-25.14,46.31c-9,22.82-18.38,55.89-27.89,107.85-1.42,7.76-8,49.19-13.86,88.68S235.92,771.14,237.33,771.14Z"/><path class="cls-2" d="M560.85,744.43l1.45,15.73,1.44,15.74,61.71.88,61.7.88q-6.76-2.14-13.64-4.38t-13.82-4.59q-7.43-2.49-14.7-5t-14.41-5.08l-34.87-7.08Z"/><polygon class="cls-3" points="529.77 406.1 486.75 590.11 443.73 774.13 503.74 775.01 563.74 775.9 546.76 591 529.77 406.1"/><path class="cls-3" d="M517.78,366.55l6,19.78,6,19.77,14.38-19.17,14.37-19.17-20.37-.6Z"/><path class="cls-4" d="M529.77,406.1l-44.14,33-44.14,33q8.19-31.67,16.36-63.32l16.35-63.32q4.4-1.08,9.11-2.06c3.15-.66,6.39-1.27,9.73-1.85q4.26-.72,8.35-1.29t8-1q5.1,16.71,10.21,33.42Z"/><path class="cls-4" d="M529.77,406.1l25.54-34.05q12.78-17,25.54-34.06,4.1.35,8.4.82t8.81,1.12c3.44.49,6.77,1,10,1.61s6.36,1.2,9.39,1.84q-4,35.75-8,71.47t-8,71.46L565.6,446.2Z"/><path class="cls-5" d="M503.24,546.44h-2l-1.64-35.51L498,475.43a3.49,3.49,0,0,0-3.5-3.33H479.61a3.46,3.46,0,0,0-2.41,1,3.51,3.51,0,0,0-1.09,2.36l-1.74,35.51-1.75,35.51h-2a24.89,24.89,0,0,0-24.9,24.9V721.29a24.89,24.89,0,0,0,24.9,24.9h32.61a24.89,24.89,0,0,0,24.9-24.9V571.34a24.89,24.89,0,0,0-24.9-24.9Z"/><polygon class="cls-6" points="445.73 578.15 445.73 648.66 445.73 719.16 486.94 719.16 528.14 719.16 528.14 648.66 528.14 578.15 486.94 578.15 445.73 578.15"/><path class="cls-4" d="M483,611.89a15.85,15.85,0,0,1-.73-4.22,10.33,10.33,0,0,1,2.51-7.66"/><path class="cls-7" d="M483,612.32s.47-.71,1.1-1.6a27,27,0,0,1,2.1-2.67,11.12,11.12,0,0,1,4.52-2.84,13.13,13.13,0,0,1,2.85-.66,12.25,12.25,0,0,1,7.49,1.84,16.57,16.57,0,0,1,3.37,2.68,16.18,16.18,0,0,1,4,9.77,39.24,39.24,0,0,1-.81,11c-.34,1.75-.76,3.5-1.23,5.23s-1,3.46-1.51,5.16a24.92,24.92,0,0,1-1.35,3.61,8,8,0,0,1-2.37,3,8.79,8.79,0,0,1-3.78,1.59,7.83,7.83,0,0,1-5.79-1.21,8.86,8.86,0,0,1-1.71-1.44,9.76,9.76,0,0,1-1.38,1.88,8.31,8.31,0,0,1-2.73,1.94,8.62,8.62,0,0,1-5.6.33,14.28,14.28,0,0,1-3.38-1.41,8.34,8.34,0,0,1-2.52-2.29,50.67,50.67,0,0,1-4.68-7.6,80.2,80.2,0,0,1-4.42-9.19,16.49,16.49,0,0,1-1.13-7.27,17.68,17.68,0,0,1,.55-3.43,13.49,13.49,0,0,1,2.25-4.61,15.43,15.43,0,0,1,1.83-2.08,8.17,8.17,0,0,1,3.06-1.84,12.6,12.6,0,0,1,7.49.46A21.94,21.94,0,0,1,483,612.32Z"/><path class="cls-3" d="M521,600.75a5.21,5.21,0,1,1-1.52-3.67A5.18,5.18,0,0,1,521,600.75Z"/><path class="cls-3" d="M478.31,592a5.21,5.21,0,1,1-1.53-3.67A5.15,5.15,0,0,1,478.31,592Z"/><polyline class="cls-3" points="475.93 481.11 487.05 481.11 498.16 481.11"/><polyline class="cls-3" points="475.93 489.1 487.05 489.1 498.16 489.1"/><path class="cls-8" d="M645.88,611.43,638.23,685l-7.65,73.58c-24.63-5.76-49.37-10.37-74.11-15s-49.49-9.21-74.11-15l-2.63-.58-5.45-1.18-5.81-1.29-3.16-.7a99.09,99.09,0,0,1-16.24-4.79,44.17,44.17,0,0,1-16.7-11.46,36,36,0,0,1-2.88-3.76,40.05,40.05,0,0,1-3.14-5.65L426,696l-.32-3.22c-.89-.69-1.78-1.39-2.68-2.11s-1.8-1.47-2.71-2.23q-3.26-2.73-6.21-5.46c-2-1.81-3.84-3.62-5.62-5.41-1.79-1.57-5.39-4.78-9.38-8.77a112.94,112.94,0,0,1-11.73-13.45,20.35,20.35,0,0,1-2.06-3.44,14.13,14.13,0,0,1-1.32-5.37,15.73,15.73,0,0,1,.29-4.07,6.89,6.89,0,0,1,2.95-4.53,7,7,0,0,1,4.62-.86,10.08,10.08,0,0,1,2.7.74,34.13,34.13,0,0,1-5.94-11.31c-1-3.56-.84-6.76.63-9.13a7.72,7.72,0,0,1,.84-1.13,7.19,7.19,0,0,1,1.83-1.49,9.53,9.53,0,0,1,7.15-.64,21.84,21.84,0,0,1,8.29,4.46,32.57,32.57,0,0,1-2.5-6.75c-.79-3.33-1-7.14,1.24-9.63a5.49,5.49,0,0,1,.63-.6,6.91,6.91,0,0,1,1.65-1.05c3.88-1.72,9.86.88,15.16,4.16a96.36,96.36,0,0,1,11.09,8.21,59.34,59.34,0,0,0,9.3,6.36A75.6,75.6,0,0,0,457.05,625a88.44,88.44,0,0,0,26.23,4.44,92.67,92.67,0,0,0,26.44-3.36l17.7-4.88,17.7-4.88a6.25,6.25,0,0,0,4.36-7.66l-2-7.15-1.95-7.14a6.1,6.1,0,0,0-5.9-4.51l-5.74.12-5.73.12-.39-13.37-.38-13.37h39.23A46.72,46.72,0,0,1,592,570.8l26.94,20.31Z"/><path class="cls-4" d="M407.36,618.58l14.81,14.49L437,647.55a36.31,36.31,0,0,0,17.57,9.53l31.59,7,31.59,7"/><path class="cls-4" d="M394.56,637.82l18.86,17.88,18.86,17.89a32.37,32.37,0,0,0,14.23,7.85l34.35,8.72,34.35,8.72"/><path class="cls-4" d="M425.71,692.78c6.54,3.11,12.53,5.66,17.77,7.72s9.74,3.63,13.28,4.8c0,0,3.46,1.15,12.35,3.45s23.2,5.78,44.9,10.41h0"/><path class="cls-4" d="M690.64,550.74q6.6,21.1,13.21,42.21t13.21,42.21L681.47,623.3l-35.59-11.87"/><path class="cls-4" d="M364.13,558.66q-3.58,53.51-7.16,107t-7.16,107"/><polyline class="cls-2" points="689.84 777.85 660.21 768.21 630.58 758.58"/><path class="cls-2" d="M413.21,725.84a5.85,5.85,0,1,1-11.7,0,5.85,5.85,0,1,1,11.7,0Z"/><path class="cls-2" d="M437.42,581.58a5.87,5.87,0,1,1-1.72-4.13A5.83,5.83,0,0,1,437.42,581.58Z"/><path class="cls-6" d="M334.62,777.85H140a6.73,6.73,0,0,1-6.71-6.71h0a6.73,6.73,0,0,1,6.71-6.71H334.62a6.73,6.73,0,0,1,6.71,6.71h0a6.73,6.73,0,0,1-6.71,6.71Z"/><path class="cls-9" d="M275.75,678.79H149.2a43.22,43.22,0,0,1,43.21-43.22h40.12a43.22,43.22,0,0,1,43.22,43.22Z"/><path class="cls-9" d="M254.14,764.38H170.81a21.61,21.61,0,0,1-21.61-21.61H275.75a21.61,21.61,0,0,1-21.61,21.61Z"/><path class="cls-3" d="M196.06,652.78a2.51,2.51,0,0,1-2.45.64,7.28,7.28,0,0,1-3.31-1.62,7.36,7.36,0,0,1-2.24-2.94,2.16,2.16,0,0,1,2.61-3.17,8,8,0,0,1,5.55,4.56A2.52,2.52,0,0,1,196.06,652.78Z"/><path class="cls-3" d="M207,651.61a2.5,2.5,0,0,1-1.81-1.77,8,8,0,0,1,1-7.11,2.17,2.17,0,0,1,4.07.6,8.07,8.07,0,0,1-1.05,7.11A2.5,2.5,0,0,1,207,651.61Z"/><path class="cls-3" d="M216.7,657.09a2.51,2.51,0,0,1-.1-2.54,7.24,7.24,0,0,1,2.29-2.88,7.44,7.44,0,0,1,3.35-1.56,2.53,2.53,0,0,1,2.44.7,2.49,2.49,0,0,1,.1,2.53,8,8,0,0,1-5.65,4.44A2.49,2.49,0,0,1,216.7,657.09Z"/><path class="cls-3" d="M225.23,642.78a2.53,2.53,0,0,1,2.27-1.15,7.49,7.49,0,0,1,3.58.89,7.25,7.25,0,0,1,2.8,2.4,2.49,2.49,0,0,1,.39,2.5,2.53,2.53,0,0,1-2.26,1.15,7.5,7.5,0,0,1-3.59-.89,7.4,7.4,0,0,1-2.8-2.4A2.52,2.52,0,0,1,225.23,642.78Z"/><polygon class="cls-6" points="275.75 691.15 212.47 691.15 149.2 691.15 149.2 684.97 149.2 678.79 212.47 678.79 275.75 678.79 275.75 684.97 275.75 691.15"/><path class="cls-5" d="M268.75,692.15a29.15,29.15,0,0,0-7.47,1,22,22,0,0,0-6.06,2.56,21.69,21.69,0,0,0-6.06-2.56,29.8,29.8,0,0,0-14.93,0,21.82,21.82,0,0,0-6.06,2.56,21.82,21.82,0,0,0-6.06-2.56,29.8,29.8,0,0,0-14.93,0,21.82,21.82,0,0,0-6.06,2.56,21.82,21.82,0,0,0-6.06-2.56,29.8,29.8,0,0,0-14.93,0,21.69,21.69,0,0,0-6.06,2.56A21.89,21.89,0,0,0,168,693.1a29,29,0,0,0-7.46-1,25.85,25.85,0,0,0-13.37,3.41c-3.42,2.1-5.54,5-5.54,8.21s2.12,6.11,5.54,8.21a25.85,25.85,0,0,0,13.37,3.41,29,29,0,0,0,7.46-.95,21.89,21.89,0,0,0,6.07-2.56,21.69,21.69,0,0,0,6.06,2.56,29.8,29.8,0,0,0,14.93,0,21.82,21.82,0,0,0,6.06-2.56,21.82,21.82,0,0,0,6.06,2.56,29.8,29.8,0,0,0,14.93,0,21.82,21.82,0,0,0,6.06-2.56,21.82,21.82,0,0,0,6.06,2.56,29.8,29.8,0,0,0,14.93,0,21.69,21.69,0,0,0,6.06-2.56,22,22,0,0,0,6.06,2.56,29.15,29.15,0,0,0,7.47.95A25.85,25.85,0,0,0,282.12,712c3.42-2.1,5.54-5,5.54-8.21s-2.12-6.11-5.54-8.21A25.85,25.85,0,0,0,268.75,692.15Z"/><path class="cls-7" d="M275.61,742.77H150.05a6.37,6.37,0,0,1-6.38-6.37V721.76a6.37,6.37,0,0,1,6.38-6.37H275.61a6.37,6.37,0,0,1,6.37,6.37V736.4a6.37,6.37,0,0,1-6.37,6.37Z"/><polygon class="cls-6" points="281.22 753.68 274.76 753.68 268.3 753.68 268.3 684.71 268.3 615.73 274.76 615.73 281.22 615.73 281.22 684.71 281.22 753.68"/><polygon class="cls-6" points="294.14 753.68 287.68 753.68 281.22 753.68 281.22 675.03 281.22 596.39 287.68 596.39 294.14 596.39 294.14 675.03 294.14 753.68"/><polygon class="cls-6" points="307.07 753.68 300.61 753.68 294.14 753.68 294.14 694.38 294.14 635.07 300.61 635.07 307.07 635.07 307.07 694.38 307.07 753.68"/><polygon class="cls-6" points="346.06 744.01 339.6 744.01 333.14 744.01 333.14 684.71 333.14 625.4 339.6 625.4 346.06 625.4 346.06 684.71 346.06 744.01"/><polygon class="cls-6" points="320.22 753.68 313.76 753.68 307.3 753.68 307.3 684.71 307.3 615.73 313.76 615.73 320.22 615.73 320.22 684.71 320.22 753.68"/><polygon class="cls-6" points="333.14 753.68 326.68 753.68 320.22 753.68 320.22 679.87 320.22 606.06 326.68 606.06 333.14 606.06 333.14 679.87 333.14 753.68"/><path class="cls-10" d="M342.53,778.21l-35.5-.3-35.5-.3-8.18-47.56-8.19-47.56a3.21,3.21,0,0,1,.7-2.58,3.17,3.17,0,0,1,2.43-1.12h97a3.15,3.15,0,0,1,3.12,3.68q-4,23.94-8,47.87T342.53,778.21Z"/><path class="cls-5" d="M271.86,776.48h0a2.4,2.4,0,0,1-.37-2.85h0l23.67-42,23.68-42-25.64,16.39-25.63,16.38a2.36,2.36,0,0,1-1.78.32,2.36,2.36,0,0,1-.77-4.29l29.58-18.91,29.58-18.9a2.4,2.4,0,0,1,2.89.23h0a2.43,2.43,0,0,1,.75,1.36,2.35,2.35,0,0,1-.24,1.53h0l-24,42.6-24,42.59,33.19-17.64,33.18-17.64a2.33,2.33,0,0,1,1.8-.18,2.4,2.4,0,0,1,1.4,1.15,2.37,2.37,0,0,1,.17,1.8,2.32,2.32,0,0,1-1.15,1.39L311.4,757.4l-36.71,19.52a2.39,2.39,0,0,1-2.83-.44Z"/><path class="cls-2" d="M623.27,305.92l-26.53-13.15L570.2,279.63a90.64,90.64,0,0,0-6.31,23,79.2,79.2,0,0,0,9.16,49.52,83.31,83.31,0,0,0,8.14,12.06A95.88,95.88,0,0,0,596.56,352a100.2,100.2,0,0,0,21.3-30.56A97.27,97.27,0,0,0,623.27,305.92Z"/><path class="cls-8" d="M568.18,341.6c-.76-2-1.28-3.72-1.65-5.08s-.57-2.37-.71-3.1c-.1-.53-.18-1-.25-1.47s-.12-.83-.16-1.16l.56.55c.2.19.43.4.68.61,0,0,.23.21.6.5s.87.68,1.4,1a21.52,21.52,0,1,0,9.77-39.09A22.46,22.46,0,0,0,564.9,301c.09-1.63.26-3.44.56-5.4a58.61,58.61,0,0,1,1.28-6.26c.5-1.89,1.06-3.65,1.65-5.27s1.2-3.1,1.81-4.43L524.92,257.2l-45.28-22.43q-1.9,2.21-3.69,4.54t-3.47,4.82c-14,20.8-18.94,44.77-15.68,66.74s14.74,41.9,33.67,54.62a77,77,0,0,0,45.07,13,88.91,88.91,0,0,0,45.65-14.26,83.86,83.86,0,0,1-5.35-7.42c-1.48-2.29-2.67-4.37-3.61-6.15-.52-1-1.17-2.27-1.87-3.78S568.91,343.56,568.18,341.6Z"/><path class="cls-7" d="M546.77,326.84a11.53,11.53,0,1,1,1.74-8.64A11.48,11.48,0,0,1,546.77,326.84Z"/><path class="cls-7" d="M484.77,320.94a11.52,11.52,0,1,1,1.74-8.65A11.51,11.51,0,0,1,484.77,320.94Z"/><path class="cls-4" d="M488.29,326.15a18.89,18.89,0,0,0,7.77,5.38c4.89,1.75,11.81,1.62,19.92-5.86"/><path class="cls-11" d="M483.67,291.19a4.64,4.64,0,0,1-8.41-1.7,4.64,4.64,0,0,1,3.66-5.45,4.65,4.65,0,0,1,4.75,7.15Z"/><path class="cls-11" d="M531.44,300.2a4.64,4.64,0,1,1,.7-3.48A4.64,4.64,0,0,1,531.44,300.2Z"/><polyline class="cls-4" points="490.89 265.11 516.61 270.38 542.33 275.65"/><polyline class="cls-4" points="504.03 267.8 498.76 289.18 493.5 310.56 496.57 311.06 499.64 311.57"/><path class="cls-9" d="M591.64,214.9c-17.43-11.7-38.13-15.25-58.13-11.61a93.55,93.55,0,0,0-53.87,31.48l71.82,35.57,71.81,35.58a90.17,90.17,0,0,0-1.54-51.22A77.26,77.26,0,0,0,591.64,214.9Z"/><polyline class="cls-4" points="571.07 317.8 579.79 316.91 588.51 316.01"/><path class="cls-2" d="M506.9,248.27a42.48,42.48,0,0,1-16.29,19.06,37.22,37.22,0,0,1-23.06,5.74,34.12,34.12,0,0,1-8.85-2A37.48,37.48,0,0,1,438,252.18a33.34,33.34,0,0,1-.07-28.6,31.88,31.88,0,0,1,5-7.56,36,36,0,0,1,16.66-10.27c6.46-1.81,13.39-1.62,19.42,1.74a24.53,24.53,0,0,1,8.75,8.52,32.5,32.5,0,0,1,3.36,7.38c-1.22,1-2.48,2.1-3.75,3.27s-2.56,2.43-3.86,3.78c-.7.73-1.38,1.46-2,2.18s-1.27,1.43-1.87,2.13l13.65,6.76Z"/><polyline class="cls-4" points="501.57 215.79 563.91 248.39 626.25 281"/><polyline class="cls-4" points="520.42 225.65 513.03 236.65 505.65 247.65"/><polyline class="cls-4" points="544.95 238.69 537.97 249.09 530.99 259.48"/><polyline class="cls-4" points="574.85 254.7 567.98 264.92 561.12 275.13"/><polyline class="cls-4" points="605.51 270.7 599.02 280.36 592.53 290.02"/><path class="cls-2" d="M690.81,551.27l13.13,42,13.12,41.94-17.71-5.87-17.71-5.87,4.47-36.06q2.22-18,4.46-36.07a.13.13,0,0,1,.24,0Z"/></svg>