<svg id="Layer_2" data-name="Layer 2" xmlns="http://www.w3.org/2000/svg" xmlns:xlink="http://www.w3.org/1999/xlink" viewBox="0 0 1000 1000"><defs><style>.cls-1,.cls-7{fill:none;}.cls-2{fill:#ffc0c0;}.cls-10,.cls-11,.cls-12,.cls-2,.cls-3,.cls-4,.cls-5,.cls-6,.cls-7,.cls-9{stroke:#000;stroke-linecap:round;stroke-miterlimit:10;stroke-width:3px;}.cls-3{fill:#104fc1;}.cls-4{fill:#f7ce21;}.cls-6{fill:#ef3f3f;}.cls-8{fill:#231f20;}.cls-9{fill:#f9851c;}.cls-10{fill:#fff8f8;}.cls-11{fill:#14af6c;}.cls-12{fill:#d1b7e5;}.cls-13{clip-path:url(#clip-path);}</style><clipPath id="clip-path"><path class="cls-1" d="M384.06,256.32a72.83,72.83,0,1,1-21.33-51.5A72.61,72.61,0,0,1,384.06,256.32Z"/></clipPath></defs><path class="cls-2" d="M556.06,602.16a210.61,210.61,0,0,0,2.36,34.42,194.79,194.79,0,0,0,10.15,39c.89,2.38,1.82,4.7,2.77,7s1.93,4.48,2.93,6.63q11.6,38.51,23.2,77l23.19,77,62.87-13.8,62.87-13.81L724.2,702.06Q713.11,645.3,702,588.54l-73,6.81Z"/><path class="cls-3" d="M632.88,67.22A126.33,126.33,0,0,0,606,68.28a132,132,0,0,0-26.14,6.63l-71.52,26.15L436.84,127.2l-1.85.71-1.84.76c-.06.28-2.78,12.07-1.92,41.31s5.28,75.9,19.5,145.91h0l3.6,14q1.8,7,3.59,14L561,317.59l103.08-26.23-24.3-68.19L615.48,155a136.88,136.88,0,0,1-5-17.4A125.52,125.52,0,0,1,608,119.66c-1.63-24.56,4.34-37.64,10.84-44.6S632.39,67.27,632.88,67.22Z"/><path class="cls-2" d="M433.15,128.67a45,45,0,0,0-4.85,2.16c-1.31.68-2.31,1.29-3,1.7-20.89,13.26-32.64,46.82-40.21,77.93s-10.94,59.79-15.1,63.29c-1,.86-2.09,1.66-2.9,2.24s-1.37,1-1.37,1a49.43,49.43,0,0,1-4.57,2.71c-1.25.65-2.17,1.06-2.56,1.24-4.22,1.91-12.39,6.62-22.16,12.49s-21.14,12.9-31.79,19.49c-2.49,1.53-3.9,2.42-5,3.11s-1.92,1.18-3.2,1.93c-3.27,1.94-7.17,4.17-11.65,6.55s-9.52,4.91-15.09,7.49h0c-14.14,6.44-28.08,15.31-38.49,22.56s-17.27,12.91-17.27,12.91a9.59,9.59,0,0,0-2.29,1.78,8.06,8.06,0,0,0-2.35,5.08c0,.12,0,.23,0,.34V375a6.58,6.58,0,0,0,3.24,5.5,7,7,0,0,0,6.46.44l7.64-3.3,7.63-3.31c-2.65,3.47-6.25,8.25-10.07,13.51s-7.84,11-11.32,16.38c0,0-.44.62-1.13,1.76s-1.66,2.8-2.71,4.89a65.93,65.93,0,0,0-4.18,10.51,67.61,67.61,0,0,0-1.93,8.28,6.58,6.58,0,0,0,.87,4.5,6.47,6.47,0,0,0,3.57,2.82,5.7,5.7,0,0,0,3.91-.31,10.38,10.38,0,0,0,3.81-2.88c.51-.59-.52,1.29-1.39,3.88s-1.57,5.87-.42,8.08a5.28,5.28,0,0,0,1.33,1.62,7,7,0,0,0,1.37.88,9.25,9.25,0,0,0,2.39.29,5.76,5.76,0,0,0,2.75-.7,8,8,0,0,0,3.12-3.92c.63-1.39,1-2.54,1.49-2.47s.46.82.66,1.86a6.75,6.75,0,0,0,1.57,3.46,6.84,6.84,0,0,0,1.5,1.19,5.14,5.14,0,0,0,3.37.72,4.89,4.89,0,0,0,2.06-.81,5.78,5.78,0,0,0,1.09-.94l4.68-6.36,4.69-6.36a7.7,7.7,0,0,0,.44,2.11,6,6,0,0,0,2.31,3,5.63,5.63,0,0,0,2.58.91,7.64,7.64,0,0,0,1.81,0,8.64,8.64,0,0,0,5.28-2.85,13.38,13.38,0,0,0,2.06-2.9A72.28,72.28,0,0,1,265,427.3a70.13,70.13,0,0,1,25.24-19.25,106.28,106.28,0,0,1,13.77-5c9.12-2.79,18.06-6.15,27-9.4A278.57,278.57,0,0,1,358.29,385c10.86-2.71,24.18-7.51,40.1-16.27s34.42-21.48,55.63-40c-3.36-14.81-6.16-28.51-8.5-40.89s-4.22-23.43-5.72-32.94c-2.48-15.67-4.6-29.2-6.11-42.66a379.46,379.46,0,0,1-2.46-42.2c0-8.67.21-16.57.58-23.52S432.68,133.51,433.15,128.67Z"/><path class="cls-3" d="M664.08,291.36,561,317.59,457.92,343.83l-22.18,7.42-22.19,7.42,31.19,82.22,31.19,82.23,28.4-8.29,28.41-8.29,2.54,31,2.55,31,92.23-9.33,92.23-9.33c-1.82-36.33-5.9-93.91-14.76-145.92S685,305.44,664.08,291.36Z"/><polygon class="cls-4" points="376.92 370.92 408.6 452.22 440.28 533.52 458.11 528.32 475.93 523.12 444.74 440.89 413.55 358.67 395.24 364.8 376.92 370.92"/><path class="cls-4" d="M537.83,568.48,539.27,586l1.45,17.56,91.48-8.54,91.48-8.53s-.07-3.58-.28-10-.55-15.55-1.11-26.74l-92.23,9.33Z"/><path class="cls-5" d="M705.81,394.2l-50.27,15.64-50.27,15.65,53.53,9.62,53.52,9.61-3.26-25.26Z"/><path class="cls-5" d="M549.11,56.67l-21.25,2-21.26,2a65.55,65.55,0,0,0,4.84,16.49,57.79,57.79,0,0,0,13.85,19.28,57.2,57.2,0,0,0,10.57,7.61,59.91,59.91,0,0,0,9.56,4.31,68.77,68.77,0,0,0,4.79-13.33,71.68,71.68,0,0,0,2-14.59,70.63,70.63,0,0,0-.59-12.23A69.73,69.73,0,0,0,549.11,56.67Z"/><path class="cls-2" d="M528.87,99.46c-1.24-1-2.2-1.8-2.93-2.49s-1.26-1.23-1.62-1.63-.5-.56-.71-.81l-.54-.64.55.12.65.12.56.08c.34,0,.8.08,1.25.1a15.51,15.51,0,1,0-8.84-27.68,16.21,16.21,0,0,0-5.79,9.18c-.56-1-1.14-2.22-1.71-3.53A42.87,42.87,0,0,1,508.16,68c-.42-1.35-.74-2.64-1-3.86s-.43-2.36-.56-3.41l-36.28,3.43L434,67.55c-.22,1.39-.4,2.78-.54,4.19s-.24,2.84-.3,4.27a68.58,68.58,0,0,0,15.71,46.87c10.33,12.24,24.94,20.11,41.38,20.72a55.53,55.53,0,0,0,32.56-9.15,64.18,64.18,0,0,0,22.57-26.07,62.3,62.3,0,0,1-6.09-2.52c-1.78-.84-3.3-1.67-4.55-2.41-.7-.41-1.58-.94-2.58-1.61S530.06,100.39,528.87,99.46Z"/><path class="cls-6" d="M510.14,98.54a8.32,8.32,0,1,1-2.21-6A8.26,8.26,0,0,1,510.14,98.54Z"/><path class="cls-6" d="M469.88,118.45a8.3,8.3,0,1,1-2.21-6A8.26,8.26,0,0,1,469.88,118.45Z"/><path class="cls-7" d="M474,120.31a13.69,13.69,0,0,0,6.8.35c3.67-.79,7.87-3.49,10-11.16"/><path class="cls-8" d="M457.92,100.62a3.35,3.35,0,1,1-.89-2.4A3.32,3.32,0,0,1,457.92,100.62Z"/><path class="cls-8" d="M490.63,88a3.35,3.35,0,0,1-5.8,2.16,3.36,3.36,0,0,1,.18-4.74A3.35,3.35,0,0,1,490.63,88Z"/><polyline class="cls-7" points="452.45 81.89 470.22 75.36 488 68.83"/><polyline class="cls-7" points="461.53 78.56 466.42 93.66 471.3 108.77 473.38 107.91 475.45 107.06"/><path class="cls-9" d="M495.18,12.87a56.43,56.43,0,0,0-40.05,14.94A67.43,67.43,0,0,0,434,67.55l57.54-5.44,57.53-5.44a65,65,0,0,0-20.38-30.82A55.72,55.72,0,0,0,495.18,12.87Z"/><polyline class="cls-7" points="521.61 83.77 526.62 79.92 531.63 76.06"/><path class="cls-5" d="M455.88,65.49a30.67,30.67,0,0,1-2.75,17.87,26.84,26.84,0,0,1-12,12.27A24.58,24.58,0,0,1,435,97.77,26.92,26.92,0,0,1,415.1,94a24.05,24.05,0,0,1-10.9-17.51,22.79,22.79,0,0,1,.21-6.54,26,26,0,0,1,6.32-12.62,18.3,18.3,0,0,1,12.56-6.3A17.68,17.68,0,0,1,431.9,53a23,23,0,0,1,4.86,3.25c-.37,1.08-.73,2.22-1.06,3.42s-.65,2.47-.93,3.79q-.24,1.07-.42,2.1c-.12.68-.23,1.36-.33,2l10.93-1Z"/><polyline class="cls-7" points="440.28 47.59 490.88 43.93 541.48 40.27"/><polyline class="cls-7" points="455.59 46.49 455.23 56.03 454.88 65.58"/><polyline class="cls-7" points="475.58 45.18 475.24 54.2 474.9 63.23"/><polyline class="cls-7" points="499.98 43.65 499.65 52.52 499.32 61.38"/><polyline class="cls-7" points="524.86 41.82 524.54 50.21 524.23 58.6"/><path class="cls-7" d="M246.5,384.3s-4.27,3.43-10.33,11.33-13.93,20.27-21.12,38.15"/><path class="cls-7" d="M258.13,391.17a174.86,174.86,0,0,0-11.94,14.68c-6.69,9.09-14.8,21.65-20.5,35.59"/><path class="cls-7" d="M268.81,398.89s-4.71,5.79-10,13.09-11.17,16.13-13.5,22.22"/><path class="cls-2" d="M784.39,264.77,759.22,204.2l-25.17-60.56C723.41,117.94,709,100.58,693.37,89A111.52,111.52,0,0,0,645.81,68.8q-3.22-.57-6.45-1t-6.48-.62c-.49,0-7.52.89-14,7.84s-12.47,20-10.84,44.6a125.52,125.52,0,0,0,2.51,17.91,136.88,136.88,0,0,0,5,17.4l24.3,68.2,24.3,68.19-43.43,24.57-43.42,24.56c-5.81-2.2-13.65-.69-20,1.37a77.39,77.39,0,0,0-11.33,4.68l-26.37,12-26.36,12a21.52,21.52,0,0,0-4.79,3.15,12.36,12.36,0,0,0-4.5,7.72,11,11,0,0,0-.06,1.32,10.22,10.22,0,0,0,.14,1.51,9.79,9.79,0,0,0,1.08,2.42,6.85,6.85,0,0,0,2.37,2.32,7.59,7.59,0,0,0,5.21.68,19.67,19.67,0,0,0,4.15-1.37,16.8,16.8,0,0,0,1.81-.92c.52-.31.94-.6,1.28-.84l8.1-3.8L516,379c.3-.17.67-.37,1.09-.58s.91-.45,1.45-.69a35.08,35.08,0,0,1,5.35-2.09,5.8,5.8,0,0,1,4.39.26,5.59,5.59,0,0,1,1,.77,4,4,0,0,1,1.13,2,5.22,5.22,0,0,1-1.36,4,19.71,19.71,0,0,1-3.06,3c-5.41,4.44-15.11,10.52-25.23,16.21a266.57,266.57,0,0,1-27.83,13.87c-.46.18-.91.37-1.36.57s-.9.41-1.34.64c-5.93,3.14-6.94,6.74-6.46,9.56a10.25,10.25,0,0,0,2.44,4.85,6.67,6.67,0,0,0-6.05,6.11,8.7,8.7,0,0,0,0,1,6.78,6.78,0,0,0,.11,1c.67,3.46,3.36,5.26,5.88,6.19a17.26,17.26,0,0,0,4.88,1,8.94,8.94,0,0,0,2.64,7.19,12.55,12.55,0,0,0,5.71,2.86,18,18,0,0,0,3,.43,20.57,20.57,0,0,0,3-.05l8.78-.77,8.78-.77c1,3.28,4.44,4.49,8.18,4.74a38.64,38.64,0,0,0,10.08-.91q1.57-.33,3.15-.63l3.15-.59c27.22-5,46.67-10.79,60.21-16s21.2-9.83,24.82-12.34c.63-.45,1.24-.93,1.82-1.43s1.15-1,1.72-1.56a27.36,27.36,0,0,1,7.47-4.57,72.89,72.89,0,0,1,7.29-2.75l2.65-.86c.89-.28,1.77-.58,2.65-.88L703.57,395,771,372.09a39.58,39.58,0,0,0,4.81-2,30.11,30.11,0,0,0,4.47-2.66c17.73-12.67,18.76-38.34,15.35-60.84A207.89,207.89,0,0,0,784.39,264.77Z"/><path class="cls-7" d="M466.2,431.38s13.33-3,29.31-7.72,34.6-11.14,45.21-18"/><path class="cls-7" d="M471,446.71s13.7-2.44,30.3-6.49S537.38,430.49,549,424"/><path class="cls-7" d="M502.94,455.6a129.71,129.71,0,0,0,15.51-3.24,206.14,206.14,0,0,0,37.61-14"/><path class="cls-5" d="M664.08,291.36l15.9-9,15.9-9.05-23-10.79-23-10.79L657,271.52Q660.55,281.45,664.08,291.36Z"/><path class="cls-10" d="M469.5,237.06a77.88,77.88,0,0,1-3.38-17.12,41.84,41.84,0,0,1,1.17-14.08,21.9,21.9,0,0,1,6.48-10.6,36.39,36.39,0,0,1,26.63-8.07,21.94,21.94,0,0,1,11.29,5.25,42.51,42.51,0,0,1,8.81,11.06,87.52,87.52,0,0,1,10.07,33.19,42.39,42.39,0,0,1-1.15,14.16A22,22,0,0,1,523,261.53a36.2,36.2,0,0,1-26.62,8.1,21.9,21.9,0,0,1-11.29-5.25,42.28,42.28,0,0,1-8.83-11.12A79,79,0,0,1,469.5,237.06Zm45-13.68a77.47,77.47,0,0,0-4.41-11.52,34.81,34.81,0,0,0-5.14-7.94,11.94,11.94,0,0,0-6.51-3.88,17.06,17.06,0,0,0-8.53.63,17.39,17.39,0,0,0-7.53,4.23,11.9,11.9,0,0,0-3.29,6.82,34.27,34.27,0,0,0,.14,9.44A77.24,77.24,0,0,0,482,233.25a80.27,80.27,0,0,0,4.46,11.7,35.68,35.68,0,0,0,5.17,8,12,12,0,0,0,6.55,3.91,17.2,17.2,0,0,0,8.62-.64,17,17,0,0,0,7.44-4.23,12.08,12.08,0,0,0,3.24-6.89,35.22,35.22,0,0,0-.18-9.55A78.81,78.81,0,0,0,514.54,223.38Z"/><path class="cls-10" d="M573,162.32l-22.76,6.91-22.75,6.91A3.87,3.87,0,0,0,524.9,181L526,184.5l1.08,3.53a3.18,3.18,0,0,0,1.56,1.91,3.21,3.21,0,0,0,2.46.24l15.67-4.75,15.67-4.76a2.49,2.49,0,0,1,3.2,2.67L561.53,218l-4.07,34.61a2.49,2.49,0,0,0,3.2,2.67l5.62-1.7,5.61-1.71a2.48,2.48,0,0,0,1.2-.8,2.53,2.53,0,0,0,.56-1.32l4-38.72,4-38.71,0-.15V172l-.89-3-.9-3a5.6,5.6,0,0,0-7-3.73Z"/><path class="cls-2" d="M376.92,370.92,374.23,372l-2.81,1.16c-3.2,1.31-14.8,5.19-29.24,10.38s-31.71,11.7-46.25,18.28a54.65,54.65,0,0,0-6.87,3.58,39.15,39.15,0,0,0-8.16,6.74,40.84,40.84,0,0,0-6.78,10.05,50.48,50.48,0,0,0-2.8,7.41,89.84,89.84,0,0,0-3.18,15.91,119.62,119.62,0,0,0-.65,15.42,129.71,129.71,0,0,0,2.3,21.63,139.21,139.21,0,0,0,5.75,21l30.25,84.28,30.26,84.28q14.74-5.28,29.68-10.52t30-10.46q14.69-5.07,29.24-10t29-9.73L430.9,568.19Q419.35,536.59,407.78,505l9.22-3.76,9.22-3.77q-12.32-31.63-24.65-63.26T376.92,370.92Z"/><path class="cls-11" d="M523.17,747.44h0l-150,30.36-150,30.36h0a36.49,36.49,0,0,0,39.28,18.37l55.91-11.26L374.27,804a49.3,49.3,0,0,0,10-3.18,48.65,48.65,0,0,0,9.12-5.24l2.58-1.88,2.58-1.87a2.57,2.57,0,0,1,4,1.31h0A5.62,5.62,0,0,0,409,797l25.81-5.2,25.81-5.2a5.92,5.92,0,0,0,3.15-1.73,6,6,0,0,0,1.6-3.23l.18-1.16.18-1.16a1.5,1.5,0,0,1,1.05-1.21,1.47,1.47,0,0,1,1.53.43l1.34,1.92,1.34,1.92a3.49,3.49,0,0,0,1.56,1.24,3.39,3.39,0,0,0,2,.18l5.34-1.07,5.33-1.08a3.46,3.46,0,0,0,2.74-2.86l.34-2.18.34-2.17a1.5,1.5,0,0,1,1.05-1.21,1.47,1.47,0,0,1,1.53.43l.85,1.21.85,1.22a6.53,6.53,0,0,0,6.65,2.67l3.72-.75,3.72-.75a22.12,22.12,0,0,0,16.17-29.82Z"/><path class="cls-10" d="M492.51,672.42c-3.81-6.62-8.4-14.76-13.58-24.26S468,627.8,461.8,615.7a19.92,19.92,0,0,0-2.12-3.63,19.33,19.33,0,0,0-4.53-4.43,15.32,15.32,0,0,0-5.07-2.27,15,15,0,0,0-5.54-.29,97.73,97.73,0,0,0-14.07,3,93.23,93.23,0,0,0-10.38,3.68,97.47,97.47,0,0,0-10.86,5.15,53.56,53.56,0,0,0-11.3,8.55,56.8,56.8,0,0,0-6.45,7.63,58.18,58.18,0,0,0-4,6.53s-1.58-9-6.62-15.83-13.53-11.56-27.34-3L339,630.07l-14.51,9.34a10.74,10.74,0,0,0-3.21,14.89l7.31,11.31L336,676.92a19.87,19.87,0,0,1,3.26,10.81c0,6.42-3.15,14.87-16,23l-24.18,13.75L274.9,738.23Q269,741.61,263,744.89t-12,6.5c-7,3.76-18.57,10.92-26,20.67S214,794.15,223.19,808.3L373.29,778,523.4,747.68c-5.15-19.69-12.87-38.51-19.31-52.4S492.51,672.42,492.51,672.42Z"/><path class="cls-7" d="M387.52,639.6a110.16,110.16,0,0,1-1.4,20.2c-1.8,11-5.81,24-14.61,31.5"/><path class="cls-12" d="M358.8,711.83a3.27,3.27,0,0,1-.54,0,3.53,3.53,0,0,1-.54-.13l-12-3.89-12-3.9a3.52,3.52,0,0,1-2-1.73,3.47,3.47,0,0,1-.21-2.67,3.49,3.49,0,0,1,4.41-2.26l12,3.9,12,3.89a3.5,3.5,0,0,1-1.07,6.83Z"/><path class="cls-12" d="M330.87,733.42a3.2,3.2,0,0,1-.75-.09,2.94,2.94,0,0,1-.74-.25l-11.13-5.22-11.13-5.22a3.49,3.49,0,0,1-1.68-4.66,3.5,3.5,0,0,1,4.65-1.68l11.13,5.22,11.14,5.23A3.5,3.5,0,0,1,334,731.4a3.4,3.4,0,0,1-1.32,1.48A3.47,3.47,0,0,1,330.87,733.42Z"/><path class="cls-11" d="M791.52,949.41h0l-152.89,6.74-152.9,6.74h0a36.52,36.52,0,0,0,36,24.24l57-2.46,57-2.46A48.42,48.42,0,0,0,646,980.63a48.93,48.93,0,0,0,9.82-3.77l2.84-1.45,2.84-1.46a2.57,2.57,0,0,1,3.71,1.92h0a5.65,5.65,0,0,0,5.82,4.81l26.3-1.14,26.3-1.13a6.06,6.06,0,0,0,3.39-1.23,6,6,0,0,0,2.07-2.94l.36-1.12.37-1.12a1.48,1.48,0,0,1,1.22-1,1.5,1.5,0,0,1,1.45.66l1,2.11,1,2.11a3.45,3.45,0,0,0,3.27,1.94l5.43-.23,5.43-.23a3.54,3.54,0,0,0,2-.71,3.47,3.47,0,0,0,1.2-1.7l.67-2.1.68-2.09a1.49,1.49,0,0,1,2.67-.37l.65,1.33.65,1.34a6.54,6.54,0,0,0,2.53,2.75,6.46,6.46,0,0,0,3.62.91l3.79-.16,3.79-.16a22.12,22.12,0,0,0,20.6-27Z"/><path class="cls-10" d="M772.86,870.55c-2.73-7.14-6-15.89-9.66-26.07s-7.66-21.82-11.89-34.73a19.35,19.35,0,0,0-5.32-9,15.13,15.13,0,0,0-10.08-4.18,98.59,98.59,0,0,0-14.36.77,95.61,95.61,0,0,0-10.82,2,97.17,97.17,0,0,0-11.53,3.4,53.61,53.61,0,0,0-12.49,6.7,56,56,0,0,0-7.55,6.54,57.33,57.33,0,0,0-4.93,5.83s-.17-9.11-4.09-16.66-11.57-13.51-26.54-7.24l-15.78,7-15.79,7a10.76,10.76,0,0,0-5.48,14.22l5.47,12.3,5.48,12.31a19.87,19.87,0,0,1,1.55,11.18c-1,6.35-5.42,14.21-19.34,20.25l-26,9.84-26,9.83q-6.4,2.43-12.83,4.73T522,911.1c-7.55,2.63-20.05,7.91-29,16.39s-14.18,20.14-7.28,35.54l153-6.67,153-6.67c-2-20.26-6.74-40.05-11-54.77S772.86,870.55,772.86,870.55Z"/><path class="cls-7" d="M674.23,821.84a109.87,109.87,0,0,1-4.51,19.74c-3.5,10.63-9.46,22.78-19.32,28.86"/><path class="cls-12" d="M635.19,888.79a3.55,3.55,0,0,1-.79-.09,3.19,3.19,0,0,1-.78-.29l-11.29-5.71L611.05,877a3.52,3.52,0,0,1-1.75-2,3.52,3.52,0,0,1,2.24-4.42,3.51,3.51,0,0,1,2.67.2l11.28,5.72,11.29,5.71a3.5,3.5,0,0,1-1.59,6.62Z"/><path class="cls-12" d="M604.26,905.79a3.48,3.48,0,0,1-1-.15,3.59,3.59,0,0,1-1-.45l-10.18-6.89-10.19-6.88a3.53,3.53,0,0,1-1.48-2.24,3.5,3.5,0,0,1,5.4-3.56L596,892.5l10.18,6.89a3.49,3.49,0,0,1,.94,4.86,3.4,3.4,0,0,1-1.28,1.14A3.53,3.53,0,0,1,604.26,905.79Z"/><path class="cls-10" d="M384.06,256.32a72.83,72.83,0,1,1-21.33-51.5A72.61,72.61,0,0,1,384.06,256.32Z"/><g class="cls-13"><polygon class="cls-5" points="232.15 214.98 224.75 228.82 217.34 242.66 228.31 253.36 239.29 264.06 253.47 256.83 267.66 249.6 265.45 234.43 263.25 219.27 247.7 217.12 232.15 214.98"/><polygon class="cls-5" points="287.7 302.45 272.11 302.36 256.53 302.26 252.77 316.64 249 331.02 262.26 340 275.52 348.99 287.48 340.16 299.44 331.33 293.57 316.89 287.7 302.45"/><polygon class="cls-5" points="370.3 305.97 355.75 303.67 341.19 301.36 334.5 314.49 327.81 327.62 338.24 338.04 348.65 348.46 361.78 341.77 374.91 335.08 372.61 320.52 370.3 305.97"/><polygon class="cls-5" points="354.46 222.11 355.78 236.79 357.1 251.46 371.47 254.74 385.84 258.02 393.39 245.37 400.95 232.72 391.26 221.63 381.56 210.53 368.01 216.32 354.46 222.11"/><polygon class="cls-5" points="324.31 175.84 309.6 176.69 294.88 177.55 291.15 191.81 287.43 206.06 299.83 214.01 312.24 221.97 323.63 212.63 335.03 203.29 329.67 189.56 324.31 175.84"/><polygon class="cls-5" points="313.71 240.89 301.79 249.55 289.87 258.21 294.43 272.23 298.98 286.24 313.71 286.24 328.45 286.24 333 272.23 337.56 258.21 325.64 249.55 313.71 240.89"/><polyline class="cls-5" points="268.31 249.27 279.09 253.74 289.87 258.21"/><polyline class="cls-5" points="263.7 220.16 275.56 213.11 287.43 206.06"/><polyline class="cls-5" points="312.24 221.97 312.98 231.43 313.71 240.89"/><polyline class="cls-5" points="357.1 251.46 347.33 254.84 337.56 258.21"/><polyline class="cls-5" points="328.45 286.24 334.82 293.8 341.19 301.36"/><polyline class="cls-5" points="298.98 286.24 293.58 293.8 288.18 301.36"/><polyline class="cls-5" points="335.03 203.29 344.75 212.7 354.46 222.11"/></g><path class="cls-7" d="M223.17,281.93a38.83,38.83,0,0,0-.37,9.44,38,38,0,0,0,21.41,31.11"/><path class="cls-7" d="M207.9,298.57A21.64,21.64,0,0,0,218.64,322"/><path class="cls-7" d="M587.05,691.3a46.83,46.83,0,0,0,10,3.81,45.63,45.63,0,0,0,16.69,1.1A46.64,46.64,0,0,0,630.17,691a49.48,49.48,0,0,0,9.11-6.28"/><polyline class="cls-7" points="407.78 504.97 397.67 508.21 387.56 511.45"/></svg>